<svg width="64" height="64" viewBox="0 0 64 64" fill="none" xmlns="http://www.w3.org/2000/svg">
<g clip-path="url(#clip0_6002_7754)">
<path d="M54.761 34.165H49.8115C50.316 35.5463 50.5916 37.0369 50.5916 38.5905V57.2968C50.5916 57.9446 50.4789 58.5663 50.2738 59.1446H58.4564C61.513 59.1446 63.9997 56.6578 63.9997 53.6013V43.4037C63.9998 38.3095 59.8553 34.165 54.761 34.165Z" fill="#02A04B"/>
<path d="M13.4082 38.5907C13.4082 37.0369 13.6838 35.5464 14.1883 34.1652H9.23877C4.14451 34.1652 0 38.3097 0 43.4039V53.6016C0 56.6581 2.48663 59.1448 5.54326 59.1448H13.726C13.5209 58.5663 13.4082 57.9447 13.4082 57.297V38.5907Z" fill="#02A04B"/>
<path d="M37.6576 29.3519H26.3423C21.248 29.3519 17.1035 33.4964 17.1035 38.5907V57.297C17.1035 58.3174 17.9308 59.1447 18.9513 59.1447H45.0486C46.0691 59.1447 46.8963 58.3175 46.8963 57.297V38.5907C46.8963 33.4964 42.7518 29.3519 37.6576 29.3519Z" fill="#02A04B"/>
<path d="M32.0004 4.85498C25.8739 4.85498 20.8896 9.83924 20.8896 15.9659C20.8896 20.1215 23.1833 23.7509 26.5705 25.6564C28.1772 26.5602 30.0294 27.0767 32.0004 27.0767C33.9714 27.0767 35.8237 26.5602 37.4303 25.6564C40.8177 23.7509 43.1112 20.1214 43.1112 15.9659C43.1112 9.83936 38.1269 4.85498 32.0004 4.85498Z" fill="#02A04B"/>
<path d="M12.4901 15.2112C7.90817 15.2112 4.18066 18.9387 4.18066 23.5206C4.18066 28.1025 7.90817 31.83 12.4901 31.83C13.6523 31.83 14.7591 31.5892 15.7644 31.1565C17.5027 30.4081 18.9359 29.0833 19.8228 27.424C20.4453 26.2593 20.7994 24.9307 20.7994 23.5206C20.7994 18.9388 17.0719 15.2112 12.4901 15.2112Z" fill="#02A04B"/>
<path d="M51.5106 15.2112C46.9287 15.2112 43.2012 18.9387 43.2012 23.5206C43.2012 24.9308 43.5553 26.2595 44.1778 27.424C45.0647 29.0835 46.4979 30.4082 48.2362 31.1565C49.2416 31.5892 50.3483 31.83 51.5106 31.83C56.0924 31.83 59.82 28.1025 59.82 23.5206C59.82 18.9387 56.0924 15.2112 51.5106 15.2112Z" fill="#02A04B"/>
</g>
<defs>
<clipPath id="clip0_6002_7754">
<rect width="64" height="64" fill="white"/>
</clipPath>
</defs>
</svg>
