<svg width="64" height="64" viewBox="0 0 64 64" fill="none" xmlns="http://www.w3.org/2000/svg">
<g clip-path="url(#clip0_6002_8088)">
<path d="M21.9033 48.3406L23.4742 52.4249C18.9069 53.2907 15.4414 57.3096 15.4414 62.125V64H56.5248V62.125C56.5248 56.68 52.0948 52.25 46.6498 52.25H46.0914L44.5878 48.3406H21.9033Z" fill="#02A04B"/>
<path d="M53.8566 31.0931V0H39.205L34.3753 4.82963C30.4048 1.6885 24.7595 1.38825 20.4606 4.23688L19.6212 4.793L19.6211 9.48287L32.3397 22.598H37.4261L37.9822 21.7586C40.9271 17.3141 40.5067 11.4307 37.0611 7.44675L40.7582 3.75H50.1066V29.3886L53.8566 31.0931Z" fill="#02A04B"/>
<path d="M58.2318 37.2008L48.79 32.9091H25.6938L15.0513 23.9039C13.2645 22.392 11.0474 21.5828 8.73303 21.5828C8.45728 21.5828 8.18028 21.5943 7.90241 21.6174C5.29203 21.8349 2.92253 23.056 1.23066 25.0556L0.0195312 26.487L21.4147 44.5906H46.2599L62.3254 51.8933L63.1013 50.1863C65.3389 45.2636 63.1544 39.4383 58.2318 37.2008Z" fill="#02A04B"/>
</g>
<defs>
<clipPath id="clip0_6002_8088">
<rect width="64" height="64" fill="white"/>
</clipPath>
</defs>
</svg>
