<svg width="64" height="64" viewBox="0 0 64 64" fill="none" xmlns="http://www.w3.org/2000/svg">
<g clip-path="url(#clip0_4331_8129)">
<path d="M44.5 3.75C45.5355 3.75 46.375 2.91053 46.375 1.875C46.375 0.839466 45.5355 0 44.5 0C43.4645 0 42.625 0.839466 42.625 1.875C42.625 2.91053 43.4645 3.75 44.5 3.75Z" fill="#02A04B"/>
<path d="M62.125 32.125C63.1605 32.125 64 31.2855 64 30.25C64 29.2145 63.1605 28.375 62.125 28.375C61.0895 28.375 60.25 29.2145 60.25 30.25C60.25 31.2855 61.0895 32.125 62.125 32.125Z" fill="#02A04B"/>
<path d="M1.875 35.875C2.91053 35.875 3.75 35.0355 3.75 34C3.75 32.9645 2.91053 32.125 1.875 32.125C0.839466 32.125 0 32.9645 0 34C0 35.0355 0.839466 35.875 1.875 35.875Z" fill="#02A04B"/>
<path d="M12 64C13.0355 64 13.875 63.1605 13.875 62.125C13.875 61.0895 13.0355 60.25 12 60.25C10.9645 60.25 10.125 61.0895 10.125 62.125C10.125 63.1605 10.9645 64 12 64Z" fill="#02A04B"/>
<path d="M10.2952 17.6942C13.323 18.4513 15.6741 20.8023 16.431 23.83V23.8302C16.9043 25.7238 19.5955 25.7238 20.069 23.8302V23.83C20.8258 20.8023 23.177 18.4513 26.2047 17.6942C28.0983 17.2207 28.0983 14.5297 26.2047 14.0562C23.177 13.2991 20.8258 10.9481 20.069 7.92047V7.92022C19.5956 6.02659 16.9045 6.02659 16.431 7.92022V7.92047C15.6741 10.9481 13.323 13.2991 10.2952 14.0562C8.40159 14.5297 8.40159 17.2207 10.2952 17.6942Z" fill="#02A04B"/>
<path d="M62.5797 9.94409C64.4733 9.47072 64.4733 6.77959 62.5797 6.30622C60.1687 5.70347 58.2967 3.83134 57.694 1.42047V1.42022C57.2206 -0.473406 54.5295 -0.473406 54.056 1.42022V1.42047C53.4532 3.83134 51.5812 5.70347 49.1702 6.30622C47.2766 6.77959 47.2766 9.47072 49.1702 9.94409C51.5812 10.5468 53.4532 12.419 54.056 14.8298V14.8301C54.5293 16.7237 57.2205 16.7237 57.694 14.8301V14.8298C58.2967 12.419 60.1688 10.5468 62.5797 9.94409Z" fill="#02A04B"/>
<path d="M57.644 54.2987C55.0198 53.6426 52.9822 51.605 52.3263 48.9811V48.9808C51.9161 47.3397 49.5837 47.3397 49.1735 48.9808V48.9811C48.5175 51.605 46.4798 53.6426 43.8558 54.2987C42.2147 54.709 42.2147 57.0413 43.8558 57.4516C46.48 58.1077 48.5175 60.1453 49.1735 62.7692V62.7695C49.5837 64.4106 51.9161 64.4106 52.3263 62.7695V62.7692C52.9823 60.1453 55.02 58.1077 57.644 57.4516C59.2851 57.0413 59.2851 54.7091 57.644 54.2987Z" fill="#02A04B"/>
<path d="M38.875 55.875C38.875 53.4041 40.549 51.2598 42.9461 50.6604C44.224 50.3407 45.2161 49.3488 45.5354 48.0713L45.5387 48.0578C46.1426 45.6678 48.2835 43.9996 50.7499 43.9996C52.6761 43.9996 54.4039 45.0171 55.3559 46.6014C56.0177 44.3901 56.375 42.0486 56.375 39.625C56.375 32.9922 52.4653 24.3727 44.7545 14.006C39.1156 6.425 33.5666 0.792625 33.3331 0.5565C32.5993 -0.1855 31.4008 -0.1855 30.6669 0.5565C30.5018 0.7235 27.6781 3.5895 24.0445 7.9345C24.6438 9.16075 25.7561 10.0784 27.1144 10.4181C29.6627 11.0551 31.375 13.248 31.375 15.875C31.375 18.502 29.6628 20.695 27.1143 21.332C25.433 21.7524 24.1274 23.058 23.7071 24.7393L23.7039 24.752C23.0627 27.2935 20.8726 29.0001 18.25 29.0001C15.6274 29.0001 13.4374 27.2935 12.7961 24.752L12.7929 24.7393C12.7421 24.5361 12.6778 24.3386 12.602 24.1474C9.29475 30.1099 7.625 35.2916 7.625 39.625C7.625 53.0654 18.5596 64 32 64C36.0836 64 39.9349 62.9891 43.3195 61.2067C43.1979 61.1618 43.0739 61.1213 42.9461 61.0894C40.5493 60.4901 38.8751 58.3459 38.875 55.875ZM37.625 50.875C37.625 51.9105 36.7855 52.75 35.75 52.75H28.25C27.2145 52.75 26.375 51.9105 26.375 50.875V45.25H20.75C19.7145 45.25 18.875 44.4105 18.875 43.375V35.875C18.875 34.8395 19.7145 34 20.75 34H26.375V28.375C26.375 27.3395 27.2145 26.5 28.25 26.5H35.75C36.7855 26.5 37.625 27.3395 37.625 28.375V34H43.25C44.2855 34 45.125 34.8395 45.125 35.875V43.375C45.125 44.4105 44.2855 45.25 43.25 45.25H37.625V50.875Z" fill="#02A04B"/>
<path d="M33.875 35.875V30.25H30.125V35.875C30.125 36.9105 29.2855 37.75 28.25 37.75H22.625V41.5H28.25C29.2855 41.5 30.125 42.3395 30.125 43.375V49H33.875V43.375C33.875 42.3395 34.7145 41.5 35.75 41.5H41.375V37.75H35.75C34.7145 37.75 33.875 36.9105 33.875 35.875Z" fill="#02A04B"/>
</g>
<defs>
<clipPath id="clip0_4331_8129">
<rect width="64" height="64" fill="white"/>
</clipPath>
</defs>
</svg>
