<svg width="64" height="64" viewBox="0 0 64 64" fill="none" xmlns="http://www.w3.org/2000/svg">
<path d="M58.29 18.9771L37.29 3.72109C35.7536 2.60104 33.9013 1.99756 32 1.99756C30.0987 1.99756 28.2464 2.60104 26.71 3.72109L5.71 18.9771C4.56244 19.8133 3.62837 20.9085 2.98372 22.1736C2.33907 23.4388 2.00204 24.8382 2 26.2581V53.0001C2.00265 55.3862 2.95171 57.6739 4.63896 59.3611C6.32622 61.0484 8.61386 61.9974 11 62.0001H25.571C26.3697 62.0002 27.1501 61.7612 27.8117 61.3139C28.4734 60.8666 28.986 60.2315 29.2836 59.4903C29.5811 58.7491 29.65 57.9358 29.4813 57.1552C29.3126 56.3745 28.914 55.6623 28.337 55.1101L19.668 46.8101C18.8588 46.0331 18.2162 45.0996 17.7792 44.0664C17.3422 43.0332 17.1199 41.9219 17.126 40.8001C17.1237 39.7617 17.3356 38.734 17.7486 37.7813C18.1615 36.8286 18.7666 35.9713 19.526 35.2631C21.1425 33.7965 23.2513 32.991 25.4339 33.0066C27.6165 33.0222 29.7136 33.8576 31.309 35.3471C31.4951 35.5253 31.7428 35.6247 32.0005 35.6247C32.2582 35.6247 32.5059 35.5253 32.692 35.3471C34.2874 33.8576 36.3845 33.0222 38.5671 33.0066C40.7497 32.991 42.8585 33.7965 44.475 35.2631C45.2344 35.9713 45.8395 36.8286 46.2524 37.7813C46.6654 38.734 46.8773 39.7617 46.875 40.8001C46.8811 41.9217 46.6588 43.0329 46.2218 44.0659C45.7848 45.099 45.1422 46.0323 44.333 46.8091L35.664 55.1091C35.0867 55.6611 34.6878 56.3734 34.5189 57.1541C34.35 57.9349 34.4187 58.7483 34.7161 59.4896C35.0136 60.231 35.5262 60.8663 36.1879 61.3137C36.8497 61.7612 37.6302 62.0002 38.429 62.0001H53C55.3861 61.9974 57.6738 61.0484 59.361 59.3611C61.0483 57.6739 61.9974 55.3862 62 53.0001V26.2581C61.998 24.8382 61.6609 23.4388 61.0163 22.1736C60.3716 20.9085 59.4376 19.8133 58.29 18.9771Z" fill="#02A04B"/>
</svg>
