<svg width="64" height="64" viewBox="0 0 64 64" fill="none" xmlns="http://www.w3.org/2000/svg">
<g clip-path="url(#clip0_4331_8119)">
<path d="M52.6172 13.25C52.6172 6.01363 46.7286 0 39.4922 0C36.6723 0 34.0374 1.20662 31.9922 3.37825C29.9468 1.20662 27.3119 0 24.4922 0C17.2558 0 11.3672 6.01363 11.3672 13.25C11.3672 20.5285 16.7083 24.2857 22.8937 28.6381C25.4443 30.4325 28.0829 32.2892 30.7636 34.6147L31.9903 35.6804L33.2189 34.6165C36.2493 31.9944 39.1314 29.9419 41.6729 28.1309C47.7868 23.7786 52.6172 20.3399 52.6172 13.25ZM37.6172 18.875H33.8672V22.625H30.1172V18.875H26.3672V15.125H30.1172V11.375H33.8672V15.125H37.6172V18.875Z" fill="#02A04B"/>
<path d="M61.7423 17.1504C57.9172 17.1504 56.9298 34.9254 56.8547 35.3005C56.4738 37.905 54.6391 41.7605 51.5406 44.082L43.4192 49.9786L41.1707 46.9758L49.2921 41.0809C52.5092 38.6689 53.9754 34.5504 49.9547 34.5504C46.3537 34.5504 39.6226 38.7195 37.6271 40.3734C35.2442 42.3484 33.8672 45.2829 33.8672 48.3779V64.0005H45.1172C45.1172 62.2004 46.0922 60.2379 47.5921 58.3629C49.1672 56.3004 51.4172 54.2004 53.7421 52.0629C58.1671 47.9004 62.7546 43.6254 63.3547 39.2755C63.7109 36.3535 64.0068 31.342 63.9921 26.8755C63.9758 21.8736 63.5521 17.312 61.7423 17.1504Z" fill="#02A04B"/>
<path d="M25.9189 40.0255C20.6312 36.3879 16.619 34.5504 14.0315 34.5504C10.0107 34.5504 11.477 38.6689 14.6941 41.0809L22.8155 46.9758L20.567 49.9786L12.4456 44.082C9.34687 41.7605 7.51212 37.905 7.13124 35.3005C7.05612 34.9254 6.06874 17.1504 2.24362 17.1504C0.143618 17.3379 -0.0813821 23.4504 0.0312429 29.3004C0.106368 33.5754 0.443743 37.7379 0.631118 39.2755C1.23124 43.6254 5.81874 47.9005 10.2437 52.0629C12.5687 54.2004 14.8186 56.3004 16.3937 58.3629C17.8936 60.2379 18.8686 62.2004 18.8686 64.0005H30.1186V48.4528C30.1189 45.1401 28.5637 42.0198 25.9189 40.0255Z" fill="#02A04B"/>
</g>
<defs>
<clipPath id="clip0_4331_8119">
<rect width="64" height="64" fill="white"/>
</clipPath>
</defs>
</svg>
