<svg width="64" height="64" viewBox="0 0 64 64" fill="none" xmlns="http://www.w3.org/2000/svg">
<g clip-path="url(#clip0_4331_8109)">
<path d="M9.5 22.625C12.957 22.625 16.1211 20.7335 17.758 17.6885C18.5985 16.1302 20.4497 15.125 22.4749 15.125H26.5251C28.5503 15.125 30.4015 16.1302 31.2401 17.6866C32.8789 20.7335 36.043 22.625 39.5 22.625C44.6691 22.625 48.875 18.4191 48.875 13.25C48.875 8.08087 44.6691 3.875 39.5 3.875C36.043 3.875 32.8789 5.7665 31.242 8.8115C30.4015 10.3697 28.5503 11.375 26.5251 11.375H22.4749C20.4497 11.375 18.5985 10.3698 17.7599 8.81338C16.1211 5.7665 12.957 3.875 9.5 3.875C4.33087 3.875 0 8.08087 0 13.25C0 18.4191 4.33087 22.625 9.5 22.625ZM37.625 11.375H41.375V15.125H37.625V11.375Z" fill="#02A04B"/>
<path d="M9.5 60.125C12.957 60.125 16.1211 58.2335 17.758 55.1885C18.5985 53.6302 20.4497 52.625 22.4749 52.625H26.5251C28.5503 52.625 30.4015 53.6303 31.2401 55.1866C32.8789 58.2335 36.043 60.125 39.5 60.125C44.6691 60.125 48.875 55.9191 48.875 50.75C48.875 45.5809 44.6691 41.375 39.5 41.375C36.043 41.375 32.8789 43.2665 31.242 46.3115C30.4015 47.8698 28.5503 48.875 26.5251 48.875H22.4749C20.4497 48.875 18.5985 47.8697 17.7599 46.3134C16.1211 43.2665 12.957 41.375 9.5 41.375C4.33087 41.375 0 45.5809 0 50.75C0 55.9191 4.33087 60.125 9.5 60.125ZM37.625 48.875H41.375V52.625H37.625V48.875Z" fill="#02A04B"/>
<path d="M46.242 27.5615C45.4015 29.1198 43.5502 30.125 41.5251 30.125H37.4749C35.4498 30.125 33.5985 29.1198 32.7599 27.5634C31.1211 24.5165 27.957 22.625 24.5 22.625C19.3309 22.625 15.125 26.8309 15.125 32C15.125 37.1691 19.3309 41.375 24.5 41.375C27.957 41.375 31.1211 39.4835 32.758 36.4385C33.5985 34.8802 35.4498 33.875 37.4749 33.875H41.5251C43.5502 33.875 45.4015 34.8803 46.2401 36.4366C47.8789 39.4835 51.043 41.375 54.5 41.375C59.6691 41.375 64 37.1691 64 32C64 26.8309 59.6691 22.625 54.5 22.625C51.043 22.625 47.8789 24.5165 46.242 27.5615ZM26.375 33.875H22.625V30.125H26.375V33.875Z" fill="#02A04B"/>
</g>
<defs>
<clipPath id="clip0_4331_8109">
<rect width="64" height="64" fill="white"/>
</clipPath>
</defs>
</svg>
