<svg width="64" height="64" viewBox="0 0 64 64" fill="none" xmlns="http://www.w3.org/2000/svg">
<g clip-path="url(#clip0_6002_7788)">
<path d="M51.7548 18.709L41.1887 17.1736L36.4633 7.59927C34.639 3.90203 29.3614 3.90065 27.5361 7.59914L22.8107 17.1736L12.2446 18.709C8.16465 19.3017 6.53278 24.3204 9.48602 27.1994L17.1318 34.6521L15.3269 45.1753C14.6299 49.2386 18.8981 52.3417 22.5492 50.4228L31.9997 45.4541L41.4505 50.4228C45.1058 52.3442 49.3681 49.2294 48.6724 45.1753L46.8676 34.6521L54.5134 27.1994C57.4656 24.3214 55.8364 19.3021 51.7548 18.709Z" fill="#02A04B"/>
<path d="M16.8412 5.89393L14.2899 2.38244C13.5972 1.42944 12.2631 1.21807 11.3101 1.91069C10.357 2.60319 10.1457 3.93731 10.8382 4.89044L13.3896 8.40193C14.0826 9.35543 15.4169 9.56605 16.3694 8.87368C17.3225 8.1813 17.5337 6.84706 16.8412 5.89393Z" fill="#02A04B"/>
<path d="M8.37457 37.3634C8.01044 36.2431 6.8072 35.6293 5.68645 35.9938L1.47458 37.3624C0.354082 37.7263 -0.259041 38.9299 0.104958 40.0506C0.469707 41.1732 1.67545 41.7838 2.79308 41.4202L7.00507 40.0516C8.12557 39.6877 8.73869 38.4841 8.37457 37.3634Z" fill="#02A04B"/>
<path d="M52.6897 1.91073C51.7367 1.2181 50.4026 1.42935 49.71 2.38248L47.1586 5.89397C46.466 6.84709 46.6774 8.18134 47.6305 8.87371C48.584 9.56646 49.9179 9.35471 50.6102 8.40197L53.1616 4.89047C53.8542 3.93735 53.6428 2.60323 52.6897 1.91073Z" fill="#02A04B"/>
<path d="M62.5256 37.3624L58.3136 35.9938C57.1931 35.629 55.9896 36.2429 55.6255 37.3634C55.2614 38.4839 55.8745 39.6874 56.9951 40.0515L61.2071 41.4202C62.3254 41.7839 63.5306 41.1725 63.8953 40.0505C64.2593 38.93 63.6461 37.7265 62.5256 37.3624Z" fill="#02A04B"/>
<path d="M31.9995 53.9006C30.8213 53.9006 29.8662 54.8558 29.8662 56.0339V60.3636C29.8662 61.5417 30.8213 62.4969 31.9995 62.4969C33.1776 62.4969 34.1327 61.5417 34.1327 60.3636V56.0339C34.1328 54.8558 33.1777 53.9006 31.9995 53.9006Z" fill="#02A04B"/>
</g>
<defs>
<clipPath id="clip0_6002_7788">
<rect width="64" height="64" fill="white"/>
</clipPath>
</defs>
</svg>
