<svg width="64" height="64" viewBox="0 0 64 64" fill="none" xmlns="http://www.w3.org/2000/svg">
<path d="M23.3327 10.6666V3.33325H40.666V10.6666C40.666 11.0399 40.3727 11.3333 39.9993 11.3333H23.9993C23.626 11.3333 23.3327 11.0399 23.3327 10.6666ZM55.3327 13.3333V50.6666C55.3327 56.1866 50.8527 60.6666 45.3327 60.6666H18.666C13.146 60.6666 8.66602 56.1866 8.66602 50.6666V13.3333C8.66602 7.81325 13.146 3.33325 18.666 3.33325H19.3327V10.6666C19.3327 13.2266 21.4393 15.3333 23.9993 15.3333H39.9993C42.5593 15.3333 44.666 13.2266 44.666 10.6666V3.33325H45.3327C50.8527 3.33325 55.3327 7.81325 55.3327 13.3333ZM44.666 37.3332C44.666 36.2399 43.7593 35.3333 42.666 35.3333H38.906L37.386 29.2533C37.066 27.9733 35.9727 27.1199 34.666 27.0933C33.306 27.0399 32.2393 27.8932 31.8927 29.1733L28.826 39.9199L27.4127 37.1466C26.826 36.0266 25.706 35.3333 24.4527 35.3333H21.3593C20.266 35.3333 19.3593 36.2399 19.3593 37.3332C19.3593 38.4266 20.266 39.3332 21.3593 39.3332H24.0527L26.6127 44.3199C27.0927 45.2799 28.0793 45.8666 29.146 45.8666H29.4393C30.6127 45.7599 31.5727 44.9333 31.8927 43.8133L34.586 34.3999L35.1993 36.7999C35.5727 38.2933 36.906 39.3332 38.426 39.3332H42.7193C43.8127 39.3332 44.7193 38.4266 44.7193 37.3332H44.666Z" fill="#02A04B"/>
</svg>
