<svg width="64" height="64" viewBox="0 0 64 64" fill="none" xmlns="http://www.w3.org/2000/svg">
<path d="M10.8867 33.3333C10.7411 32.9038 10.6667 32.4534 10.6667 31.9999C10.7621 30.6765 11.3758 29.4442 12.3743 28.5705C13.3728 27.6968 14.6757 27.2522 16 27.3333C17.3243 27.2522 18.6272 27.6968 19.6257 28.5705C20.6242 29.4442 21.2379 30.6765 21.3333 31.9999C21.3333 32.4534 21.2589 32.9038 21.1133 33.3333H28V25.3719C28 25.005 28.1005 24.6451 28.2907 24.3313C28.4809 24.0174 28.7534 23.7617 29.0787 23.5919C29.3947 23.4244 29.7506 23.3468 30.1077 23.3675C30.4648 23.3882 30.8094 23.5064 31.104 23.7093C31.3654 23.8965 31.6784 23.9981 32 23.9999C33.084 23.9999 34 22.7786 34 21.3333C34 19.8879 33.084 18.6666 32 18.6666C31.6789 18.6684 31.3661 18.7689 31.104 18.9546C30.8091 19.1574 30.4643 19.2756 30.1071 19.2963C29.7498 19.317 29.3936 19.2394 29.0773 19.0719C28.7519 18.9027 28.4793 18.6473 28.2893 18.3336C28.0993 18.0199 27.9992 17.66 28 17.2933V9.33325H9.33333C7.91885 9.33325 6.56229 9.89515 5.5621 10.8953C4.5619 11.8955 4 13.2521 4 14.6666V33.3333H10.8867Z" fill="#02A04B"/>
<path d="M33.9998 15.1C34.344 14.8047 34.734 14.5673 35.1545 14.3974C36.4178 13.9908 37.7904 14.0988 38.9746 14.6979C40.1587 15.297 41.0589 16.3388 41.4798 17.5974C42.0507 18.795 42.1264 20.1695 41.6903 21.4226C41.2542 22.6756 40.3416 23.7062 39.1505 24.2907C38.7297 24.4595 38.2844 24.559 37.8318 24.5854L40.4118 30.9707L47.7932 27.988C48.1331 27.8499 48.5044 27.8079 48.8666 27.8667C49.2287 27.9255 49.5677 28.0828 49.8465 28.3214C50.1201 28.5519 50.3254 28.853 50.4401 29.1919C50.5548 29.5308 50.5745 29.8947 50.4972 30.244C50.4224 30.5546 50.4457 30.8806 50.5638 31.1774C50.9359 31.65 51.4513 31.9891 52.0327 32.1437C52.614 32.2982 53.2298 32.2598 53.7875 32.0343C54.3451 31.8088 54.8145 31.4083 55.125 30.8931C55.4355 30.3779 55.5703 29.7758 55.5092 29.1774C55.3867 28.8802 55.1759 28.6279 54.9052 28.4547C54.6063 28.2575 54.3674 27.9819 54.2146 27.6581C54.0617 27.3343 54.0008 26.9748 54.0385 26.6187C54.0737 26.2538 54.2084 25.9057 54.428 25.6122C54.6477 25.3188 54.9437 25.0913 55.2838 24.9547L62.6665 21.9774L55.6745 4.66669C55.4122 4.01709 55.0245 3.42552 54.5336 2.92579C54.0426 2.42605 53.458 2.02793 52.8132 1.75417C52.1684 1.4804 51.4759 1.33637 50.7754 1.33028C50.0749 1.32419 49.38 1.45618 48.7305 1.71869L31.4238 8.71602L33.9998 15.1Z" fill="#02A04B"/>
<path d="M47.7793 36C47.925 36.4295 47.9993 36.8799 47.9993 37.3333C47.9039 38.6567 47.2903 39.889 46.2917 40.7627C45.2932 41.6364 43.9904 42.081 42.666 42C41.3417 42.081 40.0388 41.6364 39.0403 40.7627C38.0418 39.889 37.4282 38.6567 37.3327 37.3333C37.3328 36.8799 37.4071 36.4295 37.5527 36H30.666V43.96C30.6668 44.3268 30.5667 44.6867 30.3767 45.0004C30.1867 45.3141 29.9141 45.5695 29.5887 45.7387C29.2729 45.9066 28.9171 45.9846 28.56 45.9644C28.2029 45.9442 27.8582 45.8265 27.5633 45.624C27.3015 45.4367 26.988 45.3351 26.666 45.3333C25.582 45.3333 24.666 46.5547 24.666 48C24.666 49.4453 25.582 50.6667 26.666 50.6667C26.9886 50.6647 27.3026 50.5626 27.5647 50.3747C27.8593 50.1729 28.2034 50.0555 28.5599 50.0351C28.9163 50.0146 29.2716 50.0919 29.5873 50.2587C29.9127 50.4284 30.1853 50.684 30.3755 50.9979C30.5657 51.3117 30.6662 51.6717 30.666 52.0387V60H49.3327C50.7472 60 52.1037 59.4381 53.1039 58.4379C54.1041 57.4377 54.666 56.0812 54.666 54.6667V36H47.7793Z" fill="#02A04B"/>
<path d="M28 53.1133C27.5705 53.2589 27.1201 53.3333 26.6667 53.3333C25.3433 53.2379 24.111 52.6242 23.2373 51.6257C22.3636 50.6272 21.919 49.3243 22 48C21.919 46.6757 22.3636 45.3728 23.2373 44.3743C24.111 43.3758 25.3433 42.7621 26.6667 42.6667C27.1201 42.6667 27.5705 42.7411 28 42.8867V36H20.04C19.6732 36.0008 19.3133 35.9007 18.9996 35.7107C18.6859 35.5207 18.4305 35.2481 18.2613 34.9227C18.0935 34.6069 18.0154 34.2511 18.0356 33.894C18.0558 33.5369 18.1735 33.1922 18.376 32.8973C18.5633 32.6355 18.6649 32.322 18.6667 32C18.6667 30.916 17.4453 30 16 30C14.5547 30 13.3333 30.916 13.3333 32C13.3353 32.3226 13.4374 32.6365 13.6253 32.8987C13.8275 33.1931 13.9452 33.5373 13.9656 33.8938C13.9861 34.2504 13.9085 34.6057 13.7413 34.9213C13.5716 35.2467 13.316 35.5193 13.0021 35.7095C12.6883 35.8997 12.3283 36.0001 11.9613 36H4V54.6667C4 56.0812 4.5619 57.4377 5.5621 58.4379C6.56229 59.4381 7.91885 60 9.33333 60H28V53.1133Z" fill="#02A04B"/>
</svg>
