<svg width="18" height="18" viewBox="0 0 18 18" fill="none" xmlns="http://www.w3.org/2000/svg">
<path d="M9 18C4.00781 18 0 13.9922 0 9C0 4.04297 4.00781 0 9 0C13.957 0 18 4.04297 18 9C18 13.9922 13.957 18 9 18ZM8.15625 9C8.15625 9.28125 8.29688 9.5625 8.50781 9.70312L11.8828 11.9531C12.2695 12.2344 12.7969 12.1289 13.043 11.7422C13.3242 11.3555 13.2188 10.8281 12.832 10.5469L9.84375 8.57812V4.21875C9.84375 3.76172 9.45703 3.375 8.96484 3.375C8.50781 3.375 8.12109 3.76172 8.12109 4.21875L8.15625 9Z" fill="white"/>
</svg>
