<svg width="18" height="18" viewBox="0 0 18 18" fill="none" xmlns="http://www.w3.org/2000/svg">
<path d="M17.332 5.73047C17.7539 6.04688 18 6.53906 18 7.06641V16.3477C18 17.2617 17.2266 18 16.3125 18H1.6875C0.738281 18 0 17.2617 0 16.3125V7.06641C0 6.53906 0.210938 6.04688 0.632812 5.73047C1.51172 5.02734 2.21484 4.5 6.39844 1.47656C6.99609 1.05469 8.15625 0 8.96484 0H9C9.80859 0 10.9688 1.05469 11.5664 1.47656C15.75 4.5 16.4531 5.0625 17.332 5.73047ZM10.6523 12.9375L15.75 8.96484V7.34766C14.9766 6.75 14.0625 6.08203 10.2305 3.30469C10.125 3.19922 9.98438 3.09375 9.84375 2.98828C9.66797 2.84766 9.28125 2.53125 9 2.35547C8.68359 2.53125 8.29688 2.84766 8.12109 2.98828C7.98047 3.09375 7.83984 3.19922 7.73438 3.26953C3.86719 6.08203 2.98828 6.75 2.25 7.34766V8.96484L7.3125 12.9375C7.80469 13.3242 8.40234 13.5 9 13.5C9.5625 13.5 10.1602 13.3242 10.6523 12.9375Z" fill="white"/>
</svg>
