<svg width="131" height="21" viewBox="0 0 131 21" fill="none" xmlns="http://www.w3.org/2000/svg">
<path d="M10.1172 1.20312C10.5859 0.265625 11.9141 0.304688 12.3438 1.20312L14.9219 6.39844L20.625 7.21875C21.6406 7.375 22.0312 8.625 21.2891 9.36719L17.1875 13.3906L18.1641 19.0547C18.3203 20.0703 17.2266 20.8516 16.3281 20.3828L11.25 17.6875L6.13281 20.3828C5.23438 20.8516 4.14062 20.0703 4.29688 19.0547L5.27344 13.3906L1.17188 9.36719C0.429688 8.625 0.820312 7.375 1.83594 7.21875L7.57812 6.39844L10.1172 1.20312Z" fill="#FFB800"/>
<path d="M37.1172 1.20483C37.5859 0.267334 38.9141 0.306396 39.3438 1.20483L41.9219 6.40015L47.625 7.22046C48.6406 7.37671 49.0312 8.62671 48.2891 9.3689L44.1875 13.3923L45.1641 19.0564C45.3203 20.072 44.2266 20.8533 43.3281 20.3845L38.25 17.6892L33.1328 20.3845C32.2344 20.8533 31.1406 20.072 31.2969 19.0564L32.2734 13.3923L28.1719 9.3689C27.4297 8.62671 27.8203 7.37671 28.8359 7.22046L34.5781 6.40015L37.1172 1.20483Z" fill="#FFB800"/>
<path d="M64.1172 1.20483C64.5859 0.267334 65.9141 0.306396 66.3438 1.20483L68.9219 6.40015L74.625 7.22046C75.6406 7.37671 76.0312 8.62671 75.2891 9.3689L71.1875 13.3923L72.1641 19.0564C72.3203 20.072 71.2266 20.8533 70.3281 20.3845L65.25 17.6892L60.1328 20.3845C59.2344 20.8533 58.1406 20.072 58.2969 19.0564L59.2734 13.3923L55.1719 9.3689C54.4297 8.62671 54.8203 7.37671 55.8359 7.22046L61.5781 6.40015L64.1172 1.20483Z" fill="#FFB800"/>
<path d="M91.1172 1.20483C91.5859 0.267334 92.9141 0.306396 93.3438 1.20483L95.9219 6.40015L101.625 7.22046C102.641 7.37671 103.031 8.62671 102.289 9.3689L98.1875 13.3923L99.1641 19.0564C99.3203 20.072 98.2266 20.8533 97.3281 20.3845L92.25 17.6892L87.1328 20.3845C86.2344 20.8533 85.1406 20.072 85.2969 19.0564L86.2734 13.3923L82.1719 9.3689C81.4297 8.62671 81.8203 7.37671 82.8359 7.22046L88.5781 6.40015L91.1172 1.20483Z" fill="#FFB800"/>
<path d="M118.117 1.20483C118.586 0.267334 119.914 0.306396 120.344 1.20483L122.922 6.40015L128.625 7.22046C129.641 7.37671 130.031 8.62671 129.289 9.3689L125.188 13.3923L126.164 19.0564C126.32 20.072 125.227 20.8533 124.328 20.3845L119.25 17.6892L114.133 20.3845C113.234 20.8533 112.141 20.072 112.297 19.0564L113.273 13.3923L109.172 9.3689C108.43 8.62671 108.82 7.37671 109.836 7.22046L115.578 6.40015L118.117 1.20483Z" fill="#FFB800"/>
</svg>
