<svg width="80" height="80" viewBox="0 0 80 80" fill="none" xmlns="http://www.w3.org/2000/svg">
<g clip-path="url(#clip0_8002_7906)">
<path d="M55.625 4.6875C56.9194 4.6875 57.9688 3.63817 57.9688 2.34375C57.9688 1.04933 56.9194 0 55.625 0C54.3306 0 53.2812 1.04933 53.2812 2.34375C53.2812 3.63817 54.3306 4.6875 55.625 4.6875Z" fill="#02A04B"/>
<path d="M77.6562 40.1562C78.9507 40.1562 80 39.1069 80 37.8125C80 36.5181 78.9507 35.4688 77.6562 35.4688C76.3618 35.4688 75.3125 36.5181 75.3125 37.8125C75.3125 39.1069 76.3618 40.1562 77.6562 40.1562Z" fill="#02A04B"/>
<path d="M2.34375 44.8438C3.63817 44.8438 4.6875 43.7944 4.6875 42.5C4.6875 41.2056 3.63817 40.1562 2.34375 40.1562C1.04933 40.1562 0 41.2056 0 42.5C0 43.7944 1.04933 44.8438 2.34375 44.8438Z" fill="#02A04B"/>
<path d="M15 80C16.2944 80 17.3438 78.9507 17.3438 77.6562C17.3438 76.3618 16.2944 75.3125 15 75.3125C13.7056 75.3125 12.6562 76.3618 12.6562 77.6562C12.6562 78.9507 13.7056 80 15 80Z" fill="#02A04B"/>
<path d="M12.869 22.1175C16.6537 23.0639 19.5926 26.0027 20.5387 29.7872V29.7875C21.1304 32.1546 24.4943 32.1546 25.0862 29.7875V29.7872C26.0323 26.0027 28.9712 23.0639 32.7559 22.1175C35.1229 21.5257 35.1229 18.1619 32.7559 17.57C28.9712 16.6236 26.0323 13.6849 25.0862 9.90034V9.90003C24.4945 7.533 21.1306 7.533 20.5387 9.90003V9.90034C19.5926 13.6849 16.6537 16.6236 12.869 17.57C10.502 18.1619 10.502 21.5257 12.869 22.1175Z" fill="#02A04B"/>
<path d="M78.2246 12.4301C80.5917 11.8384 80.5917 8.47449 78.2246 7.88277C75.2109 7.12934 72.8709 4.78918 72.1175 1.77559V1.77527C71.5257 -0.591758 68.1618 -0.591758 67.57 1.77527V1.77559C66.8165 4.78918 64.4765 7.12934 61.4628 7.88277C59.0957 8.47449 59.0957 11.8384 61.4628 12.4301C64.4765 13.1836 66.8165 15.5237 67.57 18.5373V18.5376C68.1617 20.9046 71.5256 20.9046 72.1175 18.5376V18.5373C72.8709 15.5237 75.2111 13.1836 78.2246 12.4301Z" fill="#02A04B"/>
<path d="M72.055 67.8729C68.7748 67.0528 66.2278 64.5057 65.4079 61.2259V61.2256C64.8951 59.1742 61.9797 59.1742 61.4668 61.2256V61.2259C60.6468 64.5057 58.0998 67.0528 54.8198 67.8729C52.7684 68.3857 52.7684 71.3012 54.8198 71.814C58.1 72.6342 60.6468 75.1812 61.4668 78.461V78.4614C61.9797 80.5128 64.8951 80.5128 65.4079 78.4614V78.461C66.2279 75.1812 68.775 72.6342 72.055 71.814C74.1064 71.3012 74.1064 68.3859 72.055 67.8729Z" fill="#02A04B"/>
<path d="M48.5938 69.8438C48.5938 66.7552 50.6862 64.0747 53.6827 63.3255C55.28 62.9259 56.5202 61.6859 56.9192 60.0891L56.9234 60.0722C57.6783 57.0847 60.3544 54.9995 63.4373 54.9995C65.8452 54.9995 68.0048 56.2714 69.1948 58.2517C70.0222 55.4877 70.4688 52.5608 70.4688 49.5312C70.4688 41.2403 65.5816 30.4659 55.9431 17.5075C48.8945 8.03125 41.9583 0.990781 41.6664 0.695625C40.7491 -0.231875 39.2509 -0.231875 38.3336 0.695625C38.1272 0.904375 34.5977 4.48688 30.0556 9.91813C30.8047 11.4509 32.1952 12.598 33.893 13.0227C37.0784 13.8189 39.2188 16.56 39.2188 19.8438C39.2188 23.1275 37.0784 25.8688 33.8928 26.665C31.7913 27.1905 30.1592 28.8225 29.6339 30.9241L29.6298 30.94C28.8284 34.1169 26.0908 36.2502 22.8125 36.2502C19.5342 36.2502 16.7967 34.1169 15.9952 30.94L15.9911 30.9241C15.9277 30.6702 15.8472 30.4233 15.7525 30.1842C11.6184 37.6373 9.53125 44.1145 9.53125 49.5312C9.53125 66.3317 23.1995 80 40 80C45.1045 80 49.9186 78.7364 54.1494 76.5084C53.9973 76.4522 53.8423 76.4016 53.6827 76.3617C50.6866 75.6127 48.5939 72.9323 48.5938 69.8438ZM47.0312 63.5938C47.0312 64.8881 45.9819 65.9375 44.6875 65.9375H35.3125C34.0181 65.9375 32.9688 64.8881 32.9688 63.5938V56.5625H25.9375C24.6431 56.5625 23.5938 55.5131 23.5938 54.2188V44.8438C23.5938 43.5494 24.6431 42.5 25.9375 42.5H32.9688V35.4688C32.9688 34.1744 34.0181 33.125 35.3125 33.125H44.6875C45.9819 33.125 47.0312 34.1744 47.0312 35.4688V42.5H54.0625C55.3569 42.5 56.4062 43.5494 56.4062 44.8438V54.2188C56.4062 55.5131 55.3569 56.5625 54.0625 56.5625H47.0312V63.5938Z" fill="#02A04B"/>
<path d="M42.3438 44.8438V37.8125H37.6562V44.8438C37.6562 46.1381 36.6069 47.1875 35.3125 47.1875H28.2812V51.875H35.3125C36.6069 51.875 37.6562 52.9244 37.6562 54.2188V61.25H42.3438V54.2188C42.3438 52.9244 43.3931 51.875 44.6875 51.875H51.7188V47.1875H44.6875C43.3931 47.1875 42.3438 46.1381 42.3438 44.8438Z" fill="#02A04B"/>
</g>
<defs>
<clipPath id="clip0_8002_7906">
<rect width="80" height="80" fill="white"/>
</clipPath>
</defs>
</svg>
