<svg width="80" height="80" viewBox="0 0 80 80" fill="none" xmlns="http://www.w3.org/2000/svg">
<path d="M63.9254 18.225L43.2754 8.25C41.1754 7.25 38.8254 7.25 36.7254 8.25L16.0754 18.225C14.0754 19.2 12.7754 21.25 12.7754 23.45V42.6C12.7754 43.55 13.0754 65.825 39.3504 72.425C39.5254 72.475 39.7254 72.5 39.9004 72.5H40.0754C40.2504 72.5 40.4504 72.475 40.6254 72.425C66.9004 65.825 67.2004 43.55 67.2004 42.6V23.45C67.2254 21.25 65.9254 19.2 63.9254 18.225ZM51.3754 43.2H42.7504V51.825H37.2504V43.2H28.6254V42.15H28.5504V38.75H28.6254V37.7H37.2504V29.075H42.7254V37.7H51.3504V43.2H51.3754Z" fill="#02A04B"/>
</svg>
