<svg width="80" height="80" viewBox="0 0 80 80" fill="none" xmlns="http://www.w3.org/2000/svg">
<g clip-path="url(#clip0_8004_9938)">
<path d="M79.1967 37.8309C79.1973 36.8902 78.8312 36.006 78.1662 35.341C76.8012 33.9764 74.575 33.9707 73.2031 35.3282C72.4525 36.056 59.6353 48.8353 58.5137 49.9506C57.4164 51.0433 55.6405 51.0401 54.5474 49.9431C53.4541 48.8458 53.4575 47.07 54.5549 45.9766C61.3351 39.2174 72.1558 28.4405 78.9411 21.6821C79.6093 21.0171 79.9773 20.1329 79.9784 19.1915C79.9797 18.2501 79.6136 17.3649 78.9478 16.6991L78.8509 16.6023C77.4823 15.2338 75.2528 15.2313 73.8808 16.5965C69.4433 21.0099 56.5602 33.8432 51.973 38.4126C50.8758 39.5055 49.1004 39.5023 48.0071 38.4051C46.914 37.308 46.9168 35.5324 48.0137 34.4392C55.0184 27.4511 64.6451 17.8768 71.6263 10.9197C72.2938 10.2551 72.6617 9.37092 72.6628 8.42968C72.6639 7.48844 72.2978 6.60329 71.6324 5.93782L71.5133 5.81876C70.8486 5.15424 69.965 4.78815 69.0252 4.78815C68.0854 4.78815 67.2019 5.15408 66.5374 5.81876L42.9818 29.3739C41.8867 30.469 40.1108 30.469 39.0154 29.3739C37.9201 28.2787 37.9201 26.5028 39.0154 25.4075L58.3417 6.08142C59.0062 5.41674 59.3722 4.53315 59.3722 3.59331C59.3722 2.65348 59.0062 1.77004 58.3417 1.10552L58.2631 1.02677C56.8936 -0.342439 54.6613 -0.342907 53.2894 1.02927L21.8389 32.4801C20.9501 33.3689 19.5787 33.5578 18.4828 32.9426C17.3869 32.3275 16.8339 31.0584 17.1298 29.8369L22.509 7.62328C23.0334 5.45814 21.8503 3.25035 19.757 2.4877C19.2633 2.30785 18.7559 2.21832 18.252 2.21832C17.5361 2.21832 16.8266 2.39848 16.1709 2.75551C15.0536 3.36378 14.2824 4.38174 13.9994 5.62189L13.5839 7.44219C11.4888 16.6206 8.03475 25.8256 3.3176 34.8017C0.497625 40.1672 -0.575961 46.4456 0.294658 52.48C1.19434 58.7166 4.0326 64.376 8.50241 68.8458C13.9886 74.332 21.2815 77.3527 29.0394 77.3527H29.0591C36.8244 77.3476 44.121 74.3167 49.6047 68.8184L56.5942 61.8102L78.165 40.3182C78.8294 39.6554 79.1962 38.7713 79.1967 37.8309Z" fill="#02A04B"/>
<path d="M72.3856 60.9612C72.8949 59.7713 72.3432 58.3935 71.1534 57.8843C69.9634 57.3746 68.5857 57.9265 68.0763 59.1165C67.2901 60.9531 66.1679 62.6079 64.741 64.0348C62.9977 65.7779 60.9379 67.054 58.6185 67.8276C57.3906 68.2371 56.7271 69.5645 57.1367 70.7926C57.4642 71.7745 58.3785 72.3954 59.3598 72.3954C59.6056 72.3954 59.8556 72.3565 60.1017 72.2745C63.1173 71.2685 65.7935 69.6117 68.0557 67.3493C69.9063 65.4982 71.3632 63.349 72.3856 60.9612Z" fill="#02A04B"/>
<path d="M78.579 62.2539C77.3892 61.7439 76.0114 62.2947 75.5014 63.4846C74.4062 66.0391 72.8447 68.3407 70.8601 70.3252C68.552 72.6333 65.837 74.3575 62.7908 75.4496C61.5723 75.8864 60.9386 77.2283 61.3755 78.4469C61.7186 79.4041 62.6203 80.0002 63.5819 80.0002C63.8444 80.0002 64.1114 79.9558 64.3728 79.8621C68.0756 78.5346 71.3734 76.441 74.1747 73.6397C76.5828 71.2318 78.4786 68.4364 79.8097 65.3314C80.3198 64.1418 79.7687 62.7638 78.579 62.2539Z" fill="#02A04B"/>
</g>
<defs>
<clipPath id="clip0_8004_9938">
<rect width="80" height="80" fill="white"/>
</clipPath>
</defs>
</svg>
