<svg width="80" height="80" viewBox="0 0 80 80" fill="none" xmlns="http://www.w3.org/2000/svg">
<path d="M66.2497 10H59.9997V6.66671C59.9997 5.78265 59.6485 4.93481 59.0234 4.30968C58.3982 3.68456 57.5504 3.33337 56.6663 3.33337C55.7823 3.33337 54.9344 3.68456 54.3093 4.30968C53.6842 4.93481 53.333 5.78265 53.333 6.66671V10H43.333V6.66671C43.333 5.78265 42.9818 4.93481 42.3567 4.30968C41.7316 3.68456 40.8837 3.33337 39.9997 3.33337C39.1156 3.33337 38.2678 3.68456 37.6427 4.30968C37.0175 4.93481 36.6663 5.78265 36.6663 6.66671V10H26.6663V6.66671C26.6663 5.78265 26.3152 4.93481 25.69 4.30968C25.0649 3.68456 24.2171 3.33337 23.333 3.33337C22.449 3.33337 21.6011 3.68456 20.976 4.30968C20.3509 4.93481 19.9997 5.78265 19.9997 6.66671V10H13.7497C10.9881 10.0036 8.34062 11.1022 6.38788 13.0549C4.43514 15.0076 3.33654 17.6551 3.33301 20.4167V30H76.6663V20.4167C76.6628 17.6551 75.5642 15.0076 73.6115 13.0549C71.6587 11.1022 69.0113 10.0036 66.2497 10Z" fill="#02A04B"/>
<path d="M3.33301 66.2501C3.33654 69.0117 4.43514 71.6591 6.38788 73.6119C8.34062 75.5646 10.9881 76.6632 13.7497 76.6667H66.2497C69.0113 76.6632 71.6587 75.5646 73.6115 73.6119C75.5642 71.6591 76.6628 69.0117 76.6663 66.2501V36.6667H3.33301V66.2501ZM27.643 52.8567C28.2681 52.2318 29.1158 51.8808 29.9997 51.8808C30.8836 51.8808 31.7312 52.2318 32.3563 52.8567L36.6663 57.1634L47.643 46.1901C48.2717 45.5829 49.1137 45.2469 49.9877 45.2545C50.8617 45.2621 51.6977 45.6127 52.3157 46.2307C52.9338 46.8487 53.2843 47.6848 53.2919 48.5587C53.2995 49.4327 52.9635 50.2747 52.3563 50.9034L39.023 64.2367C38.3979 64.8617 37.5502 65.2127 36.6663 65.2127C35.7825 65.2127 34.9348 64.8617 34.3097 64.2367L27.643 57.5701C27.0181 56.945 26.6671 56.0973 26.6671 55.2134C26.6671 54.3295 27.0181 53.4818 27.643 52.8567Z" fill="#02A04B"/>
</svg>
