<svg width="80" height="80" viewBox="0 0 80 80" fill="none" xmlns="http://www.w3.org/2000/svg">
<path d="M53.966 6.66663H26.0327C13.8993 6.66663 6.66602 13.9 6.66602 26.0333V53.9666C6.66602 66.1 13.8993 73.3333 26.0327 73.3333H53.966C66.0994 73.3333 73.3327 66.1 73.3327 53.9666V26.0333C73.3327 13.9 66.0994 6.66663 53.966 6.66663ZM33.2327 49.6666L25.7327 57.1666C25.2327 57.6666 24.5993 57.9 23.966 57.9C23.3327 57.9 22.666 57.6666 22.1993 57.1666L19.6993 54.6666C18.6993 53.7 18.6993 52.1 19.6993 51.1333C20.666 50.1666 22.2327 50.1666 23.2327 51.1333L23.966 51.8666L29.6994 46.1333C30.666 45.1666 32.2327 45.1666 33.2327 46.1333C34.1994 47.1 34.1994 48.7 33.2327 49.6666ZM33.2327 26.3333L25.7327 33.8333C25.2327 34.3333 24.5993 34.5666 23.966 34.5666C23.3327 34.5666 22.666 34.3333 22.1993 33.8333L19.6993 31.3333C18.6993 30.3666 18.6993 28.7666 19.6993 27.8C20.666 26.8333 22.2327 26.8333 23.2327 27.8L23.966 28.5333L29.6994 22.8C30.666 21.8333 32.2327 21.8333 33.2327 22.8C34.1994 23.7666 34.1994 25.3666 33.2327 26.3333ZM58.5327 55.4H41.0327C39.666 55.4 38.5327 54.2666 38.5327 52.9C38.5327 51.5333 39.666 50.4 41.0327 50.4H58.5327C59.9327 50.4 61.0327 51.5333 61.0327 52.9C61.0327 54.2666 59.9327 55.4 58.5327 55.4ZM58.5327 32.0666H41.0327C39.666 32.0666 38.5327 30.9333 38.5327 29.5666C38.5327 28.2 39.666 27.0666 41.0327 27.0666H58.5327C59.9327 27.0666 61.0327 28.2 61.0327 29.5666C61.0327 30.9333 59.9327 32.0666 58.5327 32.0666Z" fill="#02A04B"/>
</svg>
