<svg width="80" height="80" viewBox="0 0 80 80" fill="none" xmlns="http://www.w3.org/2000/svg">
<g clip-path="url(#clip0_8004_7054)">
<path d="M52.4667 0C46.2667 0 40.5667 2.56667 36.6667 6.9C32.7667 2.56667 27.0667 0 20.8667 0C9.36667 0 0 8.96667 0 20C0 48.2333 33.5333 68.6667 34.9667 69.5333C35.4667 69.8333 36.0667 70 36.6667 70C36.9667 70 37.2333 69.9667 37.5333 69.8667C35 65.6667 33.3333 60.7667 33.3333 55.1667V41.8C33.3333 37.8667 35.8333 34.3667 39.5667 33.1L57.0333 27.1667C58.9333 26.5 61.0667 26.5 62.9667 27.1667L71.9 30.2C72.8 26.9333 73.3333 23.5333 73.3333 20C73.3333 8.96667 63.9667 0 52.4667 0Z" fill="#02A04B"/>
<path d="M78.3033 39.42L60.8033 33.4667C60.2833 33.2867 59.7167 33.2867 59.1967 33.4667L41.6967 39.42C40.68 39.7633 40 40.7133 40 41.7867V55.18C40 71.5267 58.2467 79.4733 59.0233 79.8033C59.65 80.0667 60.35 80.0667 60.9767 79.8033C61.7533 79.47 80 71.5267 80 55.18V41.7867C80 40.7133 79.32 39.7633 78.3033 39.42ZM70.9533 52.06L61.7867 63.7267C60.62 65.2167 58.4333 65.4333 56.9967 64.2L51.1633 59.2C49.7633 58.0033 49.6 55.8967 50.8033 54.5C52 53.1033 54.1067 52.9433 55.5 54.14L58.6933 56.8767L65.71 47.9467C66.8467 46.5 68.94 46.2433 70.39 47.3867C71.84 48.5167 72.0933 50.6133 70.9533 52.06Z" fill="#02A04B"/>
</g>
<defs>
<clipPath id="clip0_8004_7054">
<rect width="80" height="80" fill="white"/>
</clipPath>
</defs>
</svg>
