<svg width="80" height="80" viewBox="0 0 80 80" fill="none" xmlns="http://www.w3.org/2000/svg">
<path d="M40.0003 6.66663C33.4076 6.66663 26.963 8.62159 21.4813 12.2843C15.9997 15.947 11.7273 21.153 9.20436 27.2438C6.68143 33.3347 6.02132 40.0369 7.3075 46.503C8.59367 52.969 11.7684 58.9084 16.4301 63.5702C21.0919 68.2319 27.0313 71.4066 33.4973 72.6928C39.9634 73.979 46.6656 73.3189 52.7565 70.796C58.8473 68.273 64.0533 64.0006 67.716 58.519C71.3787 53.0373 73.3337 46.5927 73.3337 40C73.3236 31.1625 69.8084 22.6899 63.5594 16.4409C57.3104 10.1919 48.8378 6.67674 40.0003 6.66663ZM52.357 52.3566C52.0476 52.6662 51.6802 52.9118 51.2758 53.0794C50.8714 53.2469 50.438 53.3332 50.0002 53.3332C49.5625 53.3332 49.1291 53.2469 48.7247 53.0794C48.3203 52.9118 47.9529 52.6662 47.6435 52.3566L37.6435 42.3566C37.3339 42.0472 37.0882 41.6798 36.9207 41.2755C36.7532 40.8711 36.6669 40.4377 36.667 40V20C36.667 19.1159 37.0182 18.2681 37.6433 17.6429C38.2684 17.0178 39.1163 16.6666 40.0003 16.6666C40.8844 16.6666 41.7322 17.0178 42.3574 17.6429C42.9825 18.2681 43.3337 19.1159 43.3337 20V38.6198L52.357 47.6431C52.6666 47.9525 52.9122 48.3199 53.0798 48.7243C53.2473 49.1287 53.3336 49.5621 53.3336 49.9999C53.3336 50.4376 53.2473 50.871 53.0798 51.2754C52.9122 51.6798 52.6666 52.0472 52.357 52.3566Z" fill="#02A04B"/>
</svg>
