<svg width="80" height="80" viewBox="0 0 80 80" fill="none" xmlns="http://www.w3.org/2000/svg">
<path fill-rule="evenodd" clip-rule="evenodd" d="M75.8327 40C75.8327 37.9866 74.5594 36.09 72.656 34.4233C71.686 33.57 70.566 32.7533 69.616 31.9166C69.0527 31.42 68.5027 30.98 68.3327 30.43C68.1494 29.83 68.3327 29.0866 68.516 28.29C68.806 27.0233 69.246 25.6766 69.5527 24.4066C70.156 21.9 70.106 19.6133 69.0193 18.05C67.8894 16.4233 65.7627 15.65 63.2227 15.47C61.9727 15.3833 60.6127 15.4066 59.3727 15.3066C58.6594 15.25 57.986 15.2333 57.546 14.8966C57.546 14.8966 57.546 14.8933 57.5427 14.8933C57.086 14.5466 56.8593 13.86 56.576 13.1333C56.106 11.93 55.7094 10.5633 55.2394 9.33997C54.3094 6.89663 52.9294 5.03997 51.1094 4.41997C49.306 3.80663 47.1294 4.46663 44.9627 5.9033C43.9094 6.59997 42.8293 7.4533 41.766 8.12997C41.1394 8.52997 40.5694 8.9333 39.9994 8.9333C39.4294 8.9333 38.8594 8.52997 38.2327 8.12997C37.1693 7.4533 36.0893 6.59997 35.036 5.9033C32.8693 4.46663 30.6927 3.80663 28.8893 4.41997C27.0693 5.03997 25.6894 6.89663 24.7593 9.33997C24.2894 10.5633 23.8927 11.93 23.4227 13.1333C23.1393 13.86 22.9127 14.5466 22.456 14.8933C22.4527 14.8933 22.4527 14.8966 22.4527 14.8966C22.0127 15.2333 21.3393 15.25 20.626 15.3066C19.386 15.4066 18.0293 15.3833 16.776 15.47C14.236 15.6466 12.1093 16.42 10.9793 18.0466C9.89268 19.61 9.84268 21.9 10.446 24.4066C10.7527 25.6766 11.1927 27.0233 11.4827 28.29C11.666 29.0866 11.8493 29.83 11.666 30.43C11.496 30.98 10.946 31.42 10.3827 31.9166C9.43268 32.7533 8.31268 33.57 7.34268 34.4233C5.43935 36.09 4.16602 37.9866 4.16602 40C4.16602 42.0133 5.43935 43.91 7.34268 45.5766C8.31268 46.4266 9.43268 47.2466 10.3827 48.0833C10.946 48.58 11.496 49.02 11.666 49.57C11.8493 50.17 11.666 50.9133 11.4827 51.71C11.1927 52.9766 10.7527 54.3233 10.446 55.5933C9.84268 58.1 9.89268 60.3866 10.9793 61.95C12.1093 63.5766 14.236 64.35 16.776 64.53C18.026 64.6166 19.386 64.5933 20.626 64.6933C21.3393 64.75 22.0127 64.7666 22.4527 65.1033C22.4527 65.1033 22.4527 65.1066 22.456 65.1066C22.9127 65.4533 23.1393 66.14 23.4227 66.8666C23.8927 68.07 24.2894 69.4366 24.7593 70.66C25.6894 73.1 27.0693 74.96 28.8893 75.58C30.6927 76.1933 32.8693 75.5333 35.036 74.0966C36.0893 73.4 37.1693 72.5466 38.2327 71.87C38.8594 71.47 39.4294 71.0666 39.9994 71.0666C40.5694 71.0666 41.1394 71.47 41.766 71.87C42.8293 72.5466 43.9094 73.4 44.9627 74.0966C47.1294 75.5333 49.306 76.1933 51.1094 75.58C52.9294 74.96 54.3094 73.1 55.2394 70.66C55.7094 69.4366 56.106 68.07 56.576 66.8666C56.8593 66.14 57.086 65.4533 57.5427 65.1066C57.546 65.1066 57.546 65.1033 57.546 65.1033C57.986 64.7666 58.6594 64.75 59.3727 64.6933C60.6127 64.5933 61.9693 64.6166 63.2227 64.53C65.7627 64.3533 67.8894 63.58 69.0193 61.9533C70.106 60.3866 70.156 58.1 69.5527 55.5933C69.246 54.3233 68.806 52.9766 68.516 51.71C68.3327 50.9133 68.1494 50.17 68.3327 49.57C68.5027 49.02 69.0527 48.58 69.616 48.0833C70.566 47.2466 71.686 46.4266 72.656 45.5766C74.5594 43.91 75.8327 42.0133 75.8327 40ZM28.2327 41.7666L34.8994 48.4333C35.876 49.41 37.456 49.41 38.4327 48.4333L51.766 35.1C52.7427 34.1266 52.7427 32.54 51.766 31.5666C50.7927 30.59 49.206 30.59 48.2327 31.5666L36.666 43.13L31.766 38.2333C30.7927 37.2566 29.206 37.2566 28.2327 38.2333C27.256 39.2066 27.256 40.7933 28.2327 41.7666Z" fill="#02A04B"/>
</svg>
