<svg width="80" height="74" viewBox="0 0 80 74" fill="none" xmlns="http://www.w3.org/2000/svg">
<path d="M28.0313 64.2547C29.4741 65.5214 30.9634 66.8284 32.4953 68.1834C32.5058 68.1926 32.5164 68.202 32.5271 68.2112L37.6235 72.6134C38.3063 73.2034 39.1538 73.4982 40.0012 73.4982C40.8487 73.4982 41.6964 73.2031 42.3792 72.6134L47.4746 68.2112C47.4853 68.202 47.4957 68.1928 47.5061 68.1836C57.5949 59.2614 65.1589 52.4308 70.6314 45.769C77.0231 37.9884 80.0002 30.9534 80.0002 23.6296C80.0002 10.3792 69.621 4.24833e-09 56.3711 4.24833e-09C50.4158 4.24833e-09 44.5317 2.24243 40.0012 6.12958C35.4696 2.24219 29.5854 4.24833e-09 23.6299 4.24833e-09C10.3795 -0.000242473 0 10.3792 0 23.6294C0 39.6462 11.1515 49.436 28.0313 64.2547ZM25.4514 29.475H35.1502V19.7757H44.8495V29.475H54.5486V39.1741H44.8495V48.873H35.1502V39.1741H25.4514V29.475Z" fill="#02A04B"/>
</svg>
