<svg width="80" height="80" viewBox="0 0 80 80" fill="none" xmlns="http://www.w3.org/2000/svg">
<g clip-path="url(#clip0_8002_8112)">
<path d="M45.9624 0.993357C37.0602 4.15368 34.2584 -0.586805 26.8053 0.100222C13.1413 1.36435 6.01951 17.9629 14.977 28.9553C16.6608 31.0439 17.9306 37.5432 18.8139 40.0852C19.2253 41.2169 19.9749 42.1962 20.9618 42.8914C21.9488 43.5865 23.1258 43.9642 24.3347 43.9738H55.61C56.8189 43.9642 57.996 43.5865 58.9829 42.8914C59.9698 42.1962 60.7194 41.2169 61.1308 40.0852C62.0141 37.5432 63.2839 31.0439 64.9677 28.9553C76.0507 15.3247 62.4834 -4.79141 45.9624 0.993357ZM53.4707 6.97049C49.3571 9.29042 44.7269 10.5514 40 10.6392C35.273 10.5514 30.6428 9.29042 26.5292 6.97049C26.2793 6.76159 26.1117 6.47126 26.0564 6.15105C26.0011 5.83083 26.0615 5.50146 26.227 5.2214C26.3925 4.94134 26.6523 4.72873 26.9603 4.6213C27.2683 4.51387 27.6046 4.51858 27.9094 4.6346C36.6323 8.97661 43.2572 8.97661 51.9801 4.6346C52.1341 4.53716 52.306 4.47088 52.4858 4.43956C52.6656 4.40823 52.8498 4.41246 53.0279 4.45202C53.2061 4.49157 53.3747 4.56567 53.524 4.67008C53.6734 4.7745 53.8007 4.90718 53.8986 5.06056C53.9964 5.21393 54.063 5.385 54.0945 5.56399C54.1259 5.74298 54.1217 5.92639 54.082 6.10374C54.0422 6.2811 53.9678 6.44892 53.8629 6.59764C53.758 6.74636 53.6248 6.87305 53.4707 6.97049Z" fill="#02A04B"/>
<path d="M34.493 79.9738H45.3339L46.9976 76.7644L31.9976 74.9738C32.693 76.5027 33.5248 78.1005 34.493 79.9738Z" fill="#02A04B"/>
<path d="M55.6758 51.1717L53.7623 51.0038L54.0458 46.9738H25.8666L25.9658 48.513L24.5483 48.3731C24.1724 48.3397 23.7984 48.4551 23.5087 48.6939C23.2189 48.9327 23.0371 49.2753 23.0033 49.6464C22.9695 50.0176 23.0863 50.3868 23.3282 50.6728C23.5701 50.9588 23.9172 51.1383 24.2932 51.1717L55.4774 53.9703C55.8533 53.9963 56.2243 53.8738 56.5088 53.6297C56.7932 53.3857 56.9678 53.0401 56.9941 52.669C57.0204 52.2978 56.8963 51.9316 56.6491 51.6508C56.4019 51.37 56.0518 51.1977 55.6758 51.1717Z" fill="#02A04B"/>
<path d="M55.7031 58.0897L53.3097 57.8738L53.4089 56.4347L26.4163 53.9738L26.5154 55.4129L24.5469 55.2114C24.1713 55.1771 23.7977 55.2957 23.5082 55.5413C23.2187 55.7869 23.0371 56.1393 23.0033 56.521C22.9695 56.9027 23.0863 57.2824 23.328 57.5766C23.5696 57.8708 23.9164 58.0553 24.292 58.0897L55.4482 60.9679C55.8238 61.0023 56.1974 60.8836 56.4869 60.638C56.7764 60.3924 56.958 60.04 56.9918 59.6583C57.0256 59.2766 56.9089 58.8969 56.6672 58.6028C56.4255 58.3086 56.0787 58.124 55.7031 58.0897Z" fill="#02A04B"/>
<path d="M53.764 65.071L52.401 64.9262L52.4964 63.3915L27.4033 60.9738L27.4851 62.2912L26.5037 62.1754C26.1422 62.137 25.7811 62.2527 25.5 62.4971C25.2188 62.7414 25.0405 63.0944 25.0044 63.4784C24.9682 63.8624 25.0771 64.2459 25.3072 64.5446C25.5373 64.8432 25.8696 65.0326 26.2311 65.071L53.4914 67.9665C53.8529 68.0049 54.214 67.8892 54.4952 67.6449C54.7763 67.4005 54.9546 67.0475 54.9908 66.6635C55.0269 66.2796 54.918 65.8961 54.6879 65.5974C54.4579 65.2987 54.1255 65.1094 53.764 65.071Z" fill="#02A04B"/>
<path d="M50.7844 71.4943L49.4171 71.3461L50.2101 69.9749L27.9354 67.9738L28.6054 69.209L27.5388 69.0237C27.1762 68.9844 26.8111 69.0769 26.5239 69.2807C26.2367 69.4846 26.0509 69.7832 26.0074 70.1108C25.9639 70.4384 26.0662 70.7682 26.2918 71.0277C26.5175 71.2872 26.848 71.455 27.2107 71.4943L50.4563 73.9649C50.8189 74.0042 51.184 73.9118 51.4712 73.7079C51.7584 73.504 51.9442 73.2055 51.9877 72.8778C52.0313 72.5502 51.9289 72.2204 51.7033 71.9609C51.4776 71.7015 51.1471 71.5336 50.7844 71.4943Z" fill="#02A04B"/>
</g>
<defs>
<clipPath id="clip0_8002_8112">
<rect width="80" height="80" fill="white"/>
</clipPath>
</defs>
</svg>
