<svg width="80" height="80" viewBox="0 0 80 80" fill="none" xmlns="http://www.w3.org/2000/svg">
<path d="M11.5618 45V44.1457C11.5618 41.3286 13.8201 39.0238 16.5804 39.0238H26.6175C29.3787 39.0238 31.6361 41.3286 31.6361 44.1457V45H48.365V44.1457C48.365 41.3286 50.6233 39.0238 53.3835 39.0238H63.4207C66.1819 39.0238 68.4392 41.3286 68.4392 44.1457V45H80C78.7765 25.3053 69.5754 10 58.4011 10C50.6444 10 43.8492 17.3991 40 28.5003C36.1518 17.3991 29.3566 10 21.5989 10C10.4246 10 1.22453 25.3053 0 45H11.5618Z" fill="#02A04B"/>
<path d="M68.333 49V49.8397C68.333 52.6127 66.084 54.8798 63.333 54.8798H53.333C50.583 54.8798 48.333 52.6127 48.333 49.8397V49H31.667V49.8397C31.667 52.6127 29.418 54.8798 26.667 54.8798H16.667C13.917 54.8798 11.667 52.6127 11.667 49.8397V49H0V53.1964C0 62.4822 7.461 70 16.667 70H26.667C32.146 70 36.963 67.3025 40 63.1878C43.04 67.3025 47.854 70 53.333 70H63.333C72.539 70 80 62.4822 80 53.1994V49H68.333Z" fill="#02A04B"/>
<path d="M16 44H26V50H16V44Z" fill="#02A04B"/>
<path d="M54 44H64V50H54V44Z" fill="#02A04B"/>
</svg>
