<svg width="80" height="80" viewBox="0 0 80 80" fill="none" xmlns="http://www.w3.org/2000/svg">
<g clip-path="url(#clip0_8004_8364)">
<path d="M49.7859 18.1385L43.1026 32.699L48.1807 35.2399C49.3379 35.8192 49.8079 37.2285 49.2287 38.3869L45.6758 45.4987C45.0972 46.6566 43.6891 47.1265 42.5313 46.5473C41.3734 45.9681 40.9041 44.5594 41.4833 43.4009L43.9882 38.3869L38.9778 35.8802C37.8474 35.3144 37.3689 33.9527 37.8963 32.8034L43.6061 20.3644C41.2935 21.5845 38.5048 21.5278 36.241 20.1874C23.0299 12.3615 8.10805 27.0392 14.2268 41.6175C16.0475 45.9601 16.8581 50.608 16.5712 55.0599C15.9053 65.4188 20.7472 74.8042 28.3058 79.6217C29.0511 80.0965 29.3678 79.9891 32.9195 79.9891C34.2134 79.9891 35.2632 78.9387 35.2632 77.6435V63.0579C35.2632 60.4823 37.3555 58.3448 39.9269 58.2929C42.5972 58.2368 44.789 60.4676 44.789 63.1757V77.6435C44.789 78.9387 45.8382 79.9891 47.1327 79.9891C51.1507 79.9891 51.443 80.1051 52.2084 79.5911C59.6022 74.6259 64.0334 65.0953 63.4963 55.3083C63.2369 50.6647 64.059 45.9876 65.8748 41.7817C71.2093 29.4129 61.2581 16.6572 49.7859 18.1385Z" fill="#02A04B"/>
<path d="M44.6943 12.9114C45.9883 12.9114 47.0381 11.861 47.0381 10.5658V2.34558C47.0381 1.05042 45.9883 0 44.6943 0C43.3998 0 42.3506 1.05042 42.3506 2.34558V10.5658C42.3506 11.8616 43.3998 12.9114 44.6943 12.9114Z" fill="#02A04B"/>
<path d="M34.5668 15.5652C35.4817 16.4814 36.9661 16.4814 37.881 15.5652C38.7965 14.6491 38.7959 13.1641 37.881 12.248L31.8776 6.24272C30.9621 5.32719 29.4783 5.32719 28.5634 6.24333C27.6478 7.15947 27.6485 8.64446 28.5634 9.55998L34.5668 15.5652Z" fill="#02A04B"/>
<path d="M54.7777 15.2527L60.6462 9.38175C61.5617 8.46622 61.5617 6.98123 60.6468 6.06509C59.7319 5.14896 58.2481 5.14835 57.3326 6.06448L51.4641 11.9355C50.5485 12.851 50.5485 14.336 51.4635 15.2521C52.3784 16.1676 53.8621 16.1689 54.7777 15.2527Z" fill="#02A04B"/>
</g>
<defs>
<clipPath id="clip0_8004_8364">
<rect width="80" height="80" fill="white"/>
</clipPath>
</defs>
</svg>
