<svg width="80" height="80" viewBox="0 0 80 80" fill="none" xmlns="http://www.w3.org/2000/svg">
<g clip-path="url(#clip0_8004_8400)">
<path d="M76.5015 32.8107C75.094 37.038 74.4867 41.5674 74.7388 46.073C75.437 58.783 75.1617 68.4552 63.2916 76.4166C62.1283 77.196 60.7745 77.608 59.375 77.608H49.2188C45.3418 77.608 42.1875 74.4537 42.1875 70.5768V56.6602C42.1875 55.3351 41.1627 54.1522 39.7833 54.1669C38.5498 54.1913 37.5 55.2625 37.5 56.5051V70.5768C37.5 74.4537 34.3457 77.608 30.4688 77.608H21.0938C19.754 77.608 18.4485 77.2278 17.3181 76.5082C4.93347 68.6243 4.11926 58.9465 4.9707 45.7135C5.2417 41.5125 4.67834 37.1539 3.33801 32.9395C1.29883 34.6606 0 37.2333 0 40.1044V77.608C0 78.9026 1.04919 79.9518 2.34375 79.9518H77.6562C78.9508 79.9518 80 78.9026 80 77.608V40.108C80 37.1625 78.6328 34.5306 76.5015 32.8107Z" fill="#02A04B"/>
<path d="M9.64879 46.0144C8.84618 58.4875 9.54686 66.004 19.8356 72.5543C20.543 73.0041 21.0032 72.9205 22.7543 72.9205C21.4072 67.2339 18.7504 55.0219 18.7504 47.1393C18.7504 43.3423 19.8221 39.5739 21.8027 36.2988C21.8729 34.7454 21.9083 29.1491 19.144 25.0024C18.4263 23.9251 18.7168 22.4701 19.7941 21.7523C20.8707 21.0339 22.3264 21.325 23.0442 22.4023C24.3284 24.328 25.1468 26.4373 25.6638 28.443C26.995 25.2252 28.1254 21.6803 28.1254 19.0142C28.1254 17.7203 29.1745 16.6705 30.4691 16.6705C31.7637 16.6705 32.8129 17.7203 32.8129 19.0142C32.8129 21.8066 31.9431 25.0714 30.831 28.1054C32.0292 27.5287 33.2792 27.0617 34.5652 26.7242C35.817 26.3971 37.0987 27.1454 37.4265 28.3972C37.7549 29.6496 37.006 30.9308 35.7541 31.2585C28.6173 33.1298 23.4379 39.8083 23.4379 47.1393C23.4379 54.9902 26.4011 68.0462 27.5773 72.9205H30.4691C31.7637 72.9205 32.8129 71.8713 32.8129 70.5768V56.5051C32.8129 52.7075 35.9018 49.5562 39.6988 49.4799C43.6612 49.4085 46.8754 52.68 46.8754 56.6601V70.5768C46.8754 71.8713 47.9245 72.9205 49.2191 72.9205H52.1109C53.2871 68.045 56.2504 54.9841 56.2504 47.1393C56.2504 40.0549 51.7331 33.8025 45.0339 31.5704C43.8059 31.1609 43.1418 29.834 43.5514 28.6053C43.9603 27.3779 45.2878 26.7132 46.5159 27.1228C47.1207 27.3248 47.7103 27.5543 48.2865 27.8051C47.5473 24.1394 48.5093 21.6095 49.6525 20.0006C50.402 18.9453 51.8656 18.6981 52.9209 19.4476C53.9756 20.1971 54.2234 21.6601 53.4739 22.7154C52.2117 24.4915 52.6877 27.0593 53.7174 29.4683C54.3705 28.1439 55.2561 26.7163 56.4524 25.3564C57.3075 24.3847 58.7882 24.2895 59.7605 25.1446C60.7322 25.9997 60.8268 27.4804 59.9717 28.4527C57.9844 30.7122 57.1305 33.2623 56.7984 34.5788C59.5627 38.3142 60.9379 42.7221 60.9379 47.1393C60.9379 55.0219 58.281 67.2339 56.9339 72.9205C59.4358 72.9205 59.9198 73.034 60.6809 72.5232C65.3196 69.4122 67.9636 66.0547 69.2539 61.6357C72.2501 51.3714 67.0768 42.4725 73.2566 28.175C81.2864 9.58126 62.2434 -6.97574 45.3763 3.0029C42.0121 4.99142 37.8324 4.99203 34.4687 3.00351C17.7005 -6.91654 -1.3058 9.39022 6.49999 27.9657C8.94566 33.7933 10.0345 40.0341 9.64879 46.0144Z" fill="#02A04B"/>
</g>
<defs>
<clipPath id="clip0_8004_8400">
<rect width="80" height="80" fill="white"/>
</clipPath>
</defs>
</svg>
