<svg width="80" height="80" viewBox="0 0 80 80" fill="none" xmlns="http://www.w3.org/2000/svg">
<g clip-path="url(#clip0_8004_8426)">
<path fill-rule="evenodd" clip-rule="evenodd" d="M52.8651 80C52.7245 80 52.5839 79.9532 52.3965 79.9532C49.0221 79.8126 46.5851 78.0785 45.226 74.8917C44.0544 72.0797 43.9138 68.5648 43.9138 66.1746C43.8669 59.3322 41.8517 55.5829 40.0239 55.5829C38.1493 55.5829 36.134 59.3322 36.134 66.1746C36.0872 68.5648 35.9466 72.0797 34.7749 74.8917C33.4158 78.0785 30.9788 79.8126 27.6044 79.9532C27.417 79.9532 27.2764 80 27.1358 80C24.9799 80 23.1522 79.2502 21.7462 77.7974C18.7468 74.7511 18.3719 69.3615 18.4656 66.409C18.5125 62.6128 18.325 53.1928 14.9507 47.8969C10.4047 40.7733 10.6859 32.9936 10.7327 32.3843C10.7327 25.0733 14.8101 20.3398 21.0901 20.3398C23.199 20.3398 25.4486 20.8553 27.6982 21.9333C28.5886 22.3551 29.4791 22.73 30.3695 23.058C30.557 23.1518 30.7444 23.2924 30.7913 23.4798C30.885 23.6673 30.885 23.9016 30.8382 24.0891C30.3227 25.3076 30.0883 26.573 30.0883 27.8852C30.0883 33.3685 34.5406 37.8208 39.977 37.8208C45.4603 37.8208 49.9126 33.3685 49.9126 27.8852C49.9126 26.573 49.6783 25.3076 49.1627 24.0891C49.069 23.9016 49.069 23.6673 49.1627 23.4798C49.2565 23.2924 49.3971 23.1518 49.6314 23.058C50.5218 22.73 51.4123 22.3551 52.3027 21.9333C54.6929 20.8085 56.9893 20.2461 59.0514 20.2461C61.8165 20.2461 64.2067 21.2771 65.9407 23.1986C68.4715 25.87 69.5962 30.1348 69.2213 35.1494C68.8933 38.43 67.9559 43.351 65.0503 47.8969C61.6759 53.1928 61.4884 62.6128 61.5353 66.409C61.5353 75.1729 58.489 80 52.8651 80Z" fill="#02A04B"/>
<path fill-rule="evenodd" clip-rule="evenodd" d="M39.9773 16.3562C33.6504 16.3562 28.4951 11.201 28.4951 4.87411C28.4951 3.3744 28.7763 1.87469 29.3856 0.468717C29.5262 0.0937906 29.9948 -0.0936728 30.3698 0.0469247C33.6035 1.26544 36.8372 1.87469 40.0241 1.87469C43.1641 1.87469 46.3979 1.26544 49.6316 0.0469247C50.0065 -0.0936728 50.4752 0.0937906 50.6158 0.515583C51.1782 1.87469 51.4594 3.3744 51.4594 4.87411C51.4594 11.201 46.351 16.3562 39.9773 16.3562Z" fill="#02A04B"/>
<path fill-rule="evenodd" clip-rule="evenodd" d="M39.9774 27.2291C39.5556 27.2291 39.2275 26.8542 39.2275 26.4324V15.6064C39.2275 15.1378 39.5556 14.8097 39.9774 14.8097C40.4461 14.8097 40.7741 15.1378 40.7741 15.6064V26.4324C40.7741 26.8542 40.4461 27.2291 39.9774 27.2291Z" fill="#02A04B"/>
<path fill-rule="evenodd" clip-rule="evenodd" d="M39.9775 27.2292C39.79 27.2292 39.6026 27.1354 39.462 26.9948L34.9628 22.4957C34.6817 22.2145 34.6817 21.699 34.9628 21.4178C35.2909 21.0897 35.7596 21.0897 36.0876 21.4178L39.9775 25.3077L43.9142 21.4178C44.2423 21.0897 44.7109 21.0897 45.039 21.4178C45.3202 21.699 45.3202 22.2145 45.039 22.4957L40.5399 26.9948C40.3993 27.1354 40.2118 27.2292 39.9775 27.2292Z" fill="#02A04B"/>
</g>
<defs>
<clipPath id="clip0_8004_8426">
<rect width="80" height="80" fill="white"/>
</clipPath>
</defs>
</svg>
