<svg width="80" height="80" viewBox="0 0 80 80" fill="none" xmlns="http://www.w3.org/2000/svg">
<g clip-path="url(#clip0_8004_8457)">
<path d="M51.5229 47.0703C50.4333 41.7062 45.6811 37.6562 40.0002 37.6562C34.3193 37.6562 29.5671 41.7061 28.4775 47.0703H51.5229Z" fill="#02A04B"/>
<path d="M60.3689 51.7578H17.7126C16.2295 51.7578 15.1198 53.118 15.4164 54.5711C15.5746 55.3463 15.7285 56.0873 15.8557 56.6758L16.032 57.4928C17.7678 65.5383 18.9146 70.8533 20.579 74.2902C22.4914 78.2391 25.2798 80 29.6201 80C31.401 80 33.9729 79.7942 35.7387 78.0152C38.0173 75.7192 37.9901 72.1208 37.9453 66.1592C37.9384 65.2517 37.9314 64.3141 37.931 63.3031C37.9307 62.1894 38.7846 61.2284 39.8971 61.1744C41.0843 61.1167 42.0685 62.0659 42.0685 63.2406C42.0685 64.2755 42.0614 65.2331 42.0543 66.1592C42.0093 72.1209 41.9823 75.7194 44.2609 78.0152C46.0267 79.7942 48.5985 80 50.3795 80C54.7198 80 57.5082 78.2389 59.4206 74.2902C61.0849 70.8533 62.2317 65.5383 63.9676 57.4928L64.1437 56.6764C64.2709 56.0878 64.4248 55.3464 64.5831 54.5711C64.8796 53.118 63.7699 51.7578 62.2868 51.7578H60.3689Z" fill="#02A04B"/>
<path d="M16.8809 32.9297H63.1198C64.0145 32.9297 64.831 32.4205 65.2246 31.6171C67.2556 27.4713 68.2552 22.8533 68.2809 17.4989C68.3031 12.7686 66.4695 8.32566 63.1182 4.98894C59.8459 1.73098 55.5299 -0.0363683 50.9593 0.00081925C48.3518 0.0236317 45.849 0.618319 43.5209 1.76879C41.2837 2.87441 38.7171 2.87441 36.4796 1.76879C34.1515 0.618475 31.6488 0.0236317 29.042 0.0009755C24.4685 -0.040587 20.1546 1.73129 16.8826 4.9891C13.5313 8.32582 11.6977 12.7686 11.7199 17.4991C11.7456 22.8535 12.7452 27.4714 14.7762 31.6172C15.1696 32.4205 15.9862 32.9297 16.8809 32.9297Z" fill="#02A04B"/>
</g>
<defs>
<clipPath id="clip0_8004_8457">
<rect width="80" height="80" fill="white"/>
</clipPath>
</defs>
</svg>
