<svg width="80" height="80" viewBox="0 0 80 80" fill="none" xmlns="http://www.w3.org/2000/svg">
<g clip-path="url(#clip0_8004_8610)">
<path d="M28.9501 48.5869C31.4806 51.0295 35.7561 49.6355 36.3366 46.0832L37.8502 36.8267C38.1377 35.0689 39.8076 33.8433 41.5721 34.0953C43.4117 34.3578 44.6526 36.1364 44.3505 37.9839L42.8807 46.9731C42.2686 50.7188 46.212 53.5417 49.5317 51.8315C55.7793 48.6137 60.1652 41.9164 60.9794 34.3505C61.3621 30.7573 62.5804 27.2747 64.5018 24.2785C71.5428 13.2904 61.3609 -0.780043 49.4811 3.85617C47.6061 4.58737 45.4808 4.24008 43.936 2.95042C34.1942 -5.18921 20.1275 4.78452 23.1573 17.3876C24.0112 20.9472 24.0514 24.6123 23.2739 27.987C21.516 35.6163 23.6913 43.5094 28.9501 48.5869Z" fill="#02A04B"/>
<path d="M78.7168 46.0606C77.8733 40.9965 76.0758 34.0318 70.955 34.0318C58.7663 34.0318 68.6253 66.0972 51.1729 66.0972C49.4963 66.0972 48.6217 63.7363 48.1792 62.1171C47.1312 58.2566 43.4679 55.6498 39.4725 55.9214C36.1608 56.1454 32.9949 58.3891 31.8786 62.2453C30.9881 65.3184 30.2361 66.0972 28.7572 66.0972C11.8121 66.0972 24.9786 29.3456 11.878 29.3456C7.60984 29.3456 5.39976 34.0868 4.1278 38.1755C0.955808 48.372 0 67.374 0 77.6566C0 78.9511 1.0498 79.9997 2.34435 79.9997H77.3631C78.6063 79.9997 79.6329 79.0299 79.7037 77.7896C80.1194 70.4056 80.3281 55.7267 78.7168 46.0606Z" fill="#02A04B"/>
</g>
<defs>
<clipPath id="clip0_8004_8610">
<rect width="80" height="80" fill="white"/>
</clipPath>
</defs>
</svg>
