<svg width="160" height="160" viewBox="0 0 160 160" fill="none" xmlns="http://www.w3.org/2000/svg">
<g clip-path="url(#clip0_28637_4820)">
<path d="M43.1556 138.968C47.9525 143.765 55.7392 143.765 60.5361 138.968L120.037 79.4669C121.746 77.7585 123.06 75.7214 123.914 73.553C129.894 75.2286 135.709 76.1157 140.835 76.0828C153.517 76.0171 157.722 70.4646 159.102 67.1462C160.482 63.8606 161.468 56.961 152.564 47.8929C152.466 47.7943 152.367 47.6958 152.268 47.5972C146.749 42.0775 138.732 36.9849 129.631 33.2065C127.955 32.5165 126.28 31.8923 124.637 31.3009V31.2023C124.538 23.9084 118.657 18.0273 111.363 17.9287L75.7153 17.4359C70.9841 17.3702 66.4501 19.2101 63.1317 22.5614L3.59767 82.0625C-1.19922 86.8594 -1.19922 94.6462 3.59767 99.443L43.1556 138.968ZM89.0218 38.7262C92.9973 34.7507 99.4369 34.7507 103.412 38.7262C105.778 41.0918 106.731 44.3445 106.271 47.4001C110.181 50.1599 114.846 52.7226 119.84 54.7925C121.614 55.5153 123.323 56.1725 124.966 56.731L124.768 42.406C125.064 42.5375 125.327 42.636 125.623 42.7674C133.409 46.0201 140.408 50.4228 144.909 54.9239C144.975 54.9897 145.04 55.0554 145.106 55.1211C149.377 59.4908 149.837 62.2836 149.476 63.1378C148.359 65.7991 136.366 68.1647 118.165 60.5751C112.842 58.3409 107.848 55.5811 103.807 52.5912C103.675 52.7555 103.511 52.9198 103.38 53.084C99.4041 57.0595 92.9644 57.0595 88.9889 53.084C85.0463 49.1414 85.0463 42.7017 89.0218 38.7262Z" fill="#4E9BDF" fill-opacity="0.15"/>
</g>
<defs>
<clipPath id="clip0_28637_4820">
<rect width="160" height="160" fill="white"/>
</clipPath>
</defs>
</svg>
