<svg width="160" height="160" viewBox="0 0 160 160" fill="none" xmlns="http://www.w3.org/2000/svg">
<path d="M80 10C41.4005 10 10 41.4005 10 80C10 118.6 41.4005 150 80 150C118.6 150 150 118.6 150 80C150 41.4005 118.6 10 80 10ZM113.291 116.207C112.153 117.345 110.66 117.917 109.167 117.917C107.674 117.917 106.18 117.345 105.043 116.207L75.876 87.041C74.7791 85.9505 74.167 84.4679 74.167 82.917V45C74.167 41.7743 76.7796 39.167 80 39.167C83.2204 39.167 85.833 41.7743 85.833 45V80.502L113.291 107.959C115.571 110.24 115.571 113.927 113.291 116.207Z" fill="#121212" fill-opacity="0.05"/>
</svg>
