<svg width="160" height="160" viewBox="0 0 160 160" fill="none" xmlns="http://www.w3.org/2000/svg">
<path d="M140 50.9V90C140 93.2831 139.353 96.534 138.097 99.5671C136.841 102.6 134.999 105.356 132.678 107.678C130.356 109.999 127.6 111.841 124.567 113.097C121.534 114.353 118.283 115 115 115H50V120C50.0119 123.975 51.596 127.783 54.4065 130.594C57.217 133.404 61.0254 134.988 65 135H122.65C123.432 135.01 124.201 135.198 124.9 135.55L142.75 144.45C143.449 144.802 144.218 144.99 145 145C145.936 144.999 146.853 144.74 147.65 144.25C148.371 143.8 148.964 143.173 149.376 142.429C149.787 141.686 150.002 140.85 150 140V65C149.991 61.9053 149.026 58.889 147.235 56.3647C145.445 53.8404 142.918 51.9316 140 50.9Z" fill="#4E9BDF" fill-opacity="0.15"/>
<path d="M130 90V30C130 26.0218 128.42 22.2064 125.607 19.3934C122.794 16.5804 118.978 15 115 15H25C21.0218 15 17.2064 16.5804 14.3934 19.3934C11.5804 22.2064 10 26.0218 10 30V120C9.99965 120.942 10.2655 121.865 10.7669 122.663C11.2683 123.461 11.9849 124.1 12.8341 124.508C13.6833 124.917 14.6305 125.076 15.5666 124.97C16.5026 124.863 17.3895 124.494 18.125 123.905L40.385 106.095C41.2694 105.388 42.3676 105.002 43.5 105H115C118.978 105 122.794 103.42 125.607 100.607C128.42 97.7936 130 93.9782 130 90ZM74.6 81.9C74.3754 82.5205 74.0172 83.084 73.5506 83.5506C73.084 84.0172 72.5205 84.3754 71.9 84.6C71.3013 84.8636 70.6542 84.9998 70 84.9998C69.3458 84.9998 68.6987 84.8636 68.1 84.6C67.4795 84.3754 66.916 84.0172 66.4494 83.5506C65.9828 83.084 65.6246 82.5205 65.4 81.9C65.1438 81.2989 65.0079 80.6534 65 80C65.0194 78.6764 65.5372 77.4087 66.45 76.45C66.9363 76.0087 67.4943 75.6536 68.1 75.4C68.6965 75.128 69.3444 74.9873 70 74.9873C70.6556 74.9873 71.3035 75.128 71.9 75.4C72.5057 75.6536 73.0637 76.0087 73.55 76.45C74.471 77.4034 74.9901 78.6744 75 80C74.9921 80.6534 74.8562 81.2989 74.6 81.9ZM75.555 64.4C75.2829 64.5632 75.0605 64.7974 74.9116 65.0776C74.7627 65.3577 74.693 65.6732 74.71 65.99C74.71 67.3161 74.1832 68.5879 73.2455 69.5255C72.3079 70.4632 71.0361 70.99 69.71 70.99C68.3839 70.99 67.1121 70.4632 66.1745 69.5255C65.2368 68.5879 64.71 67.3161 64.71 65.99C64.676 63.6958 65.3228 61.4429 66.5687 59.5161C67.8146 57.5894 69.6038 56.0752 71.71 55.165C72.7615 54.7289 73.6444 53.9655 74.2279 52.9882C74.8113 52.0108 75.0643 50.8714 74.9493 49.7389C74.8342 48.6064 74.3573 47.5411 73.5892 46.701C72.8211 45.861 71.8027 45.2908 70.685 45.075C69.4391 44.8479 68.153 45.0692 67.0547 45.6998C65.9565 46.3304 65.1169 47.3295 64.685 48.52C64.2318 49.7582 63.3079 50.7673 62.1143 51.3276C60.9207 51.8879 59.5542 51.9541 58.312 51.5117C57.0699 51.0693 56.0528 50.1542 55.4822 48.9655C54.9115 47.7769 54.8334 46.4109 55.265 45.165C56.1154 42.7613 57.5532 40.6083 59.4476 38.9018C61.3421 37.1954 63.6331 35.9896 66.1123 35.3942C68.5915 34.7987 71.1802 34.8325 73.643 35.4924C76.1058 36.1523 78.3646 37.4175 80.2139 39.1728C82.0631 40.9281 83.4443 43.1178 84.2317 45.5429C85.019 47.968 85.1877 50.5514 84.7223 53.0583C84.2568 55.5651 83.1721 57.9158 81.5667 59.8966C79.9613 61.8775 77.8861 63.4255 75.53 64.4H75.555Z" fill="#4E9BDF" fill-opacity="0.15"/>
</svg>
