<svg width="160" height="160" viewBox="0 0 160 160" fill="none" xmlns="http://www.w3.org/2000/svg">
<path d="M134.544 27.8773C125.607 26.9263 116.811 24.9382 108.333 21.9531C100.554 19.2044 93.0913 15.6293 86.0742 11.289C84.243 10.1776 82.1421 9.58984 80 9.58984C77.8579 9.58984 75.7569 10.1776 73.9258 11.289L73.9191 11.2957C66.9034 15.6324 59.4434 19.2052 51.6667 21.9531C43.1912 24.9376 34.3973 26.9258 25.4623 27.8775C22.5921 28.1715 19.9332 29.52 18.0003 31.6621C16.0675 33.8041 14.9984 36.5872 15 39.4724V74.1078C15.0047 86.8869 18.4245 99.4325 24.9054 110.446C31.3864 121.46 40.693 130.542 51.862 136.751L74.3294 149.238C76.0597 150.211 78.0115 150.722 79.9967 150.722C81.982 150.722 83.9337 150.211 85.6641 149.238L108.138 136.751C119.307 130.542 128.614 121.46 135.095 110.446C141.576 99.4325 144.995 86.8869 145 74.1078V39.4724C145.002 36.5882 143.934 33.8058 142.002 31.6639C140.071 29.5219 137.413 28.1727 134.544 27.8773ZM106.53 67.8907L81.5299 94.5573C80.3428 95.8262 78.7067 96.5808 76.9709 96.6598C75.2351 96.7389 73.5371 96.1363 72.2396 94.9805L57.2396 81.6472C55.9187 80.4731 55.1183 78.8223 55.0145 77.0581C54.9108 75.2938 55.5121 73.5606 56.6862 72.2397C57.8603 70.9188 59.5111 70.1184 61.2754 70.0146C63.0396 69.9108 64.7728 70.5121 66.0937 71.6863L76.2435 80.7032L96.8035 58.7761C97.4274 58.1115 98.1807 57.5814 99.017 57.2186C99.8533 56.8558 100.755 56.6679 101.667 56.6664C102.966 56.6671 104.237 57.0476 105.324 57.7612C106.41 58.4748 107.264 59.4903 107.781 60.6828C108.297 61.8753 108.454 63.1929 108.232 64.4734C108.01 65.754 107.418 66.942 106.53 67.8907Z" fill="#121212" fill-opacity="0.05"/>
</svg>
