<svg width="48" height="48" viewBox="0 0 48 48" fill="none" xmlns="http://www.w3.org/2000/svg">
<path d="M45.1241 24.4985C45.1241 22.9385 44.9842 21.4385 44.7242 19.9985H24.0042V28.5185H35.8442C35.3242 31.2585 33.7642 33.5785 31.4242 35.1385V40.6785H38.5642C42.7242 36.8385 45.1241 31.1985 45.1241 24.4985Z" fill="#2E5799"/>
<path d="M24.004 45.999C29.944 45.999 34.924 44.039 38.564 40.679L31.424 35.139C29.464 36.459 26.964 37.259 24.004 37.259C18.284 37.259 13.424 33.399 11.684 28.199H4.36401V33.879C7.98401 41.059 15.404 45.999 24.004 45.999Z" fill="#34A853"/>
<path d="M11.681 28.1799C11.241 26.8599 10.981 25.4599 10.981 23.9999C10.981 22.5399 11.241 21.1399 11.681 19.8199V14.1399H4.36098C2.86098 17.0999 2.00098 20.4399 2.00098 23.9999C2.00098 27.5599 2.86098 30.8999 4.36098 33.8599L10.061 29.4199L11.681 28.1799Z" fill="#FBBC05"/>
<path d="M24.004 10.7598C27.244 10.7598 30.124 11.8798 32.424 14.0398L38.724 7.73976C34.904 4.17976 29.944 1.99976 24.004 1.99976C15.404 1.99976 7.98401 6.93976 4.36401 14.1398L11.684 19.8198C13.424 14.6198 18.284 10.7598 24.004 10.7598Z" fill="#EA4335"/>
</svg>
