<svg width="120" height="32" viewBox="0 0 120 32" fill="none" xmlns="http://www.w3.org/2000/svg">
<mask id="mask0_28597_1769" style="mask-type:alpha" maskUnits="userSpaceOnUse" x="0" y="0" width="33" height="32">
<rect width="32" height="32" fill="#D9D9D9"/>
</mask>
<g mask="url(#mask0_28597_1769)">
<path d="M11.8 22.4333L16 19.9L20.2 22.4667L19.1 17.6667L22.8 14.4667L17.9333 14.0333L16 9.49998L14.0667 14L9.20001 14.4333L12.9 17.6667L11.8 22.4333ZM16 22.2513L10.813 25.3793C10.6197 25.4922 10.426 25.5397 10.232 25.5217C10.038 25.5037 9.86246 25.4383 9.70535 25.3257C9.54801 25.2128 9.42657 25.0653 9.34101 24.8833C9.25568 24.7013 9.24201 24.5 9.30001 24.2793L10.677 18.3897L6.09768 14.4257C5.92657 14.277 5.81757 14.1048 5.77068 13.909C5.72357 13.7132 5.7359 13.523 5.80768 13.3383C5.87946 13.1539 5.9829 13.0031 6.11801 12.886C6.25312 12.7689 6.43779 12.6923 6.67201 12.6563L12.7153 12.1283L15.0617 6.56665C15.147 6.35976 15.2765 6.20676 15.45 6.10765C15.6236 6.00854 15.8069 5.95898 16 5.95898C16.1931 5.95898 16.3765 6.00854 16.55 6.10765C16.7236 6.20676 16.853 6.35976 16.9383 6.56665L19.2847 12.1283L25.328 12.6563C25.5622 12.6923 25.7469 12.7689 25.882 12.886C26.0171 13.0031 26.1206 13.1539 26.1923 13.3383C26.2641 13.523 26.2765 13.7132 26.2293 13.909C26.1825 14.1048 26.0735 14.277 25.9023 14.4257L21.323 18.3897L22.7 24.2793C22.758 24.5 22.7443 24.7013 22.659 24.8833C22.5735 25.0653 22.452 25.2128 22.2947 25.3257C22.1376 25.4383 21.962 25.5037 21.768 25.5217C21.574 25.5397 21.3803 25.4922 21.187 25.3793L16 22.2513Z" fill="#FAAC00"/>
</g>
<mask id="mask1_28597_1769" style="mask-type:alpha" maskUnits="userSpaceOnUse" x="22" y="0" width="33" height="32">
<rect x="22.0001" width="32" height="32" fill="#D9D9D9"/>
</mask>
<g mask="url(#mask1_28597_1769)">
<path d="M33.8001 22.4333L38.0001 19.9L42.2001 22.4667L41.1001 17.6667L44.8001 14.4667L39.9335 14.0333L38.0001 9.49998L36.0668 14L31.2001 14.4333L34.9001 17.6667L33.8001 22.4333ZM38.0001 22.2513L32.8131 25.3793C32.6198 25.4922 32.4261 25.5397 32.2321 25.5217C32.0381 25.5037 31.8626 25.4383 31.7055 25.3257C31.5481 25.2128 31.4267 25.0653 31.3411 24.8833C31.2558 24.7013 31.2421 24.5 31.3001 24.2793L32.6771 18.3897L28.0978 14.4257C27.9267 14.277 27.8177 14.1048 27.7708 13.909C27.7237 13.7132 27.736 13.523 27.8078 13.3383C27.8796 13.1539 27.983 13.0031 28.1181 12.886C28.2532 12.7689 28.4379 12.6923 28.6721 12.6563L34.7155 12.1283L37.0618 6.56665C37.1471 6.35976 37.2766 6.20676 37.4501 6.10765C37.6237 6.00854 37.807 5.95898 38.0001 5.95898C38.1932 5.95898 38.3766 6.00854 38.5501 6.10765C38.7237 6.20676 38.8531 6.35976 38.9385 6.56665L41.2848 12.1283L47.3281 12.6563C47.5624 12.6923 47.747 12.7689 47.8821 12.886C48.0172 13.0031 48.1207 13.1539 48.1925 13.3383C48.2642 13.523 48.2766 13.7132 48.2295 13.909C48.1826 14.1048 48.0736 14.277 47.9025 14.4257L43.3231 18.3897L44.7001 24.2793C44.7581 24.5 44.7445 24.7013 44.6591 24.8833C44.5736 25.0653 44.4521 25.2128 44.2948 25.3257C44.1377 25.4383 43.9621 25.5037 43.7681 25.5217C43.5741 25.5397 43.3805 25.4922 43.1871 25.3793L38.0001 22.2513Z" fill="#FAAC00"/>
</g>
<mask id="mask2_28597_1769" style="mask-type:alpha" maskUnits="userSpaceOnUse" x="44" y="0" width="33" height="32">
<rect x="44.0001" width="32" height="32" fill="#D9D9D9"/>
</mask>
<g mask="url(#mask2_28597_1769)">
<path d="M55.8001 22.4333L60.0001 19.9L64.2001 22.4667L63.1001 17.6667L66.8001 14.4667L61.9335 14.0333L60.0001 9.49998L58.0668 14L53.2001 14.4333L56.9001 17.6667L55.8001 22.4333ZM60.0001 22.2513L54.8131 25.3793C54.6198 25.4922 54.4261 25.5397 54.2321 25.5217C54.0381 25.5037 53.8626 25.4383 53.7055 25.3257C53.5481 25.2128 53.4267 25.0653 53.3411 24.8833C53.2558 24.7013 53.2421 24.5 53.3001 24.2793L54.6771 18.3897L50.0978 14.4257C49.9267 14.277 49.8177 14.1048 49.7708 13.909C49.7237 13.7132 49.736 13.523 49.8078 13.3383C49.8796 13.1539 49.983 13.0031 50.1181 12.886C50.2532 12.7689 50.4379 12.6923 50.6721 12.6563L56.7155 12.1283L59.0618 6.56665C59.1471 6.35976 59.2766 6.20676 59.4501 6.10765C59.6237 6.00854 59.807 5.95898 60.0001 5.95898C60.1932 5.95898 60.3766 6.00854 60.5501 6.10765C60.7237 6.20676 60.8531 6.35976 60.9385 6.56665L63.2848 12.1283L69.3281 12.6563C69.5624 12.6923 69.747 12.7689 69.8821 12.886C70.0172 13.0031 70.1207 13.1539 70.1925 13.3383C70.2642 13.523 70.2766 13.7132 70.2295 13.909C70.1826 14.1048 70.0736 14.277 69.9025 14.4257L65.3231 18.3897L66.7001 24.2793C66.7581 24.5 66.7445 24.7013 66.6591 24.8833C66.5736 25.0653 66.4521 25.2128 66.2948 25.3257C66.1377 25.4383 65.9621 25.5037 65.7681 25.5217C65.5741 25.5397 65.3805 25.4922 65.1871 25.3793L60.0001 22.2513Z" fill="#FAAC00"/>
</g>
<mask id="mask3_28597_1769" style="mask-type:alpha" maskUnits="userSpaceOnUse" x="66" y="0" width="33" height="32">
<rect x="66.0001" width="32" height="32" fill="#D9D9D9"/>
</mask>
<g mask="url(#mask3_28597_1769)">
<path d="M77.8001 22.4333L82.0001 19.9L86.2001 22.4667L85.1001 17.6667L88.8001 14.4667L83.9335 14.0333L82.0001 9.49998L80.0668 14L75.2001 14.4333L78.9001 17.6667L77.8001 22.4333ZM82.0001 22.2513L76.8131 25.3793C76.6198 25.4922 76.4261 25.5397 76.2321 25.5217C76.0381 25.5037 75.8626 25.4383 75.7055 25.3257C75.5481 25.2128 75.4267 25.0653 75.3411 24.8833C75.2558 24.7013 75.2421 24.5 75.3001 24.2793L76.6771 18.3897L72.0978 14.4257C71.9267 14.277 71.8177 14.1048 71.7708 13.909C71.7237 13.7132 71.736 13.523 71.8078 13.3383C71.8796 13.1539 71.983 13.0031 72.1181 12.886C72.2532 12.7689 72.4379 12.6923 72.6721 12.6563L78.7155 12.1283L81.0618 6.56665C81.1471 6.35976 81.2766 6.20676 81.4501 6.10765C81.6237 6.00854 81.807 5.95898 82.0001 5.95898C82.1932 5.95898 82.3766 6.00854 82.5501 6.10765C82.7237 6.20676 82.8531 6.35976 82.9385 6.56665L85.2848 12.1283L91.3281 12.6563C91.5624 12.6923 91.747 12.7689 91.8821 12.886C92.0172 13.0031 92.1207 13.1539 92.1925 13.3383C92.2642 13.523 92.2766 13.7132 92.2295 13.909C92.1826 14.1048 92.0736 14.277 91.9025 14.4257L87.3231 18.3897L88.7001 24.2793C88.7581 24.5 88.7445 24.7013 88.6591 24.8833C88.5736 25.0653 88.4521 25.2128 88.2948 25.3257C88.1377 25.4383 87.9621 25.5037 87.7681 25.5217C87.5741 25.5397 87.3805 25.4922 87.1871 25.3793L82.0001 22.2513Z" fill="#FAAC00"/>
</g>
<mask id="mask4_28597_1769" style="mask-type:alpha" maskUnits="userSpaceOnUse" x="88" y="0" width="33" height="32">
<rect x="88.0001" width="32" height="32" fill="#D9D9D9"/>
</mask>
<g mask="url(#mask4_28597_1769)">
<path d="M99.8001 22.4333L104 19.9L108.2 22.4667L107.1 17.6667L110.8 14.4667L105.933 14.0333L104 9.49998L102.067 14L97.2001 14.4333L100.9 17.6667L99.8001 22.4333ZM104 22.2513L98.8131 25.3793C98.6198 25.4922 98.4261 25.5397 98.2321 25.5217C98.0381 25.5037 97.8626 25.4383 97.7055 25.3257C97.5481 25.2128 97.4267 25.0653 97.3411 24.8833C97.2558 24.7013 97.2421 24.5 97.3001 24.2793L98.6771 18.3897L94.0978 14.4257C93.9267 14.277 93.8177 14.1048 93.7708 13.909C93.7237 13.7132 93.736 13.523 93.8078 13.3383C93.8796 13.1539 93.983 13.0031 94.1181 12.886C94.2532 12.7689 94.4379 12.6923 94.6721 12.6563L100.715 12.1283L103.062 6.56665C103.147 6.35976 103.277 6.20676 103.45 6.10765C103.624 6.00854 103.807 5.95898 104 5.95898C104.193 5.95898 104.377 6.00854 104.55 6.10765C104.724 6.20676 104.853 6.35976 104.938 6.56665L107.285 12.1283L113.328 12.6563C113.562 12.6923 113.747 12.7689 113.882 12.886C114.017 13.0031 114.121 13.1539 114.192 13.3383C114.264 13.523 114.277 13.7132 114.229 13.909C114.183 14.1048 114.074 14.277 113.902 14.4257L109.323 18.3897L110.7 24.2793C110.758 24.5 110.744 24.7013 110.659 24.8833C110.574 25.0653 110.452 25.2128 110.295 25.3257C110.138 25.4383 109.962 25.5037 109.768 25.5217C109.574 25.5397 109.38 25.4922 109.187 25.3793L104 22.2513Z" fill="#FAAC00"/>
</g>
</svg>
