<svg width="120" height="32" viewBox="0 0 120 32" fill="none" xmlns="http://www.w3.org/2000/svg">
<mask id="mask0_28597_1704" style="mask-type:alpha" maskUnits="userSpaceOnUse" x="0" y="0" width="32" height="32">
<rect width="32" height="32" fill="#D9D9D9"/>
</mask>
<g mask="url(#mask0_28597_1704)">
<path d="M16 22.2513L10.813 25.3793C10.6197 25.4922 10.426 25.5397 10.232 25.5217C10.038 25.5037 9.86246 25.4383 9.70535 25.3257C9.54801 25.2128 9.42657 25.0653 9.34101 24.8833C9.25568 24.7013 9.24201 24.5 9.30001 24.2793L10.677 18.3897L6.09768 14.4257C5.92657 14.277 5.81757 14.1048 5.77068 13.909C5.72357 13.7132 5.7359 13.523 5.80768 13.3383C5.87946 13.1539 5.9829 13.0031 6.11801 12.886C6.25312 12.7689 6.43779 12.6923 6.67201 12.6563L12.7153 12.1283L15.0617 6.56665C15.147 6.35976 15.2765 6.20676 15.45 6.10765C15.6236 6.00854 15.8069 5.95898 16 5.95898C16.1931 5.95898 16.3765 6.00854 16.55 6.10765C16.7236 6.20676 16.853 6.35976 16.9383 6.56665L19.2847 12.1283L25.328 12.6563C25.5622 12.6923 25.7469 12.7689 25.882 12.886C26.0171 13.0031 26.1206 13.1539 26.1923 13.3383C26.2641 13.523 26.2765 13.7132 26.2293 13.909C26.1825 14.1048 26.0735 14.277 25.9023 14.4257L21.323 18.3897L22.7 24.2793C22.758 24.5 22.7443 24.7013 22.659 24.8833C22.5735 25.0653 22.452 25.2128 22.2947 25.3257C22.1376 25.4383 21.962 25.5037 21.768 25.5217C21.574 25.5397 21.3803 25.4922 21.187 25.3793L16 22.2513Z" fill="#FAAC00"/>
</g>
<mask id="mask1_28597_1704" style="mask-type:alpha" maskUnits="userSpaceOnUse" x="22" y="0" width="32" height="32">
<rect x="22" width="32" height="32" fill="#D9D9D9"/>
</mask>
<g mask="url(#mask1_28597_1704)">
<path d="M38 22.2513L32.813 25.3793C32.6197 25.4922 32.426 25.5397 32.232 25.5217C32.038 25.5037 31.8625 25.4383 31.7053 25.3257C31.548 25.2128 31.4266 25.0653 31.341 24.8833C31.2557 24.7013 31.242 24.5 31.3 24.2793L32.677 18.3897L28.0977 14.4257C27.9266 14.277 27.8176 14.1048 27.7707 13.909C27.7236 13.7132 27.7359 13.523 27.8077 13.3383C27.8795 13.1539 27.9829 13.0031 28.118 12.886C28.2531 12.7689 28.4378 12.6923 28.672 12.6563L34.7153 12.1283L37.0617 6.56665C37.147 6.35976 37.2765 6.20676 37.45 6.10765C37.6236 6.00854 37.8069 5.95898 38 5.95898C38.1931 5.95898 38.3765 6.00854 38.55 6.10765C38.7236 6.20676 38.853 6.35976 38.9383 6.56665L41.2847 12.1283L47.328 12.6563C47.5622 12.6923 47.7469 12.7689 47.882 12.886C48.0171 13.0031 48.1206 13.1539 48.1923 13.3383C48.2641 13.523 48.2765 13.7132 48.2293 13.909C48.1825 14.1048 48.0735 14.277 47.9023 14.4257L43.323 18.3897L44.7 24.2793C44.758 24.5 44.7443 24.7013 44.659 24.8833C44.5735 25.0653 44.452 25.2128 44.2947 25.3257C44.1376 25.4383 43.962 25.5037 43.768 25.5217C43.574 25.5397 43.3803 25.4922 43.187 25.3793L38 22.2513Z" fill="#FAAC00"/>
</g>
<mask id="mask2_28597_1704" style="mask-type:alpha" maskUnits="userSpaceOnUse" x="44" y="0" width="32" height="32">
<rect x="44" width="32" height="32" fill="#D9D9D9"/>
</mask>
<g mask="url(#mask2_28597_1704)">
<path d="M60 22.2513L54.813 25.3793C54.6197 25.4922 54.426 25.5397 54.232 25.5217C54.038 25.5037 53.8625 25.4383 53.7053 25.3257C53.548 25.2128 53.4266 25.0653 53.341 24.8833C53.2557 24.7013 53.242 24.5 53.3 24.2793L54.677 18.3897L50.0977 14.4257C49.9266 14.277 49.8176 14.1048 49.7707 13.909C49.7236 13.7132 49.7359 13.523 49.8077 13.3383C49.8795 13.1539 49.9829 13.0031 50.118 12.886C50.2531 12.7689 50.4378 12.6923 50.672 12.6563L56.7153 12.1283L59.0617 6.56665C59.147 6.35976 59.2765 6.20676 59.45 6.10765C59.6236 6.00854 59.8069 5.95898 60 5.95898C60.1931 5.95898 60.3765 6.00854 60.55 6.10765C60.7236 6.20676 60.853 6.35976 60.9383 6.56665L63.2847 12.1283L69.328 12.6563C69.5622 12.6923 69.7469 12.7689 69.882 12.886C70.0171 13.0031 70.1206 13.1539 70.1923 13.3383C70.2641 13.523 70.2765 13.7132 70.2293 13.909C70.1825 14.1048 70.0735 14.277 69.9023 14.4257L65.323 18.3897L66.7 24.2793C66.758 24.5 66.7443 24.7013 66.659 24.8833C66.5735 25.0653 66.452 25.2128 66.2947 25.3257C66.1376 25.4383 65.962 25.5037 65.768 25.5217C65.574 25.5397 65.3803 25.4922 65.187 25.3793L60 22.2513Z" fill="#FAAC00"/>
</g>
<mask id="mask3_28597_1704" style="mask-type:alpha" maskUnits="userSpaceOnUse" x="66" y="0" width="32" height="32">
<rect x="66" width="32" height="32" fill="#D9D9D9"/>
</mask>
<g mask="url(#mask3_28597_1704)">
<path d="M82 22.2513L76.813 25.3793C76.6197 25.4922 76.426 25.5397 76.232 25.5217C76.038 25.5037 75.8625 25.4383 75.7053 25.3257C75.548 25.2128 75.4266 25.0653 75.341 24.8833C75.2557 24.7013 75.242 24.5 75.3 24.2793L76.677 18.3897L72.0977 14.4257C71.9266 14.277 71.8176 14.1048 71.7707 13.909C71.7236 13.7132 71.7359 13.523 71.8077 13.3383C71.8795 13.1539 71.9829 13.0031 72.118 12.886C72.2531 12.7689 72.4378 12.6923 72.672 12.6563L78.7153 12.1283L81.0617 6.56665C81.147 6.35976 81.2765 6.20676 81.45 6.10765C81.6236 6.00854 81.8069 5.95898 82 5.95898C82.1931 5.95898 82.3765 6.00854 82.55 6.10765C82.7236 6.20676 82.853 6.35976 82.9383 6.56665L85.2847 12.1283L91.328 12.6563C91.5622 12.6923 91.7469 12.7689 91.882 12.886C92.0171 13.0031 92.1206 13.1539 92.1923 13.3383C92.2641 13.523 92.2765 13.7132 92.2293 13.909C92.1825 14.1048 92.0735 14.277 91.9023 14.4257L87.323 18.3897L88.7 24.2793C88.758 24.5 88.7443 24.7013 88.659 24.8833C88.5735 25.0653 88.452 25.2128 88.2947 25.3257C88.1376 25.4383 87.962 25.5037 87.768 25.5217C87.574 25.5397 87.3803 25.4922 87.187 25.3793L82 22.2513Z" fill="#FAAC00"/>
</g>
<mask id="mask4_28597_1704" style="mask-type:alpha" maskUnits="userSpaceOnUse" x="88" y="0" width="32" height="32">
<rect x="88" width="32" height="32" fill="#D9D9D9"/>
</mask>
<g mask="url(#mask4_28597_1704)">
<path d="M104 22.2513L98.813 25.3793C98.6197 25.4922 98.426 25.5397 98.232 25.5217C98.038 25.5037 97.8625 25.4383 97.7053 25.3257C97.548 25.2128 97.4266 25.0653 97.341 24.8833C97.2557 24.7013 97.242 24.5 97.3 24.2793L98.677 18.3897L94.0977 14.4257C93.9266 14.277 93.8176 14.1048 93.7707 13.909C93.7236 13.7132 93.7359 13.523 93.8077 13.3383C93.8795 13.1539 93.9829 13.0031 94.118 12.886C94.2531 12.7689 94.4378 12.6923 94.672 12.6563L100.715 12.1283L103.062 6.56665C103.147 6.35976 103.276 6.20676 103.45 6.10765C103.624 6.00854 103.807 5.95898 104 5.95898C104.193 5.95898 104.376 6.00854 104.55 6.10765C104.724 6.20676 104.853 6.35976 104.938 6.56665L107.285 12.1283L113.328 12.6563C113.562 12.6923 113.747 12.7689 113.882 12.886C114.017 13.0031 114.121 13.1539 114.192 13.3383C114.264 13.523 114.276 13.7132 114.229 13.909C114.182 14.1048 114.073 14.277 113.902 14.4257L109.323 18.3897L110.7 24.2793C110.758 24.5 110.744 24.7013 110.659 24.8833C110.573 25.0653 110.452 25.2128 110.295 25.3257C110.138 25.4383 109.962 25.5037 109.768 25.5217C109.574 25.5397 109.38 25.4922 109.187 25.3793L104 22.2513Z" fill="#FAAC00"/>
</g>
</svg>
