<svg width="169" height="56" viewBox="0 0 169 56" fill="none" xmlns="http://www.w3.org/2000/svg">
<path d="M65.1416 36.4689C64.6485 36.384 64.2065 36.2776 63.8157 36.1501C63.4243 36.0226 63.0847 35.8911 62.7956 35.755C62.5063 35.6189 62.277 35.5 62.1072 35.398L61.5463 36.9023C61.7158 37.0043 61.9543 37.1236 62.2602 37.2594C62.5661 37.3958 62.94 37.5273 63.3823 37.6548C63.824 37.7819 64.3257 37.888 64.8866 37.9732C65.4475 38.0581 66.0679 38.1007 66.748 38.1007C68.6517 38.1007 70.1607 37.7017 71.2742 36.9023C72.3874 36.1035 72.9444 34.9051 72.9444 33.307C72.9444 32.491 72.8083 31.8023 72.5364 31.2414C72.2645 30.6805 71.8989 30.2048 71.44 29.8134C70.9809 29.4226 70.4411 29.0827 69.8208 28.7937C69.2001 28.5046 68.5414 28.2159 67.8447 27.9266C67.2663 27.6887 66.7309 27.4591 66.238 27.2382C65.7448 27.0172 65.3157 26.7707 64.9504 26.4985C64.5847 26.2267 64.3003 25.9036 64.0961 25.5297C63.892 25.1557 63.7903 24.6969 63.7903 24.1525C63.7903 23.626 63.8877 23.1751 64.0833 22.8012C64.2785 22.4272 64.5464 22.1171 64.8866 21.8703C65.2265 21.6242 65.6302 21.4458 66.0979 21.3348C66.5654 21.2245 67.0797 21.169 67.6406 21.169C68.4565 21.169 69.2172 21.2711 69.9228 21.4752C70.6281 21.679 71.2273 21.9512 71.7205 22.2911L72.3326 20.8377C72.1113 20.6847 71.8354 20.5404 71.5038 20.4043C71.1721 20.2682 70.8065 20.1453 70.4074 20.0343C70.0077 19.924 69.5786 19.8348 69.1195 19.7668C68.6606 19.699 68.1929 19.6647 67.7172 19.6647C65.9321 19.6647 64.5381 20.0558 63.5352 20.8377C62.532 21.6199 62.0306 22.7671 62.0306 24.28C62.0306 24.943 62.1366 25.5211 62.3494 26.0139C62.5618 26.5075 62.8723 26.9448 63.2802 27.3273C63.6882 27.7099 64.181 28.0531 64.7591 28.3573C65.3369 28.6615 65.9916 28.9572 66.7226 29.2442C67.3003 29.4808 67.853 29.7047 68.3802 29.9158C68.9067 30.1272 69.3745 30.3819 69.7824 30.6802C70.1904 30.9781 70.5178 31.3448 70.7642 31.7789C71.0106 32.2132 71.1341 32.7543 71.1341 33.4018C71.1341 34.5262 70.7516 35.3398 69.9866 35.8426C69.2215 36.3453 68.1506 36.5964 66.7735 36.5964C66.1782 36.5964 65.6345 36.5541 65.1416 36.4689ZM78.7965 36.3797C78.3799 36.2865 78.0228 36.1372 77.7255 35.9334C77.4279 35.7293 77.1983 35.4577 77.0371 35.1175C76.8753 34.7776 76.795 34.361 76.795 33.8679C76.795 33.307 76.9136 32.8567 77.1518 32.5165C77.3896 32.1766 77.6958 31.9087 78.0697 31.7131C78.4437 31.5179 78.8516 31.3904 79.2939 31.3306C79.7356 31.2715 80.1607 31.2414 80.5687 31.2414C81.2829 31.2414 81.8438 31.2883 82.2517 31.3818C82.6597 31.4753 82.957 31.5645 83.1443 31.6494V36.2905C82.804 36.3585 82.3921 36.414 81.9075 36.456C81.4229 36.4986 80.8577 36.5197 80.2119 36.5197C79.6847 36.5197 79.213 36.4732 78.7965 36.3797ZM77.8785 24.4076C77.275 24.5268 76.8287 24.6543 76.54 24.7901L76.7692 26.2435C76.9902 26.1586 77.3387 26.0483 77.8147 25.9122C78.2907 25.7761 79.0135 25.7081 79.9824 25.7081C80.6622 25.7081 81.2102 25.8144 81.6271 26.0268C82.0433 26.2396 82.3667 26.52 82.5959 26.8682C82.8255 27.217 82.9741 27.6078 83.0422 28.0412C83.1099 28.4749 83.1443 28.9208 83.1443 29.38V30.1959C83.0762 30.1622 82.953 30.1239 82.7746 30.0813C82.5959 30.039 82.3832 29.9964 82.1371 29.9538C81.8903 29.9115 81.6353 29.8772 81.372 29.8517C81.1081 29.8263 80.8577 29.8134 80.6199 29.8134C79.8205 29.8134 79.0812 29.89 78.4014 30.043C77.7212 30.1959 77.1346 30.4384 76.6417 30.7697C76.1485 31.1014 75.766 31.5219 75.4945 32.0319C75.2223 32.5419 75.0865 33.154 75.0865 33.8679C75.0865 34.6161 75.2094 35.2493 75.4562 35.7676C75.7023 36.2865 76.0425 36.711 76.4762 37.0427C76.9096 37.374 77.4197 37.6164 78.006 37.7694C78.5927 37.9223 79.2342 37.999 79.9315 37.999C80.4752 37.999 81.0064 37.9775 81.525 37.9352C82.0433 37.8926 82.515 37.8371 82.9401 37.7694C83.3649 37.7017 83.7392 37.6379 84.0623 37.5781C84.385 37.5187 84.6317 37.4635 84.8019 37.4123V29.0996C84.8019 28.4026 84.7163 27.7568 84.5468 27.1615C84.3767 26.5666 84.1045 26.0523 83.7306 25.6189C83.3567 25.1855 82.8678 24.8456 82.2646 24.5988C81.6608 24.3527 80.9258 24.2292 80.0587 24.2292C79.2087 24.2292 78.4817 24.289 77.8785 24.4076ZM92.6042 36.5709C92.264 36.5197 91.9707 36.4606 91.7246 36.3922C91.4778 36.3245 91.2783 36.2182 91.1254 36.0735C90.9724 35.9294 90.8575 35.7339 90.7812 35.4871C90.7045 35.241 90.6662 34.9134 90.6662 34.5054V17.9308L89.0089 18.2367V34.5563C89.0089 35.1855 89.0809 35.7081 89.2256 36.1247C89.3697 36.5415 89.5827 36.8811 89.8632 37.1447C90.1436 37.4083 90.4918 37.6036 90.9087 37.7311C91.3249 37.8586 91.8138 37.9306 92.3747 37.9478L92.6042 36.5709ZM98.427 33.4216C98.0517 32.4782 97.689 31.5007 97.3398 30.4893C96.99 29.4781 96.666 28.4581 96.3677 27.4294C96.0691 26.4011 95.8177 25.4362 95.6129 24.5351H93.8535C94.1611 25.7424 94.5033 26.9319 94.8799 28.1049C95.2565 29.2779 95.6545 30.4255 96.0734 31.5476C96.4925 32.6694 96.9246 33.7493 97.3692 34.7859C97.8139 35.8231 98.2588 36.8005 98.7041 37.7185H100.249C100.677 36.8005 101.117 35.8231 101.57 34.7859C102.024 33.7493 102.46 32.6694 102.879 31.5476C103.298 30.4255 103.696 29.2779 104.072 28.1049C104.449 26.9319 104.791 25.7424 105.099 24.5351H103.44C103.236 25.4362 102.984 26.4011 102.686 27.4294C102.387 28.4581 102.064 29.4781 101.714 30.4893C101.364 31.5007 101.002 32.4782 100.627 33.4216C100.251 34.365 99.885 35.2027 99.527 35.9334C99.1689 35.2027 98.8022 34.365 98.427 33.4216ZM110.517 36.3797C110.1 36.2865 109.743 36.1372 109.446 35.9334C109.149 35.7293 108.919 35.4577 108.758 35.1175C108.596 34.7776 108.516 34.361 108.516 33.8679C108.516 33.307 108.634 32.8567 108.873 32.5165C109.11 32.1766 109.416 31.9087 109.791 31.7131C110.164 31.5179 110.572 31.3904 111.014 31.3306C111.456 31.2715 111.882 31.2414 112.29 31.2414C113.003 31.2414 113.565 31.2883 113.973 31.3818C114.381 31.4753 114.678 31.5645 114.865 31.6494V36.2905C114.525 36.3585 114.113 36.414 113.628 36.456C113.144 36.4986 112.578 36.5197 111.932 36.5197C111.405 36.5197 110.934 36.4732 110.517 36.3797ZM109.599 24.4076C108.996 24.5268 108.55 24.6543 108.261 24.7901L108.49 26.2435C108.711 26.1586 109.059 26.0483 109.536 25.9122C110.011 25.7761 110.734 25.7081 111.703 25.7081C112.383 25.7081 112.931 25.8144 113.348 26.0268C113.764 26.2396 114.087 26.52 114.317 26.8682C114.546 27.217 114.695 27.6078 114.763 28.0412C114.831 28.4749 114.865 28.9208 114.865 29.38V30.1959C114.797 30.1622 114.674 30.1239 114.495 30.0813C114.317 30.039 114.104 29.9964 113.858 29.9538C113.611 29.9115 113.356 29.8772 113.093 29.8517C112.829 29.8263 112.578 29.8134 112.34 29.8134C111.541 29.8134 110.802 29.89 110.122 30.043C109.442 30.1959 108.855 30.4384 108.363 30.7697C107.869 31.1014 107.487 31.5219 107.215 32.0319C106.943 32.5419 106.807 33.154 106.807 33.8679C106.807 34.6161 106.93 35.2493 107.177 35.7676C107.423 36.2865 107.763 36.711 108.197 37.0427C108.63 37.374 109.14 37.6164 109.727 37.7694C110.313 37.9223 110.955 37.999 111.652 37.999C112.196 37.999 112.727 37.9775 113.246 37.9352C113.764 37.8926 114.236 37.8371 114.661 37.7694C115.086 37.7017 115.46 37.6379 115.783 37.5781C116.106 37.5187 116.352 37.4635 116.522 37.4123V29.0996C116.522 28.4026 116.437 27.7568 116.267 27.1615C116.097 26.5666 115.825 26.0523 115.451 25.6189C115.077 25.1855 114.588 24.8456 113.985 24.5988C113.382 24.3527 112.647 24.2292 111.78 24.2292C110.929 24.2292 110.203 24.289 109.599 24.4076ZM131.235 17.9308L129.578 18.2367V25.3255C129.289 25.1049 128.826 24.871 128.188 24.6243C127.551 24.3782 126.798 24.2546 125.932 24.2546C124.979 24.2546 124.134 24.4247 123.394 24.7646C122.655 25.1049 122.03 25.5806 121.52 26.1927C121.01 26.8044 120.623 27.5312 120.36 28.3728C120.096 29.2142 119.964 30.1365 119.964 31.1393C119.964 32.2106 120.122 33.1712 120.436 34.0208C120.751 34.8711 121.193 35.5935 121.762 36.1884C122.332 36.7837 123.012 37.2382 123.802 37.5527C124.593 37.8668 125.472 38.0244 126.442 38.0244C127.615 38.0244 128.583 37.9478 129.348 37.7948C130.113 37.6419 130.742 37.4804 131.235 37.3102V17.9308ZM129.578 36.163C129.323 36.2482 128.944 36.3285 128.443 36.4051C127.942 36.4818 127.283 36.5197 126.467 36.5197C125.039 36.5197 123.891 36.057 123.025 35.1301C122.157 34.2038 121.724 32.8736 121.724 31.1393C121.724 30.4087 121.8 29.716 121.953 29.0612C122.107 28.4072 122.353 27.8374 122.693 27.3528C123.033 26.8682 123.479 26.4817 124.032 26.1927C124.584 25.9036 125.269 25.7589 126.084 25.7589C126.475 25.7589 126.849 25.7973 127.206 25.8739C127.563 25.9502 127.895 26.0483 128.201 26.1672C128.507 26.2861 128.775 26.4136 129.004 26.5494C129.233 26.6858 129.425 26.8134 129.578 26.9319V36.163ZM146.42 28.3091C146.123 27.4591 145.706 26.7324 145.171 26.1289C144.635 25.5257 144.002 25.058 143.271 24.7263C142.54 24.395 141.732 24.2292 140.849 24.2292C139.964 24.2292 139.157 24.395 138.426 24.7263C137.695 25.058 137.062 25.5257 136.526 26.1289C135.991 26.7324 135.574 27.4591 135.277 28.3091C134.979 29.1593 134.831 30.1028 134.831 31.1393C134.831 32.1766 134.979 33.12 135.277 33.9699C135.574 34.8202 135.991 35.5426 136.526 36.1372C137.062 36.7325 137.695 37.1956 138.426 37.5273C139.157 37.8586 139.964 38.0244 140.849 38.0244C141.732 38.0244 142.54 37.8586 143.271 37.5273C144.002 37.1956 144.635 36.7325 145.171 36.1372C145.706 35.5426 146.123 34.8202 146.42 33.9699C146.717 33.12 146.866 32.1766 146.866 31.1393C146.866 30.1028 146.717 29.1593 146.42 28.3091ZM143.96 35.0663C143.195 36.0355 142.157 36.5197 140.849 36.5197C139.539 36.5197 138.503 36.0355 137.737 35.0663C136.972 34.0974 136.59 32.7887 136.59 31.1393C136.59 29.4907 136.972 28.1776 137.737 27.1998C138.503 26.2224 139.539 25.7335 140.849 25.7335C142.157 25.7335 143.195 26.2224 143.96 27.1998C144.724 28.1776 145.107 29.4907 145.107 31.1393C145.107 32.7887 144.724 34.0974 143.96 35.0663ZM152.221 24.5734C151.473 24.7689 150.886 24.9602 150.461 25.1472V37.7185H152.119V26.1672C152.255 26.0992 152.54 26.014 152.973 25.9122C153.407 25.8101 153.98 25.7589 154.694 25.7589C155.374 25.7589 155.922 25.7973 156.339 25.8739C156.756 25.9502 157.032 26.0229 157.168 26.0906L157.499 24.6626C157.312 24.5777 156.977 24.4928 156.492 24.4076C156.008 24.3227 155.493 24.28 154.949 24.28C153.878 24.28 152.969 24.3782 152.221 24.5734ZM162.739 36.3797C162.323 36.2865 161.965 36.1372 161.668 35.9334C161.371 35.7293 161.141 35.4577 160.98 35.1175C160.818 34.7776 160.738 34.361 160.738 33.8679C160.738 33.307 160.856 32.8567 161.094 32.5165C161.332 32.1766 161.638 31.9087 162.012 31.7131C162.386 31.5179 162.794 31.3904 163.237 31.3306C163.678 31.2715 164.103 31.2414 164.511 31.2414C165.226 31.2414 165.786 31.2883 166.194 31.3818C166.602 31.4753 166.9 31.5645 167.087 31.6494V36.2905C166.747 36.3585 166.335 36.414 165.85 36.456C165.366 36.4986 164.8 36.5197 164.155 36.5197C163.627 36.5197 163.156 36.4732 162.739 36.3797ZM161.821 24.4076C161.218 24.5268 160.771 24.6543 160.483 24.7901L160.712 26.2435C160.933 26.1586 161.281 26.0483 161.757 25.9122C162.233 25.7761 162.956 25.7081 163.925 25.7081C164.605 25.7081 165.153 25.8144 165.57 26.0268C165.986 26.2396 166.309 26.52 166.539 26.8682C166.768 27.217 166.917 27.6078 166.985 28.0412C167.053 28.4749 167.087 28.9208 167.087 29.38V30.1959C167.019 30.1622 166.896 30.1239 166.717 30.0813C166.539 30.039 166.326 29.9964 166.08 29.9538C165.833 29.9115 165.578 29.8772 165.315 29.8517C165.051 29.8263 164.8 29.8134 164.563 29.8134C163.763 29.8134 163.024 29.89 162.344 30.043C161.664 30.1959 161.077 30.4384 160.584 30.7697C160.091 31.1014 159.709 31.5219 159.437 32.0319C159.165 32.5419 159.029 33.154 159.029 33.8679C159.029 34.6161 159.152 35.2493 159.399 35.7676C159.645 36.2865 159.985 36.711 160.419 37.0427C160.852 37.374 161.362 37.6164 161.949 37.7694C162.535 37.9223 163.177 37.999 163.874 37.999C164.418 37.999 164.949 37.9775 165.468 37.9352C165.986 37.8926 166.458 37.8371 166.883 37.7694C167.308 37.7017 167.682 37.6379 168.005 37.5781C168.328 37.5187 168.574 37.4635 168.745 37.4123V29.0996C168.745 28.4026 168.659 27.7568 168.49 27.1615C168.319 26.5666 168.047 26.0523 167.674 25.6189C167.299 25.1855 166.81 24.8456 166.207 24.5988C165.604 24.3527 164.868 24.2292 164.002 24.2292C163.151 24.2292 162.425 24.289 161.821 24.4076Z" fill="#02A04B"/>
<path fill-rule="evenodd" clip-rule="evenodd" d="M72.3879 31.3134C72.646 31.846 72.7791 32.5086 72.7791 33.3069C72.7791 34.862 72.2402 36.0057 71.1778 36.768C70.1014 37.5407 68.6303 37.9354 66.7481 37.9354C66.0746 37.9354 65.4629 37.8934 64.9116 37.8099C64.4256 37.7361 63.986 37.6466 63.5935 37.5419L63.428 37.4961C62.9904 37.3699 62.6241 37.2407 62.3273 37.1083L62.1131 37.0109C61.9722 36.9449 61.8513 36.8839 61.7499 36.8283L62.1938 35.6373C62.3424 35.7186 62.5197 35.8077 62.7254 35.9044C63.0221 36.0441 63.3683 36.178 63.7644 36.307C64.1642 36.4374 64.6141 36.5455 65.1135 36.6315L65.3048 36.6622C65.7564 36.7287 66.246 36.7615 66.7735 36.7615C68.1676 36.7615 69.2748 36.5078 70.0772 35.9805C70.8996 35.4401 71.2994 34.5673 71.2994 33.4018C71.2994 32.7757 71.1874 32.2347 70.9559 31.7859L70.9078 31.6972C70.6497 31.2427 70.3067 30.8585 69.8801 30.5469C69.4597 30.2395 68.9793 29.9782 68.4416 29.7624C67.9149 29.5514 67.3626 29.3277 66.7852 29.0914L66.7829 29.0904C66.0565 28.8051 65.4075 28.5119 64.8361 28.211C64.269 27.9126 63.7887 27.5777 63.3931 27.2068C63.001 26.8391 62.7042 26.4203 62.5012 25.9487L62.5009 25.9484C62.299 25.4806 62.1957 24.9256 62.1957 24.28C62.1957 22.8073 62.6815 21.7128 63.6367 20.968C64.6009 20.2163 65.9543 19.8299 67.7171 19.8299C68.1848 19.8299 68.6445 19.8637 69.0952 19.9302C69.5484 19.9974 69.9709 20.0851 70.3633 20.1934C70.7572 20.303 71.1165 20.4238 71.4411 20.557C71.7098 20.6673 71.9377 20.782 72.1269 20.9002L71.6449 22.0438C71.1692 21.7439 70.6098 21.5019 69.9688 21.3167C69.2467 21.1078 68.4704 21.0038 67.6407 21.0038C67.069 21.0038 66.5413 21.0604 66.0597 21.1741C65.5739 21.2894 65.1495 21.4761 64.7896 21.7367C64.4738 21.9658 64.2161 22.2469 64.018 22.5793L63.9367 22.7248C63.7261 23.1275 63.6251 23.6061 63.6251 24.1526C63.6251 24.717 63.7306 25.2046 63.9512 25.6087C64.1675 26.0048 64.4682 26.3459 64.8516 26.631C65.2281 26.9115 65.6682 27.1637 66.1703 27.3888C66.5413 27.5551 66.9363 27.7262 67.3552 27.902L67.7819 28.0794C68.4765 28.3679 69.1329 28.6555 69.751 28.9433L69.9755 29.052C70.4902 29.3108 70.9424 29.6067 71.333 29.9391L71.4146 30.0104C71.8175 30.3726 72.142 30.8062 72.3879 31.3134ZM131.289 37.4664L131.4 37.428V17.7324L131.205 17.7682L129.413 18.0992V25.0155C129.118 24.8374 128.728 24.6562 128.247 24.4703C127.587 24.2152 126.813 24.0893 125.932 24.0893C125.02 24.0893 124.199 24.242 123.47 24.5506L123.325 24.6145C122.564 24.9648 121.919 25.4554 121.393 26.0868C120.901 26.6775 120.521 27.3705 120.254 28.1636L120.202 28.3236C119.933 29.183 119.799 30.1223 119.799 31.1395C119.799 32.2268 119.959 33.2073 120.281 34.0782C120.603 34.9475 121.056 35.6897 121.643 36.3025C122.229 36.9155 122.929 37.3831 123.741 37.7061L123.894 37.7648C124.666 38.0485 125.516 38.1896 126.442 38.1896C127.621 38.1896 128.601 38.1126 129.381 37.9567C130.15 37.803 130.786 37.6398 131.289 37.4664ZM146.317 28.5204C146.572 29.3099 146.701 30.1826 146.701 31.1395C146.701 32.1608 146.555 33.0854 146.264 33.9153C145.973 34.7475 145.567 35.4503 145.048 36.0267C144.528 36.6049 143.913 37.0544 143.203 37.3767C142.495 37.6974 141.711 37.8593 140.849 37.8593C139.985 37.8593 139.201 37.6974 138.494 37.3767C137.784 37.0544 137.169 36.6049 136.649 36.0267C136.13 35.4503 135.724 34.7475 135.433 33.9153C135.142 33.0854 134.996 32.1608 134.996 31.1395C134.996 30.1187 135.142 29.1939 135.433 28.3636L135.489 28.2091C135.775 27.4437 136.163 26.7875 136.65 26.2384C137.17 25.6525 137.784 25.1988 138.494 24.8768C139.201 24.5561 139.985 24.3945 140.849 24.3945C141.711 24.3945 142.495 24.5561 143.203 24.8768L143.334 24.9387C143.989 25.256 144.559 25.6891 145.047 26.2384C145.567 26.8241 145.973 27.5316 146.264 28.3636L146.317 28.5204ZM84.4458 27.4262C84.5723 27.944 84.6368 28.5014 84.6368 29.0994V37.2864C84.5329 37.3134 84.4067 37.3422 84.2578 37.3722L84.0323 37.4157C83.7109 37.4752 83.338 37.5388 82.9142 37.6064C82.4939 37.6733 82.0264 37.7283 81.5116 37.7706C80.9976 37.8125 80.4709 37.8338 79.9316 37.8338C79.2463 37.8338 78.6189 37.7585 78.0476 37.6096C77.4803 37.4616 76.9908 37.2281 76.5766 36.9115C76.1648 36.5966 75.8407 36.193 75.6053 35.6967L75.5628 35.6031C75.3572 35.1297 75.2518 34.553 75.2518 33.8679C75.2518 33.1749 75.3835 32.5905 75.6402 32.1095C75.8985 31.6242 76.2624 31.2239 76.7337 30.9069C77.207 30.5888 77.7741 30.3532 78.4377 30.204C79.104 30.0541 79.8311 29.9785 80.62 29.9785C80.8518 29.9785 81.0968 29.9912 81.3561 30.0162C81.6153 30.0413 81.8663 30.075 82.109 30.1166C82.3526 30.1587 82.5617 30.2008 82.7361 30.242C82.9144 30.2846 83.0214 30.3194 83.071 30.344L83.3094 30.462V29.3801C83.3094 28.9127 83.2745 28.4579 83.2055 28.0155L83.1745 27.8468C83.1049 27.5132 82.9872 27.2034 82.821 26.9181L82.7339 26.7774C82.487 26.4025 82.1403 26.1038 81.7019 25.8797C81.2537 25.6514 80.6771 25.5429 79.9822 25.5429C79.0098 25.5429 78.2681 25.6109 77.7693 25.7536C77.4098 25.8563 77.1199 25.9449 76.9012 26.02L76.7228 24.8903C76.994 24.7804 77.3877 24.6726 77.9102 24.5693C78.4998 24.4534 79.2158 24.3945 80.0587 24.3945C80.9109 24.3945 81.6235 24.5157 82.2022 24.7516C82.7847 24.9899 83.2509 25.3158 83.6055 25.7268C83.9625 26.1406 84.224 26.6331 84.3881 27.2068L84.4458 27.4262ZM116.108 27.2068C116.274 27.7856 116.357 28.416 116.357 29.0994V37.2864C116.204 37.3261 116.003 37.3696 115.753 37.4157C115.592 37.4455 115.419 37.4762 115.232 37.508L114.635 37.6064C114.215 37.6733 113.747 37.7283 113.232 37.7706C112.718 37.8125 112.191 37.8338 111.652 37.8338C110.967 37.8338 110.339 37.7585 109.769 37.6096C109.201 37.4616 108.711 37.2281 108.297 36.9115C107.911 36.6162 107.602 36.2431 107.371 35.7886L107.326 35.6967L107.283 35.6034C107.078 35.1299 106.972 34.5531 106.972 33.8679C106.972 33.1749 107.104 32.5905 107.361 32.1095C107.62 31.6241 107.983 31.2239 108.455 30.9069C108.928 30.5888 109.495 30.3532 110.158 30.204C110.825 30.0541 111.552 29.9785 112.34 29.9785C112.572 29.9785 112.818 29.9912 113.077 30.0162C113.336 30.0413 113.587 30.075 113.829 30.1166C114.073 30.1587 114.283 30.2008 114.457 30.242C114.635 30.2846 114.742 30.3194 114.792 30.344L115.03 30.462V29.3801C115.03 28.9128 114.995 28.458 114.926 28.0155L114.895 27.8468C114.814 27.4577 114.668 27.1008 114.455 26.7774L114.455 26.7771C114.207 26.4024 113.861 26.1038 113.423 25.8797C112.975 25.6513 112.398 25.5429 111.703 25.5429C110.791 25.5429 110.082 25.6024 109.586 25.7274L109.49 25.7536C109.131 25.8563 108.84 25.9449 108.622 26.02L108.443 24.8903C108.715 24.7804 109.108 24.6729 109.631 24.5697C110.221 24.4537 110.936 24.3945 111.78 24.3945C112.632 24.3945 113.344 24.5158 113.923 24.7516C114.505 24.9899 114.971 25.3157 115.326 25.7268L115.392 25.8052C115.716 26.2024 115.955 26.669 116.108 27.2068ZM168.331 27.2068C168.496 27.7856 168.579 28.416 168.579 29.0994V37.2864C168.426 37.3261 168.226 37.3696 167.975 37.4157C167.654 37.4752 167.281 37.5388 166.857 37.6064C166.437 37.6733 165.969 37.7283 165.454 37.7706C164.94 37.8125 164.414 37.8338 163.874 37.8338C163.189 37.8338 162.562 37.7585 161.99 37.6096C161.423 37.4616 160.933 37.2281 160.519 36.9115C160.107 36.5966 159.783 36.193 159.548 35.6967L159.505 35.6031C159.3 35.1297 159.195 34.553 159.194 33.8679C159.194 33.1749 159.326 32.5905 159.583 32.1095C159.841 31.6242 160.205 31.2239 160.676 30.9069C161.15 30.5888 161.717 30.3532 162.38 30.204C163.047 30.0541 163.774 29.9785 164.563 29.9785C164.795 29.9785 165.04 29.9912 165.299 30.0162C165.558 30.0413 165.809 30.075 166.052 30.1166L166.391 30.1798C166.496 30.2007 166.592 30.2214 166.679 30.242C166.857 30.2846 166.964 30.3194 167.014 30.344L167.252 30.462V29.3801C167.252 28.9127 167.217 28.4582 167.148 28.0159L167.148 28.0155C167.076 27.5601 166.92 27.1469 166.677 26.7774C166.43 26.4025 166.083 26.1038 165.645 25.8797C165.196 25.6514 164.62 25.5429 163.925 25.5429C162.952 25.5429 162.211 25.6109 161.712 25.7536C161.353 25.8563 161.063 25.9449 160.844 26.02L160.665 24.8903C160.937 24.7804 161.33 24.6726 161.853 24.5693C162.443 24.4534 163.158 24.3945 164.002 24.3945C164.853 24.3945 165.566 24.5158 166.145 24.7516C166.727 24.9899 167.194 25.3157 167.549 25.7268L167.614 25.8052C167.938 26.2024 168.177 26.6689 168.331 27.2068ZM90.5011 18.1289V34.5054C90.5011 34.8694 90.5306 35.18 90.594 35.4318L90.6234 35.5363C90.7062 35.8039 90.8342 36.026 91.0118 36.1935C91.188 36.3602 91.4132 36.4781 91.6805 36.5515C91.8932 36.6106 92.138 36.6616 92.4138 36.7073L92.2357 37.7764C91.8135 37.7557 91.4386 37.7023 91.1102 37.6164L90.9569 37.5732L90.8118 37.5248C90.4808 37.4052 90.2035 37.238 89.9763 37.0244C89.7178 36.7815 89.5182 36.4655 89.3818 36.0705L89.3334 35.918C89.2282 35.5498 89.174 35.0972 89.174 34.5563V18.374L90.5011 18.1289ZM95.7738 24.4984L95.7448 24.37H93.6412L93.6935 24.5758C94.0018 25.7864 94.3449 26.9793 94.7225 28.1555C95.0998 29.3309 95.4989 30.4808 95.9187 31.6053C96.3387 32.7293 96.7717 33.8117 97.2174 34.8508C97.6629 35.8902 98.109 36.8701 98.5555 37.7906L98.6007 37.8838H100.354L100.399 37.7883C100.827 36.8691 101.268 35.8904 101.722 34.8521C102.176 33.8126 102.614 32.7297 103.034 31.6053C103.454 30.4808 103.853 29.3308 104.229 28.1555C104.607 26.9793 104.95 25.7864 105.259 24.5758L105.311 24.37H103.308L103.279 24.4984C103.075 25.3959 102.825 26.3576 102.527 27.3833C102.229 28.4093 101.906 29.4268 101.558 30.4353C101.209 31.4445 100.848 32.4196 100.473 33.3605C100.151 34.1706 99.8354 34.9014 99.5268 35.5525C99.2181 34.9014 98.9025 34.1705 98.5803 33.3605C98.2061 32.4195 97.8441 31.4444 97.4958 30.4353C97.1469 29.4268 96.8239 28.4092 96.5264 27.3833C96.2286 26.3577 95.9778 25.3959 95.7738 24.4984ZM156.521 24.2448C156.026 24.1581 155.502 24.1148 154.949 24.1148C153.869 24.1148 152.944 24.2137 152.179 24.4135C151.427 24.61 150.831 24.8041 150.395 24.9961L150.296 25.0393V37.8838H152.284V26.2761C152.426 26.2225 152.665 26.1541 153.011 26.0729C153.427 25.975 153.987 25.9242 154.694 25.9242C155.369 25.9242 155.907 25.9624 156.309 26.0365C156.728 26.1132 156.982 26.1826 157.094 26.2384L157.281 26.3316L157.691 24.568L157.568 24.5122C157.359 24.4178 157.005 24.33 156.521 24.2448ZM152.262 24.7332C152.993 24.5426 153.888 24.4451 154.949 24.4451C155.485 24.4451 155.99 24.4872 156.463 24.5703C156.846 24.6376 157.124 24.7032 157.306 24.7648L157.05 25.8687C156.882 25.8156 156.653 25.7633 156.369 25.7113C155.938 25.6321 155.379 25.5939 154.694 25.5939C153.974 25.5939 153.386 25.6451 152.935 25.7513C152.504 25.8524 152.201 25.9416 152.045 26.0197L151.954 26.0652V37.5535H150.627V25.2565C151.031 25.0876 151.575 24.9128 152.262 24.7332ZM95.037 28.0546C94.6829 26.9516 94.3596 25.8337 94.0667 24.7003H95.4819C95.682 25.568 95.9238 26.4933 96.209 27.4755C96.4707 28.3779 96.7523 29.2737 97.0535 30.1627L97.1838 30.5433C97.5338 31.5571 97.8974 32.537 98.2735 33.4828C98.65 34.4291 99.0184 35.2708 99.3787 36.006L99.5268 36.3086L99.6752 36.006C100.036 35.2707 100.404 34.4291 100.78 33.4828C101.157 32.5368 101.52 31.557 101.87 30.5433C102.22 29.5296 102.545 28.5068 102.845 27.4755C103.13 26.4933 103.371 25.568 103.571 24.7003H104.885C104.592 25.8337 104.269 26.9516 103.915 28.0546C103.539 29.2251 103.143 30.3702 102.724 31.4898C102.306 32.6089 101.871 33.686 101.419 34.7196C100.982 35.72 100.556 36.6645 100.143 37.5535H98.8084C98.3793 36.665 97.9497 35.7211 97.521 34.7208C97.0774 33.6868 96.6464 32.6093 96.228 31.4898C95.8101 30.3702 95.4128 29.2251 95.037 28.0546ZM82.2887 31.2208C81.8631 31.1232 81.2879 31.0762 80.5687 31.0762C80.1527 31.0763 79.7199 31.1069 79.2719 31.1669C78.8117 31.2291 78.3853 31.3621 77.9935 31.5666C77.5965 31.7742 77.2696 32.0598 77.0163 32.4218C76.753 32.7981 76.6299 33.2849 76.6299 33.8679C76.6299 34.378 76.7128 34.8203 76.8879 35.1883C77.0612 35.5538 77.3096 35.8483 77.6322 36.0696C77.9495 36.2871 78.3267 36.4439 78.7602 36.5409C79.1911 36.6376 79.6753 36.6851 80.2119 36.6851C80.861 36.6851 81.4312 36.6637 81.9219 36.6206L81.9216 36.6202C82.4102 36.5779 82.8288 36.5221 83.1768 36.4525L83.3094 36.426V31.543L83.2126 31.4988C83.0096 31.4068 82.6988 31.3147 82.2887 31.2208ZM114.009 31.2208C113.584 31.1233 113.008 31.0763 112.29 31.0762C111.874 31.0762 111.441 31.1069 110.993 31.1669C110.532 31.2291 110.106 31.3623 109.714 31.5669C109.366 31.7485 109.073 31.9896 108.836 32.2895L108.737 32.4218C108.474 32.798 108.351 33.2848 108.351 33.8679C108.351 34.3782 108.434 34.8204 108.609 35.1883C108.782 35.5537 109.03 35.8483 109.353 36.0696C109.67 36.2872 110.047 36.4439 110.481 36.5409L110.645 36.5748C111.034 36.6486 111.463 36.6851 111.933 36.6851C112.582 36.6851 113.152 36.6637 113.643 36.6206L113.643 36.6202C114.131 36.5779 114.549 36.5221 114.897 36.4525L115.03 36.426V31.543L114.933 31.4988C114.73 31.4068 114.419 31.3147 114.009 31.2208ZM127.241 25.7123C126.872 25.633 126.486 25.5939 126.084 25.5939C125.302 25.5939 124.627 25.7238 124.066 25.991L123.955 26.0465C123.38 26.347 122.913 26.7505 122.558 27.2578C122.226 27.7304 121.982 28.2784 121.823 28.8985L121.792 29.0236C121.636 29.6917 121.559 30.3973 121.559 31.1395C121.559 32.8999 121.999 34.2762 122.904 35.2428C123.806 36.2075 125 36.6851 126.467 36.6851C127.287 36.6851 127.955 36.6467 128.468 36.5683C128.972 36.4913 129.362 36.4094 129.63 36.3196L129.743 36.2818V26.851L129.679 26.8013C129.519 26.6774 129.322 26.5461 129.089 26.4074L129.088 26.4071L128.997 26.3549C128.78 26.2334 128.534 26.1196 128.261 26.0132C127.985 25.9061 127.69 25.8157 127.376 25.7426L127.241 25.7123ZM143.829 27.3017C144.565 28.2421 144.942 29.5156 144.942 31.1395C144.942 32.7641 144.565 34.0328 143.83 34.9641C143.098 35.8908 142.11 36.3547 140.849 36.3547C139.586 36.3547 138.599 35.8908 137.867 34.9641C137.132 34.0329 136.755 32.7641 136.755 31.1395C136.755 29.5156 137.132 28.2421 137.868 27.3017C138.599 26.3667 139.587 25.8987 140.849 25.8987C142.11 25.8987 143.098 26.3667 143.829 27.3017ZM166.231 31.2208C165.806 31.1232 165.231 31.0763 164.511 31.0762C164.095 31.0762 163.663 31.1069 163.215 31.1669C162.754 31.2291 162.328 31.362 161.936 31.5666C161.539 31.7742 161.212 32.0598 160.959 32.4218C160.696 32.798 160.573 33.2849 160.573 33.8679C160.573 34.3781 160.656 34.8203 160.831 35.1883C161.004 35.5538 161.252 35.8483 161.575 36.0696C161.892 36.2871 162.269 36.4439 162.703 36.5409C163.134 36.6376 163.618 36.6851 164.155 36.6851C164.804 36.6851 165.374 36.6637 165.865 36.6206L165.864 36.6202C166.353 36.5779 166.771 36.5221 167.119 36.4525L167.252 36.426V31.543L167.155 31.4988C166.952 31.4068 166.641 31.3147 166.231 31.2208ZM90.9144 35.3502C90.8604 35.1357 90.8315 34.8553 90.8315 34.5054V17.7324L90.6363 17.7682L88.8437 18.0992V34.5563C88.8437 35.1566 88.9079 35.6708 89.0417 36.0951L89.0695 36.1789C89.2211 36.6176 89.4478 36.9809 89.7501 37.2651C90.0513 37.5481 90.4224 37.7551 90.8602 37.889C91.2939 38.0218 91.7981 38.0953 92.3696 38.1128L92.5138 38.1174L92.7673 36.598L92.7947 36.4325L92.6289 36.4076C92.293 36.3571 92.0065 36.2992 91.7689 36.2331L91.7683 36.2328C91.5422 36.1708 91.3684 36.076 91.2389 35.9534L91.2386 35.9531C91.1106 35.8326 91.0086 35.6635 90.9389 35.438L90.9144 35.3502ZM77.1338 34.926C77.0194 34.6358 76.9602 34.2845 76.9602 33.8679C76.9602 33.3291 77.0741 32.9153 77.287 32.6111C77.5093 32.2933 77.7951 32.0427 78.146 31.8592C78.502 31.6733 78.8916 31.5517 79.3161 31.4943L79.3157 31.494C79.7509 31.4357 80.1688 31.4066 80.5687 31.4066C81.2778 31.4066 81.8245 31.4533 82.2148 31.5427C82.5518 31.6199 82.8047 31.6926 82.979 31.7595V36.1525C82.673 36.2077 82.3113 36.2553 81.8929 36.2915C81.4144 36.3336 80.8543 36.3547 80.2119 36.3547C79.7588 36.3547 79.3505 36.3195 78.9861 36.2502L78.8325 36.2186L78.6857 36.1825C78.3498 36.0929 78.0615 35.9636 77.8189 35.7973C77.5463 35.6103 77.3355 35.3615 77.1863 35.0467L77.1338 34.926ZM108.907 35.0467C108.759 34.7347 108.681 34.3439 108.681 33.8679C108.681 33.3292 108.795 32.9154 109.008 32.6111C109.23 32.2933 109.516 32.043 109.867 31.8595C110.223 31.6737 110.612 31.5514 111.036 31.494C111.472 31.4357 111.89 31.4066 112.29 31.4066C112.998 31.4066 113.545 31.4533 113.936 31.5427C114.273 31.6199 114.526 31.6926 114.7 31.7595V36.1525C114.394 36.2077 114.032 36.2553 113.614 36.2915C113.136 36.3336 112.575 36.3547 111.933 36.3547C111.479 36.3547 111.071 36.3195 110.707 36.2502L110.553 36.2186C110.204 36.1404 109.902 36.022 109.646 35.8663L109.54 35.7973L109.441 35.7241C109.248 35.5723 109.089 35.3856 108.966 35.1618L108.907 35.0467ZM161.076 34.926C160.962 34.6358 160.903 34.2845 160.903 33.8679C160.903 33.3291 161.017 32.9153 161.23 32.6111C161.452 32.2933 161.738 32.043 162.089 31.8595C162.445 31.6737 162.834 31.5514 163.258 31.494C163.694 31.4357 164.111 31.4066 164.511 31.4066C165.22 31.4066 165.767 31.4533 166.158 31.5427C166.495 31.6199 166.747 31.6926 166.922 31.7595V36.1525C166.616 36.2077 166.254 36.2553 165.836 36.2915C165.357 36.3336 164.797 36.3547 164.155 36.3547C163.702 36.3547 163.293 36.3195 162.929 36.2502L162.775 36.2186C162.376 36.1293 162.039 35.9873 161.762 35.7973C161.489 35.6103 161.278 35.3615 161.129 35.0467L161.076 34.926ZM120.591 33.9634C120.285 33.1352 120.13 32.1946 120.129 31.1395C120.129 30.151 120.259 29.2453 120.518 28.422C120.775 27.5988 121.152 26.8918 121.647 26.2984L121.741 26.1887C122.217 25.6485 122.791 25.2244 123.463 24.9148L123.463 24.9145C124.178 24.5861 124.999 24.4197 125.932 24.4197C126.783 24.4197 127.514 24.5413 128.128 24.7784C128.762 25.0234 129.207 25.2505 129.478 25.4568L129.743 25.6594V18.374L131.07 18.1289V37.1909C130.604 37.3442 130.02 37.4921 129.316 37.6328C128.566 37.7829 127.608 37.8593 126.442 37.8593C125.49 37.8593 124.632 37.7047 123.863 37.3993C123.094 37.0933 122.434 36.6515 121.882 36.0741L121.78 35.9644C121.276 35.4088 120.879 34.7426 120.591 33.9634ZM123.145 35.0173C122.316 34.1314 121.889 32.8473 121.889 31.1395C121.889 30.4203 121.964 29.7401 122.114 29.0988C122.263 28.4624 122.502 27.9128 122.828 27.4478C123.152 26.986 123.578 26.6166 124.108 26.3391C124.631 26.0656 125.287 25.9242 126.084 25.9242C126.464 25.9242 126.827 25.9615 127.172 26.0355C127.521 26.1101 127.844 26.2059 128.141 26.3213C128.44 26.4376 128.699 26.5611 128.92 26.6913C129.114 26.8067 129.278 26.9149 129.413 27.0149V36.0409C129.175 36.1093 128.845 36.1766 128.418 36.2418C127.928 36.3167 127.279 36.3547 126.467 36.3547C125.078 36.3547 123.976 35.9064 123.145 35.0173ZM144.089 35.1686C144.884 34.1622 145.272 32.8134 145.272 31.1395C145.272 29.5183 144.907 28.198 144.163 27.1942L144.09 27.0981L144.014 27.0039C143.223 26.0468 142.163 25.5684 140.849 25.5684C139.492 25.5684 138.406 26.0782 137.607 27.0981C136.813 28.1132 136.425 29.4661 136.425 31.1395C136.425 32.8134 136.813 34.1621 137.608 35.1686C138.406 36.1801 139.492 36.6851 140.849 36.6851C142.204 36.6851 143.291 36.1801 144.089 35.1686ZM146.576 34.0244C146.88 33.1546 147.032 32.1925 147.032 31.1395C147.032 30.0871 146.88 29.1247 146.576 28.2546C146.272 27.3868 145.845 26.6407 145.294 26.0194C144.743 25.399 144.091 24.917 143.339 24.5758C142.585 24.2339 141.753 24.0642 140.849 24.0642C139.943 24.0642 139.112 24.2338 138.358 24.5758C137.605 24.9171 136.953 25.399 136.403 26.0194C135.851 26.6407 135.425 27.3867 135.121 28.2546C134.816 29.1248 134.665 30.0871 134.665 31.1395C134.665 32.1924 134.816 33.1545 135.121 34.0244C135.425 34.8927 135.852 35.6349 136.403 36.2476L136.508 36.3609C137.036 36.919 137.653 37.358 138.358 37.6777L138.5 37.7399C139.216 38.0404 140 38.1896 140.849 38.1896C141.753 38.1896 142.585 38.0196 143.339 37.6777L143.479 37.6122C144.171 37.2766 144.777 36.8217 145.293 36.2476C145.845 35.6349 146.272 34.8927 146.576 34.0244ZM84.8494 37.5706L84.9671 37.5351V29.0994C84.9671 28.3889 84.8796 27.7277 84.7055 27.1162C84.5294 26.5001 84.2463 25.9639 83.8555 25.511C83.4623 25.0553 82.9509 24.701 82.3271 24.4458L82.2074 24.3993C81.6028 24.1744 80.8854 24.0642 80.0587 24.0642C79.2017 24.0642 78.4631 24.1242 77.8464 24.2455C77.2395 24.3654 76.777 24.496 76.4695 24.6406L76.3576 24.6932L76.6379 26.471L76.8286 26.3978C77.0424 26.3156 77.385 26.2069 77.8602 26.071C78.3133 25.9415 79.0171 25.8732 79.9822 25.8732C80.6467 25.8732 81.1664 25.9775 81.5519 26.1739C81.9459 26.3753 82.2464 26.6376 82.4581 26.9591C82.647 27.2462 82.7782 27.5641 82.8513 27.9146L82.879 28.0668C82.9454 28.4918 82.979 28.9293 82.979 29.3801V29.9636C82.9284 29.9494 82.8728 29.9351 82.8129 29.9207L82.8126 29.9204C82.6298 29.8772 82.4132 29.8341 82.1648 29.7911C81.9141 29.7481 81.6552 29.713 81.388 29.6872C81.1195 29.6613 80.8637 29.6482 80.62 29.6482C79.8101 29.6482 79.0584 29.7257 78.3651 29.8817C77.6683 30.0384 77.062 30.2882 76.5496 30.6327C76.0347 30.9789 75.6335 31.4194 75.3489 31.954C75.0612 32.493 74.9215 33.1333 74.9215 33.8679C74.9215 34.5855 75.0318 35.2095 75.2598 35.7347L75.3069 35.8386C75.5638 36.3801 75.9205 36.8255 76.376 37.1738C76.8286 37.5198 77.3592 37.7714 77.9644 37.9293C78.5665 38.0862 79.2222 38.1641 79.9316 38.1641C80.4796 38.1641 81.0152 38.1426 81.5384 38.0999C82.0601 38.0571 82.5362 38.001 82.9661 37.9325C83.3919 37.8646 83.7675 37.8007 84.0923 37.7406L84.3223 37.6964C84.5389 37.6528 84.7152 37.611 84.8494 37.5706ZM116.57 37.5706L116.687 37.5351V29.0994C116.687 28.4778 116.621 27.8938 116.487 27.3478L116.426 27.1162C116.261 26.5385 116.002 26.0312 115.648 25.5968L115.576 25.511C115.183 25.0553 114.672 24.7013 114.048 24.4461L114.047 24.4458C113.419 24.1895 112.661 24.0642 111.78 24.0642C110.922 24.0642 110.184 24.1242 109.567 24.2455C108.96 24.3654 108.498 24.4961 108.19 24.6406L108.078 24.6932L108.359 26.471L108.55 26.3978C108.763 26.3157 109.106 26.2068 109.581 26.071C110.034 25.9415 110.738 25.8732 111.703 25.8732C112.368 25.8732 112.887 25.9775 113.273 26.1739L113.416 26.2523C113.74 26.4417 113.993 26.6778 114.179 26.9591C114.368 27.2461 114.499 27.5639 114.572 27.9146L114.6 28.0668C114.666 28.4917 114.7 28.9292 114.7 29.3801V29.9636C114.649 29.9494 114.594 29.9351 114.534 29.9207C114.351 29.8775 114.135 29.8341 113.886 29.7911C113.635 29.7481 113.376 29.713 113.108 29.6872C112.84 29.6613 112.584 29.6482 112.34 29.6482C111.531 29.6482 110.779 29.7257 110.086 29.8817C109.389 30.0384 108.783 30.2882 108.271 30.6327C107.756 30.979 107.354 31.4194 107.069 31.954C106.782 32.493 106.642 33.1333 106.642 33.8679C106.642 34.5856 106.753 35.2096 106.981 35.7347L107.028 35.8386C107.285 36.38 107.641 36.8255 108.096 37.1738C108.549 37.5198 109.08 37.7714 109.685 37.9293C110.287 38.0863 110.943 38.1641 111.652 38.1641C112.2 38.1641 112.736 38.1426 113.259 38.0999L113.642 38.0651C114.016 38.0281 114.365 37.9839 114.687 37.9325C115.113 37.8647 115.488 37.8003 115.813 37.7403C116.137 37.6805 116.391 37.6244 116.57 37.5706ZM168.792 37.5706L168.91 37.5351V29.0994C168.91 28.4777 168.843 27.8938 168.71 27.3478L168.648 27.1162C168.483 26.5386 168.224 26.0311 167.871 25.5968L167.799 25.511C167.405 25.0553 166.894 24.7013 166.27 24.4461L166.269 24.4458C165.641 24.1895 164.883 24.0642 164.002 24.0642C163.144 24.0642 162.406 24.1242 161.789 24.2455C161.182 24.3654 160.72 24.496 160.412 24.6406L160.3 24.6932L160.319 24.8158L160.581 26.471L160.771 26.3978C160.985 26.3156 161.328 26.2069 161.803 26.071C162.256 25.9415 162.96 25.8732 163.925 25.8732C164.589 25.8732 165.109 25.9775 165.495 26.1739L165.638 26.2523C165.962 26.4418 166.216 26.6778 166.401 26.9591C166.59 27.2462 166.721 27.5641 166.794 27.9146L166.822 28.0668C166.888 28.4918 166.922 28.9293 166.922 29.3801V29.9636C166.871 29.9494 166.816 29.9351 166.756 29.9207L166.755 29.9204C166.572 29.8772 166.356 29.8341 166.108 29.7911C165.857 29.7481 165.598 29.713 165.33 29.6872C165.062 29.6613 164.806 29.6482 164.563 29.6482C163.753 29.6482 163.001 29.7257 162.308 29.8817C161.611 30.0384 161.005 30.2882 160.492 30.6327C159.977 30.9789 159.576 31.4194 159.292 31.954C159.004 32.493 158.864 33.1333 158.864 33.8679C158.864 34.5855 158.975 35.2095 159.203 35.7347L159.25 35.8386C159.506 36.3801 159.863 36.8255 160.319 37.1738C160.771 37.5198 161.302 37.7714 161.907 37.9293C162.509 38.0862 163.165 38.1641 163.874 38.1641C164.422 38.1641 164.958 38.1426 165.481 38.0999L165.864 38.0651C166.238 38.0281 166.587 37.9839 166.909 37.9325C167.335 37.8647 167.71 37.8007 168.035 37.7406C168.359 37.6808 168.613 37.6244 168.792 37.5706ZM64.2412 25.4506C64.0535 25.1069 63.9554 24.6768 63.9554 24.1526C63.9554 23.6461 64.0492 23.2228 64.2296 22.8777L64.3016 22.7487C64.4768 22.4546 64.704 22.2069 64.9835 22.0041L65.1064 21.9203C65.4001 21.7311 65.7424 21.5891 66.1358 21.4957C66.589 21.3888 67.0905 21.3341 67.6407 21.3341C68.4427 21.3341 69.1878 21.4344 69.8768 21.6338C70.5687 21.8337 71.1512 22.0992 71.6269 22.427L71.794 22.5422L72.4849 20.9018L72.5369 20.778L72.4266 20.7018C72.1929 20.5404 71.9058 20.3907 71.5665 20.2515C71.2279 20.1125 70.8555 19.9875 70.4514 19.875C70.1463 19.7908 69.8249 19.719 69.4871 19.6592L69.1436 19.6034C68.6767 19.5345 68.2008 19.4996 67.7171 19.4996C65.9099 19.4996 64.4754 19.8953 63.4338 20.7073C62.3827 21.5269 61.8654 22.727 61.8654 24.28C61.8654 24.9602 61.9741 25.5616 62.1976 26.0794L62.2405 26.1752C62.4605 26.6513 62.7701 27.0753 63.1673 27.4478C63.5877 27.842 64.0932 28.1936 64.6822 28.5036C65.2657 28.8108 65.9254 29.1086 66.66 29.3972C67.2381 29.6338 67.7911 29.8579 68.3187 30.0691L68.5091 30.1485C68.9469 30.3386 69.3388 30.5606 69.6849 30.8137C70.0741 31.0979 70.3856 31.447 70.6204 31.8605C70.8492 32.2637 70.9691 32.7747 70.9691 33.4018C70.9691 34.4851 70.6034 35.2394 69.8959 35.7044C69.1682 36.1826 68.1337 36.4312 66.7735 36.4312C66.1859 36.4312 65.6516 36.3894 65.1696 36.306C64.6828 36.2222 64.2485 36.1177 63.8667 35.9931C63.4801 35.8672 63.1473 35.7381 62.866 35.6057C62.5791 35.4708 62.3555 35.3543 62.1925 35.2563L62.0218 35.1541L61.3915 36.8444L61.3438 36.9731L61.4612 37.0438C61.6391 37.1509 61.8846 37.2734 62.1928 37.4103C62.5078 37.5507 62.8897 37.6846 63.3367 37.8135C63.7866 37.943 64.2956 38.0504 64.8619 38.1364L65.0787 38.1667C65.5906 38.2328 66.1471 38.2658 66.7481 38.2658C68.6731 38.2658 70.2197 37.8624 71.3704 37.0364C72.5345 36.2012 73.1095 34.9482 73.1095 33.3069C73.1095 32.4735 72.9705 31.7586 72.685 31.1695C72.4034 30.5886 72.0239 30.0942 71.5472 29.6875C71.0753 29.2859 70.5224 28.9384 69.8904 28.6439C69.2674 28.3538 68.6066 28.0641 67.9081 27.7739H67.9074C67.4747 27.596 67.0663 27.4226 66.6819 27.2542L66.3055 27.0875L66.1271 27.0049C65.7763 26.8377 65.4624 26.6574 65.1848 26.4639L65.049 26.3662L64.9222 26.2668C64.6354 26.0304 64.4092 25.7583 64.2412 25.4506Z" fill="#02A04B"/>
<path fill-rule="evenodd" clip-rule="evenodd" d="M13.5977 0.000211132L13.5945 0H12.1499C8.83433 0.130241 6.34338 1.16011 4.50758 2.84564C2.67334 4.52976 1.5021 6.86017 0.809389 9.57674C0.445975 11.0006 0.277468 12.7152 0.473056 14.3137C0.643186 15.7057 1.05809 17.0321 1.51732 18.1713L1.60958 18.3968C2.2746 19.9929 3.06359 21.4573 3.84749 22.9123C4.2713 23.6989 4.69367 24.4829 5.09411 25.2833C6.23818 27.5701 7.21581 30.0124 7.58145 33.0983C8.30778 39.2268 9.30054 45.1352 11.4135 50.0155C11.9097 51.162 12.5532 52.3096 13.3534 53.2988C14.127 54.2552 15.1825 55.1748 16.6076 55.3411L16.6137 55.3417H17.2445L17.2538 55.3403C19.519 54.9391 20.9052 53.4691 22.1171 52.0441C22.3572 51.7617 22.5851 51.4673 22.807 51.1685L22.8115 51.1626L22.8151 51.1558C22.9786 50.8565 23.0941 50.3941 23.1803 49.8185C23.267 49.2397 23.3257 48.534 23.3697 47.7404C23.4237 46.7671 23.4557 45.6556 23.4898 44.477L23.4898 44.4768C23.5112 43.7352 23.5334 42.9669 23.5623 42.1901L23.5635 42.1557L23.5447 42.127C23.1315 41.4942 21.4631 38.9292 20.61 37.4295L20.5604 37.3423L20.4698 37.3852C20.1868 37.5194 19.7863 37.5853 19.3242 37.5999C18.8644 37.6144 18.3539 37.5782 17.8573 37.5156C16.924 37.3981 16.0528 37.1894 15.6744 37.06L15.6053 37.0353C14.0941 36.4589 12.875 34.9249 11.9532 33.1969C11.0649 31.5319 10.4638 29.7076 10.1471 28.4471C12.4225 28.4053 15.0981 28.9927 17.2127 30.2747C19.3658 31.58 20.9287 33.5982 20.9138 36.4028L20.9079 36.6327L20.9356 36.6644L20.9874 36.7239L20.9887 36.7255C21.3107 37.0953 21.6031 37.4312 21.84 37.7055C22.378 38.3251 22.9557 38.8864 23.4765 39.3521L23.6501 39.5075L23.6566 39.2746C23.7248 36.82 23.7699 34.2221 23.7839 31.7401V31.6774L23.7664 31.6506C23.4733 31.2025 22.1594 29.1823 21.6243 28.2003C21.6183 28.189 21.6115 28.1764 21.6045 28.164C21.6012 28.158 21.5978 28.1522 21.5945 28.1464L21.5506 28.0709L21.4676 28.0981C21.0752 28.2264 20.4467 28.2026 19.8493 28.1209C19.2555 28.0397 18.7196 27.9055 18.5238 27.831C17.5784 27.4704 16.8103 26.5077 16.2263 25.4129C15.6755 24.3806 15.299 23.2509 15.0954 22.4552C16.5224 22.4384 18.1898 22.8104 19.5094 23.6103C20.8673 24.4334 21.8483 25.7026 21.8392 27.4649L21.8314 27.7542C21.8312 27.7551 21.8309 27.7561 21.8307 27.7573C21.8304 27.7586 21.8302 27.7599 21.8299 27.7614C21.8289 27.7662 21.8279 27.7723 21.8274 27.7791L21.8236 27.8245L21.8534 27.8589C21.9589 27.9805 22.0606 28.0975 22.1567 28.2081L22.1581 28.2097L22.1583 28.2099C22.2978 28.3704 22.4255 28.5173 22.5359 28.6451C22.8958 29.0609 23.2818 29.4366 23.6321 29.7511L23.807 29.9079L23.8124 29.6731C23.8457 28.2571 23.9033 27.1148 23.9712 26.1947L23.9748 26.1443L23.9385 26.109C23.0239 25.2217 22.8149 24.0303 23.0207 22.842C23.2184 21.7 23.7982 20.5721 24.4857 19.751C24.8645 20.2733 25.3522 21.0566 25.6976 21.8948C26.0699 22.7981 26.2673 23.7419 26.0152 24.4901C25.9705 24.6217 25.8269 24.9288 25.629 25.2683C25.4313 25.6074 25.1858 25.9676 24.9409 26.2099L24.9053 26.2452L24.9093 26.2952C25.0154 27.6359 25.0944 29.4259 25.0974 31.8009L25.1006 32.3193L25.1035 32.5555L25.2804 32.3989C25.655 32.0669 26.0793 31.6598 26.4723 31.2064L27.1686 30.4062L27.1963 30.3743L27.1952 30.3321L27.1899 30.1545C27.181 28.3927 28.1621 27.1237 29.52 26.3005C30.8395 25.5007 32.5068 25.1283 33.9337 25.145C33.7301 25.9404 33.3538 27.0699 32.8031 28.1021C32.219 29.1968 31.4508 30.1596 30.5053 30.5202C30.3033 30.5971 29.7391 30.7374 29.1237 30.8175C28.8171 30.8574 28.5011 30.8819 28.2141 30.8766C27.9252 30.8712 27.6743 30.8356 27.4929 30.7613L27.4038 30.7248L27.3574 30.8092C27.0472 31.3723 26.504 32.2452 26.0369 32.9795C25.8037 33.3461 25.5898 33.6774 25.4344 33.9171C25.3604 34.0312 25.2995 34.1245 25.2562 34.1909L25.135 34.0645L25.1443 34.347C25.254 37.621 25.5546 41.1461 25.9706 44.1427L25.9977 44.3373L26.1476 44.2102C26.833 43.629 27.6749 42.8513 28.4424 41.9661L29.167 41.1313L29.1657 41.0893L29.1579 40.7981C29.143 37.9945 30.7055 35.9765 32.8586 34.6713C34.9732 33.3894 37.6489 32.8019 39.9242 32.8435C39.6078 34.1039 39.0072 35.9284 38.1188 37.5933C37.1967 39.3213 35.977 40.8553 34.4655 41.4309C34.1538 41.55 33.3162 41.7601 32.3878 41.889C31.4561 42.0184 30.4592 42.062 29.8189 41.8643L29.7366 41.8388L29.6935 41.9133C28.6162 43.7685 26.6659 46.749 26.4742 47.04L26.4499 47.0768L26.4584 47.12C26.7974 48.8652 27.1823 50.2388 27.5923 50.9525C27.6153 50.9932 27.635 51.0326 27.6565 51.075L27.6608 51.0832L27.6665 51.0908C27.9095 51.416 28.1583 51.7367 28.4196 52.0441C29.6307 53.4675 31.0193 54.9406 33.2824 55.3403L33.2916 55.3417H33.9242L33.9314 55.3409C35.3666 55.145 36.3926 54.2911 37.183 53.3256C37.972 52.3597 38.5835 51.1744 39.0967 50.0164C41.2216 45.2218 42.2345 39.1791 42.955 33.0983C43.319 30.0267 44.2957 27.587 45.4398 25.2979C45.8394 24.4981 46.261 23.7143 46.6842 22.9274L46.6845 22.9269C47.4694 21.4674 48.2599 19.9975 48.9268 18.3966C49.4192 17.2144 49.8814 15.8014 50.0636 14.3137C50.2479 12.8059 50.1102 11.2125 49.7927 9.84678L49.727 9.57674C49.0343 6.8594 47.8703 4.53248 46.0396 2.85028C44.2073 1.16666 41.7162 0.137306 38.3865 0H36.9417L36.9385 0.000211132C32.3253 0.269487 28.6774 1.50461 25.2686 2.96831C21.8592 1.50461 18.211 0.270138 13.5977 0.000211132ZM38.382 0.1081C44.999 0.380943 48.2433 4.1947 49.6222 9.60357C49.983 11.0156 50.151 12.7075 49.9562 14.3005C49.7757 15.7752 49.3171 17.1783 48.827 18.3551C48.162 19.9516 47.3762 21.4124 46.5931 22.8683C44.962 25.9007 43.3422 28.9121 42.8476 33.0856C42.1272 39.1658 41.1156 45.1941 38.9979 49.9725C38.486 51.1277 37.8791 52.3025 37.0993 53.2572C36.3175 54.2122 35.3139 55.043 33.9168 55.2337H33.3011C31.079 54.8413 29.7122 53.3965 28.5019 51.9741C28.2427 51.669 27.9953 51.3504 27.753 51.0261L27.7482 51.0166L27.7437 51.0077C27.7256 50.9721 27.7072 50.9363 27.6864 50.8994C27.2862 50.2034 26.9039 48.8463 26.5645 47.0995C26.7561 46.8087 28.7079 43.8258 29.787 41.9675C31.1172 42.3783 33.8593 41.7784 34.5042 41.5319C37.6032 40.3517 39.4455 35.2764 40.0621 32.7384C35.419 32.6018 29.0175 35.0954 29.0497 40.8011L29.0577 41.0921C28.7983 41.3901 28.5618 41.6629 28.3607 41.8953C27.5979 42.775 26.7604 43.5488 26.0776 44.1278C25.6621 41.1352 25.362 37.6137 25.2524 34.3433L25.2723 34.364C25.2723 34.364 26.8281 31.9943 27.452 30.8614C28.2507 31.1885 30.118 30.7833 30.5439 30.6212C32.5109 29.871 33.6796 26.6502 34.0716 25.0398C31.1246 24.9535 27.0616 26.5354 27.0819 30.1576L27.0871 30.3351C26.8559 30.6 26.6438 30.8441 26.4671 31.0476L26.3907 31.1355C26.0018 31.5843 25.581 31.988 25.2087 32.3179C25.2066 32.1445 25.2059 31.9713 25.2055 31.8008C25.2025 29.4234 25.1233 27.6307 25.017 26.2868C25.5268 25.7822 26.0214 24.808 26.1176 24.5248C26.648 22.9513 25.2755 20.6245 24.4922 19.5773C23.0182 21.26 21.9679 24.3479 23.8633 26.1867C23.7952 27.1088 23.7377 28.2529 23.7044 29.6705C23.3563 29.3581 22.9737 28.9858 22.6176 28.5744C22.5054 28.4446 22.3755 28.2951 22.2336 28.1319C22.157 28.0437 22.077 27.9516 21.9943 27.8564C21.9747 27.8338 21.9549 27.811 21.935 27.7881C21.9354 27.7834 21.9364 27.7791 21.9374 27.7749C21.9381 27.772 21.9387 27.7693 21.9391 27.7665L21.9474 27.4679C21.9679 23.8448 17.9047 22.2636 14.9576 22.3498C15.3496 23.9609 16.5184 27.1819 18.4854 27.9321C18.8985 28.0893 20.6649 28.4743 21.5011 28.2008C21.5104 28.2168 21.5202 28.2348 21.5286 28.2508C22.0658 29.2371 23.3836 31.2629 23.6759 31.7097V31.7396C23.6618 34.2207 23.6166 36.8177 23.5485 39.2715C23.0301 38.808 22.4559 38.25 21.9216 37.6347C21.6819 37.3572 21.3857 37.0169 21.0596 36.6423L21.0171 36.5935L21.0218 36.4056C21.0538 30.6984 14.6526 28.2049 10.0095 28.342C10.6267 30.8802 12.4683 35.9546 15.5669 37.1363C16.2518 37.3966 19.3039 38.0578 20.5161 37.4829C21.3712 38.9861 23.0415 41.5542 23.4543 42.1861C23.4253 42.9654 23.4031 43.7347 23.3817 44.4767C23.2923 47.5728 23.2166 50.1957 22.7203 51.1041C22.4991 51.4018 22.2727 51.6941 22.0347 51.9741C20.8238 53.398 19.4593 54.8398 17.2351 55.2337H16.62C15.2363 55.0722 14.204 54.1787 13.4373 53.2309C12.6447 52.251 12.0061 51.1123 11.5127 49.9725C9.40651 45.1078 8.41502 39.2131 7.6888 33.0856C7.19184 28.8914 5.57003 25.8813 3.9391 22.8543C3.15693 21.4026 2.37266 19.9471 1.70938 18.3551C1.21645 17.1727 0.760265 15.7724 0.580387 14.3005C0.386673 12.7173 0.553576 11.0164 0.914197 9.60357C2.2929 4.19664 5.56594 0.36689 12.1542 0.1081H13.5913C18.2067 0.378132 21.8531 1.61695 25.2686 3.08603C28.6835 1.61695 32.3297 0.377484 36.9449 0.1081H38.382ZM11.8541 0.230767C8.73402 0.408688 6.39013 1.4105 4.65368 3.00483C2.85969 4.652 1.70504 6.94006 1.01904 9.63037C0.661227 11.0323 0.495949 12.7194 0.687777 14.2873C0.854925 15.655 1.26303 16.9626 1.71768 18.0904L1.8091 18.3136L1.9058 18.5425C2.54589 20.0407 3.28778 21.4175 4.03045 22.7956C4.45553 23.5845 4.88086 24.3738 5.2875 25.1866C6.43773 27.4857 7.42652 29.9532 7.79617 33.073C8.52227 39.1995 9.51252 45.0805 11.612 49.9296C12.1025 51.0627 12.7364 52.1924 13.5214 53.1629C14.2799 54.1006 15.2871 54.9669 16.6261 55.1255H17.2253C19.4033 54.7365 20.7441 53.3249 21.9524 51.9041C22.1867 51.6285 22.4098 51.3403 22.6286 51.0458C22.7711 50.7816 22.8816 50.3541 22.9667 49.7864C23.0519 49.2175 23.1101 48.5197 23.1539 47.7285C23.2077 46.7576 23.2397 45.6519 23.2736 44.4763L23.2736 44.4758C23.2947 43.7444 23.3166 42.986 23.345 42.2163C22.9112 41.5518 21.3275 39.114 20.4704 37.6202C20.1588 37.7452 19.7603 37.8023 19.3312 37.8159C18.8564 37.8309 18.3337 37.7936 17.8302 37.7302C16.8883 37.6115 16.0001 37.4004 15.6015 37.2638L15.5285 37.2374C13.9412 36.632 12.6902 35.0379 11.7623 33.2987C10.8321 31.555 10.2147 29.6428 9.90454 28.3675L9.87287 28.2379L10.0063 28.2339C12.3456 28.1648 15.1278 28.7578 17.3248 30.0897C19.5245 31.4233 21.1463 33.5046 21.13 36.4061L21.1298 36.4083L21.126 36.5541L21.2149 36.6563L21.2186 36.6605L21.2191 36.6611C21.5144 37.0003 21.7827 37.3085 22.0033 37.5638C22.4747 38.1068 22.9781 38.6054 23.4466 39.0335C23.511 36.6508 23.5539 34.1418 23.5675 31.7414C23.2465 31.2501 21.986 29.3094 21.4482 28.3287C21.0064 28.4443 20.3804 28.4116 19.8199 28.335C19.2182 28.2527 18.6643 28.1158 18.4469 28.0331C17.4254 27.6435 16.6255 26.6207 16.0354 25.5147C15.443 24.4042 15.0501 23.1871 14.8526 22.3754L14.821 22.2457L14.9544 22.2417C16.4456 22.1981 18.2194 22.5756 19.6213 23.4253C21.0259 24.2767 22.0659 25.609 22.0554 27.4685V27.4708L22.0476 27.7527C22.1359 27.8544 22.2215 27.9529 22.3032 28.047C22.3041 28.048 22.3049 28.0489 22.3057 28.0499C22.4514 28.2175 22.5847 28.371 22.6994 28.5037L22.8326 28.6544C23.0866 28.9362 23.3504 29.1974 23.6024 29.431C23.6357 28.1451 23.689 27.091 23.7519 26.2279C22.8024 25.2805 22.5963 24.0254 22.8077 22.805C23.0214 21.5709 23.6625 20.3605 24.411 19.5061L24.4988 19.4056L24.5789 19.5126C24.9743 20.0414 25.5185 20.8927 25.8976 21.8125C26.2747 22.7277 26.4981 23.734 26.22 24.5593C26.1685 24.7109 26.0167 25.0327 25.8159 25.3772C25.6238 25.7067 25.3805 26.0673 25.1282 26.3275C25.2263 27.5843 25.3007 29.2264 25.3121 31.3614L25.3136 31.8007C25.3138 31.892 25.3147 31.9839 25.3153 32.076C25.6377 31.7813 25.985 31.4387 26.3091 31.0647L26.9777 30.296L26.9737 30.1609V30.1583C26.9633 28.2993 28.0033 26.967 29.4079 26.1156C30.8098 25.2658 32.5835 24.8881 34.0747 24.9317L34.2082 24.9356L34.1767 25.0654C33.9792 25.8768 33.5861 27.0936 32.9937 28.2039C32.4221 29.2752 31.6537 30.2686 30.6776 30.6838L30.5824 30.7223C30.3585 30.8075 29.776 30.9508 29.1518 31.032C28.8385 31.0728 28.5111 31.0984 28.2101 31.0928C27.9507 31.088 27.7042 31.0596 27.5011 30.994C27.1819 31.5638 26.6646 32.3957 26.2194 33.0956C25.9857 33.4629 25.7714 33.7949 25.6157 34.0349C25.5693 34.1064 25.5281 34.1698 25.4931 34.2235C25.4827 34.2395 25.4728 34.2546 25.4636 34.2689C25.4517 34.2871 25.4407 34.3039 25.4308 34.3191C25.4089 34.3526 25.3919 34.3787 25.3803 34.3964L25.3672 34.4164L25.3638 34.4215L25.3634 34.4219C25.4727 37.5939 25.7606 40.9956 26.1581 43.9159C26.8083 43.3555 27.5761 42.635 28.2789 41.8244C28.4729 41.6002 28.6998 41.3384 28.9484 41.0527L28.9417 40.804V40.8017C28.9253 37.9009 30.547 35.82 32.7467 34.4865C34.9437 33.1547 37.7259 32.5614 40.0652 32.6303L40.1986 32.6343L40.1672 32.7639C39.8573 34.0391 39.2398 35.9515 38.3094 37.6951C37.3814 39.4343 36.1302 41.0281 34.5426 41.6327L34.5428 41.6329C34.2096 41.7603 33.3538 41.9733 32.4176 42.1033C31.5209 42.2278 30.5261 42.2795 29.8375 42.0943C28.7851 43.8974 26.9693 46.6793 26.679 47.1215C27.0165 48.8486 27.3931 50.1726 27.78 50.8455L27.7805 50.8461C27.8044 50.8884 27.825 50.9295 27.8444 50.9679C28.0845 51.289 28.3288 51.6035 28.5842 51.9041L28.8127 52.1703C29.9632 53.4965 31.2712 54.7623 33.3109 55.1255H33.9092C35.2645 54.9382 36.2438 54.1316 37.0156 53.1888L37.1581 53.0094C37.8611 52.0998 38.4203 51.009 38.8991 49.9287C41.0096 45.1665 42.0199 39.1525 42.7402 33.073C43.1083 29.9674 44.0963 27.5025 45.2464 25.2012C45.6524 24.3888 46.0771 23.5992 46.5018 22.8098C47.2831 21.3574 48.0641 19.9057 48.7273 18.3136C49.2152 17.1423 49.6699 15.749 49.8488 14.2873C50.0417 12.7097 49.8754 11.0314 49.5174 9.63037C48.8312 6.93895 47.6836 4.65456 45.8933 3.00948C44.1603 1.41715 41.8165 0.415653 38.6831 0.231401L38.3776 0.216199H36.948C32.3516 0.484954 28.7192 1.71926 25.3113 3.18535L25.2686 3.20372L25.226 3.18535C21.8174 1.71927 18.1848 0.485607 13.5882 0.216199H12.1584L11.8541 0.230767Z" fill="#02A04B"/>
<path fill-rule="evenodd" clip-rule="evenodd" d="M49.6222 9.60357C48.2433 4.1947 44.999 0.380943 38.382 0.1081H36.9449C32.3297 0.377484 28.6835 1.61695 25.2686 3.08603C21.8531 1.61695 18.2067 0.378132 13.5913 0.1081H12.1542C5.56594 0.36689 2.2929 4.19664 0.914197 9.60357C0.553576 11.0164 0.386673 12.7173 0.580387 14.3005C0.760265 15.7724 1.21645 17.1727 1.70938 18.3551C2.37266 19.9471 3.15693 21.4026 3.9391 22.8543C5.57003 25.8813 7.19184 28.8914 7.6888 33.0856C8.41502 39.2131 9.40651 45.1078 11.5127 49.9725C12.0061 51.1123 12.6447 52.251 13.4373 53.2309C14.204 54.1787 15.2363 55.0722 16.62 55.2337H17.2351C19.4593 54.8398 20.8238 53.398 22.0347 51.9741C22.2727 51.6941 22.4991 51.4018 22.7203 51.1041C23.2166 50.1957 23.2923 47.5728 23.3817 44.4767C23.4031 43.7347 23.4253 42.9654 23.4543 42.1861C23.0415 41.5542 21.3712 38.9861 20.5161 37.4829C19.3039 38.0578 16.2518 37.3966 15.5669 37.1363C12.4683 35.9546 10.6267 30.8802 10.0095 28.342C14.6526 28.2049 21.0538 30.6984 21.0218 36.4056L21.0171 36.5935L21.0596 36.6423C21.3857 37.0169 21.6819 37.3572 21.9216 37.6347C22.4559 38.25 23.0301 38.808 23.5485 39.2715C23.6166 36.8177 23.6618 34.2207 23.6759 31.7396V31.7097C23.3836 31.2629 22.0658 29.2371 21.5286 28.2508C21.5202 28.2348 21.5104 28.2168 21.5011 28.2008C20.6649 28.4743 18.8985 28.0893 18.4854 27.9321C16.5184 27.1819 15.3496 23.9609 14.9576 22.3498C17.9047 22.2636 21.9679 23.8448 21.9474 27.4679L21.9391 27.7665C21.9387 27.7693 21.9381 27.772 21.9374 27.7749C21.9364 27.7791 21.9354 27.7834 21.935 27.7881L21.9943 27.8564C22.077 27.9516 22.157 28.0437 22.2336 28.1319C22.3755 28.2951 22.5054 28.4446 22.6176 28.5744C22.9737 28.9858 23.3563 29.3581 23.7044 29.6705C23.7377 28.2529 23.7952 27.1088 23.8633 26.1867C21.9679 24.3479 23.0182 21.26 24.4922 19.5773C25.2755 20.6245 26.648 22.9513 26.1176 24.5248C26.0214 24.808 25.5268 25.7822 25.017 26.2868C25.1233 27.6307 25.2025 29.4234 25.2055 31.8008C25.2059 31.9713 25.2066 32.1445 25.2087 32.3179C25.581 31.988 26.0018 31.5843 26.3907 31.1355L26.4671 31.0476C26.6438 30.8441 26.8559 30.6 27.0871 30.3351L27.0819 30.1576C27.0616 26.5354 31.1246 24.9535 34.0716 25.0398C33.6796 26.6502 32.5109 29.871 30.5439 30.6212C30.118 30.7833 28.2507 31.1885 27.452 30.8614C26.8281 31.9943 25.2723 34.364 25.2723 34.364L25.2524 34.3433C25.362 37.6137 25.6621 41.1352 26.0776 44.1278C26.7604 43.5488 27.5979 42.775 28.3607 41.8953C28.5618 41.6629 28.7983 41.3901 29.0577 41.0921L29.0497 40.8011C29.0175 35.0954 35.419 32.6018 40.0621 32.7384C39.4455 35.2764 37.6032 40.3517 34.5042 41.5319C33.8593 41.7784 31.1172 42.3783 29.787 41.9675C28.7079 43.8258 26.7561 46.8087 26.5645 47.0995C26.9039 48.8463 27.2862 50.2034 27.6864 50.8994C27.7072 50.9363 27.7256 50.9721 27.7437 51.0077L27.7482 51.0166L27.753 51.0261C27.9953 51.3504 28.2427 51.669 28.5019 51.9741C29.7122 53.3965 31.079 54.8413 33.3011 55.2337H33.9168C35.3139 55.043 36.3175 54.2122 37.0993 53.2572C37.8791 52.3025 38.486 51.1277 38.9979 49.9725C41.1156 45.1941 42.1272 39.1658 42.8476 33.0856C43.3422 28.9121 44.962 25.9007 46.5931 22.8683C47.3762 21.4124 48.162 19.9516 48.827 18.3551C49.3171 17.1783 49.7757 15.7752 49.9562 14.3005C50.151 12.7075 49.983 11.0156 49.6222 9.60357ZM4.65368 3.00483C6.39013 1.4105 8.73402 0.408688 11.8541 0.230767L12.1584 0.216199H13.5882C18.1848 0.485607 21.8174 1.71927 25.226 3.18535L25.2686 3.20372L25.3113 3.18535C28.7192 1.71926 32.3516 0.484954 36.948 0.216199H38.3776L38.6831 0.231401C41.8165 0.415653 44.1603 1.41715 45.8933 3.00948C47.6836 4.65456 48.8312 6.93895 49.5174 9.63037C49.8754 11.0314 50.0417 12.7097 49.8488 14.2873C49.6699 15.749 49.2152 17.1423 48.7273 18.3136C48.0641 19.9057 47.2831 21.3574 46.5018 22.8098C46.0771 23.5992 45.6524 24.3888 45.2464 25.2012C44.0963 27.5025 43.1083 29.9674 42.7402 33.073C42.0199 39.1525 41.0096 45.1665 38.8991 49.9287C38.4203 51.009 37.8611 52.0998 37.1581 53.0094L37.0156 53.1888C36.2438 54.1316 35.2645 54.9382 33.9092 55.1255H33.3109C31.2712 54.7623 29.9632 53.4965 28.8127 52.1703L28.5842 51.9041C28.3288 51.6035 28.0845 51.289 27.8444 50.9679C27.825 50.9295 27.8044 50.8884 27.7805 50.8461L27.78 50.8455C27.3931 50.1726 27.0165 48.8486 26.679 47.1215C26.9693 46.6793 28.7851 43.8974 29.8375 42.0943C30.5261 42.2795 31.5209 42.2278 32.4176 42.1033C33.3538 41.9733 34.2096 41.7603 34.5428 41.6329L34.5426 41.6327C36.1302 41.0281 37.3814 39.4343 38.3094 37.6951C39.2398 35.9515 39.8573 34.0391 40.1672 32.7639L40.1986 32.6343L40.0652 32.6303C37.7259 32.5614 34.9437 33.1547 32.7467 34.4865C30.547 35.82 28.9253 37.9009 28.9417 40.8017V40.804L28.9484 41.0527C28.6998 41.3384 28.4729 41.6002 28.2789 41.8244C27.5761 42.635 26.8083 43.3555 26.1581 43.9159C25.7606 40.9956 25.4727 37.5939 25.3634 34.4219L25.3638 34.4215L25.3672 34.4164L25.3803 34.3964C25.3919 34.3787 25.4089 34.3526 25.4308 34.3191C25.4407 34.3039 25.4517 34.2871 25.4636 34.2689L25.4931 34.2235C25.5281 34.1698 25.5693 34.1064 25.6157 34.0349C25.7714 33.7949 25.9857 33.4629 26.2194 33.0956C26.6646 32.3957 27.1819 31.5638 27.5011 30.994C27.7042 31.0596 27.9507 31.088 28.2101 31.0928C28.5111 31.0984 28.8385 31.0728 29.1518 31.032C29.776 30.9508 30.3585 30.8075 30.5824 30.7223L30.6776 30.6838C31.6537 30.2686 32.4221 29.2752 32.9937 28.2039C33.5861 27.0936 33.9792 25.8768 34.1767 25.0654L34.2082 24.9356L34.0747 24.9317C32.5835 24.8881 30.8098 25.2658 29.4079 26.1156C28.0033 26.967 26.9633 28.2993 26.9737 30.1583V30.1609L26.9777 30.296L26.3091 31.0647C25.985 31.4387 25.6377 31.7813 25.3153 32.076C25.3147 31.9839 25.3138 31.892 25.3136 31.8007L25.3121 31.3614C25.3007 29.2264 25.2263 27.5843 25.1282 26.3275C25.3805 26.0673 25.6238 25.7067 25.8159 25.3772C26.0167 25.0327 26.1685 24.7109 26.22 24.5593C26.4981 23.734 26.2747 22.7277 25.8976 21.8125C25.5185 20.8927 24.9743 20.0414 24.5789 19.5126L24.4988 19.4056L24.411 19.5061C23.6625 20.3605 23.0214 21.5709 22.8077 22.805C22.5963 24.0254 22.8024 25.2805 23.7519 26.2279C23.689 27.091 23.6357 28.1451 23.6024 29.431C23.3504 29.1974 23.0866 28.9362 22.8326 28.6544L22.6994 28.5037C22.5847 28.371 22.4514 28.2175 22.3057 28.0499L22.3032 28.047C22.2215 27.9529 22.1359 27.8544 22.0476 27.7527L22.0554 27.4708V27.4685C22.0659 25.609 21.0259 24.2767 19.6213 23.4253C18.2194 22.5756 16.4456 22.1981 14.9544 22.2417L14.821 22.2457L14.8526 22.3754C15.0501 23.1871 15.443 24.4042 16.0354 25.5147C16.6255 26.6207 17.4254 27.6435 18.4469 28.0331C18.6643 28.1158 19.2182 28.2527 19.8199 28.335C20.3804 28.4116 21.0064 28.4443 21.4482 28.3287C21.986 29.3094 23.2465 31.2501 23.5675 31.7414C23.5539 34.1418 23.511 36.6508 23.4466 39.0335C22.9781 38.6054 22.4747 38.1068 22.0033 37.5638C21.7827 37.3085 21.5144 37.0003 21.2191 36.6611L21.2186 36.6605L21.2149 36.6563L21.126 36.5541L21.1298 36.4083L21.13 36.4061C21.1463 33.5046 19.5245 31.4233 17.3248 30.0897C15.1278 28.7578 12.3456 28.1648 10.0063 28.2339L9.87287 28.2379L9.90454 28.3675C10.2147 29.6428 10.8321 31.555 11.7623 33.2987C12.6902 35.0379 13.9412 36.632 15.5285 37.2374L15.6015 37.2638C16.0001 37.4004 16.8883 37.6115 17.8302 37.7302C18.3337 37.7936 18.8564 37.8309 19.3312 37.8159C19.7603 37.8023 20.1588 37.7452 20.4704 37.6202C21.3275 39.114 22.9112 41.5518 23.345 42.2163C23.3166 42.986 23.2947 43.7444 23.2736 44.4758L23.2736 44.4763C23.2397 45.6519 23.2077 46.7576 23.1539 47.7285C23.1101 48.5197 23.0519 49.2175 22.9667 49.7864C22.8816 50.3541 22.7711 50.7816 22.6286 51.0458C22.4098 51.3403 22.1867 51.6285 21.9524 51.9041C20.7441 53.3249 19.4033 54.7365 17.2253 55.1255H16.6261C15.2871 54.9669 14.2799 54.1006 13.5214 53.1629C12.7364 52.1924 12.1025 51.0627 11.612 49.9296C9.51252 45.0805 8.52227 39.1995 7.79617 33.073C7.42652 29.9532 6.43773 27.4857 5.2875 25.1866C4.88086 24.3738 4.45553 23.5845 4.03045 22.7956C3.28778 21.4175 2.54589 20.0407 1.9058 18.5425L1.8091 18.3136L1.71768 18.0904C1.26303 16.9626 0.854925 15.655 0.687777 14.2873C0.495949 12.7194 0.661227 11.0323 1.01904 9.63037C1.70504 6.94006 2.85969 4.652 4.65368 3.00483Z" fill="#02A04B"/>
</svg>
