<svg width="145" height="48" viewBox="0 0 145 48" fill="none" xmlns="http://www.w3.org/2000/svg">
<path d="M55.8374 31.2599C55.4146 31.1871 55.0358 31.0959 54.7008 30.9866C54.3653 30.8774 54.0743 30.7647 53.8265 30.648C53.5785 30.5314 53.382 30.4294 53.2364 30.3419L52.7557 31.6314C52.9009 31.7188 53.1054 31.8211 53.3675 31.9374C53.6297 32.0544 53.9502 32.1671 54.3294 32.2764C54.7079 32.3854 55.138 32.4762 55.6188 32.5493C56.0996 32.6221 56.6313 32.6586 57.2143 32.6586C58.846 32.6586 60.1394 32.3166 61.0939 31.6314C62.048 30.9467 62.5254 29.9195 62.5254 28.5497C62.5254 27.8503 62.4088 27.26 62.1757 26.7792C61.9427 26.2984 61.6293 25.8907 61.236 25.5552C60.8424 25.2202 60.3798 24.9289 59.848 24.6811C59.316 24.4334 58.7514 24.1859 58.1543 23.9379C57.6585 23.734 57.1996 23.5372 56.7771 23.3478C56.3544 23.1584 55.9866 22.9472 55.6734 22.7139C55.36 22.4809 55.1162 22.2039 54.9412 21.8834C54.7662 21.5629 54.679 21.1696 54.679 20.703C54.679 20.2517 54.7626 19.8652 54.9302 19.5447C55.0975 19.2242 55.3271 18.9583 55.6188 18.7468C55.9101 18.5359 56.2561 18.383 56.6571 18.2878C57.0577 18.1933 57.4985 18.1457 57.9793 18.1457C58.6787 18.1457 59.3307 18.2332 59.9355 18.4082C60.54 18.5829 61.0536 18.8162 61.4764 19.1075L62.001 17.8617C61.8113 17.7306 61.5749 17.6069 61.2906 17.4902C61.0064 17.3736 60.6929 17.2683 60.3509 17.1731C60.0083 17.0785 59.6405 17.0021 59.2469 16.9438C58.8537 16.8857 58.4527 16.8563 58.045 16.8563C56.5149 16.8563 55.3201 17.1915 54.4605 17.8617C53.6006 18.5322 53.1708 19.5155 53.1708 20.8123C53.1708 21.3806 53.2616 21.8761 53.444 22.2985C53.626 22.7215 53.8922 23.0964 54.2419 23.4243C54.5916 23.7521 55.014 24.0463 55.5095 24.3071C56.0047 24.5679 56.5659 24.8213 57.1925 25.0673C57.6877 25.2701 58.1614 25.462 58.6133 25.643C59.0646 25.8242 59.4655 26.0425 59.8152 26.2981C60.1649 26.5535 60.4455 26.8678 60.6567 27.2399C60.8679 27.6122 60.9738 28.076 60.9738 28.6309C60.9738 29.5947 60.6459 30.2921 59.9902 30.723C59.3344 31.154 58.4165 31.3692 57.2361 31.3692C56.7259 31.3692 56.2598 31.3329 55.8374 31.2599ZM67.5415 31.1834C67.1845 31.1036 66.8784 30.9756 66.6236 30.8009C66.3685 30.6259 66.1717 30.3932 66.0335 30.1016C65.8948 29.8102 65.826 29.4532 65.826 29.0304C65.826 28.5497 65.9276 28.1637 66.1318 27.8721C66.3356 27.5808 66.5981 27.3511 66.9186 27.1835C67.2391 27.0162 67.5888 26.9069 67.9679 26.8556C68.3465 26.805 68.7109 26.7792 69.0605 26.7792C69.6727 26.7792 70.1535 26.8194 70.5031 26.8995C70.8528 26.9797 71.1076 27.0561 71.2682 27.1289V31.107C70.9766 31.1653 70.6235 31.2129 70.2081 31.2488C69.7927 31.2854 69.3083 31.3035 68.7548 31.3035C68.3029 31.3035 67.8985 31.2636 67.5415 31.1834ZM66.7547 20.9216C66.2374 21.0238 65.8548 21.1331 65.6074 21.2495L65.8039 22.4953C65.9933 22.4225 66.292 22.328 66.7 22.2113C67.108 22.0947 67.7275 22.0363 68.558 22.0363C69.1407 22.0363 69.6104 22.1275 69.9677 22.3095C70.3245 22.4919 70.6017 22.7323 70.7982 23.0307C70.995 23.3297 71.1224 23.6647 71.1807 24.0361C71.2387 24.4079 71.2682 24.7901 71.2682 25.1837V25.8831C71.2099 25.8542 71.1042 25.8213 70.9514 25.7848C70.7982 25.7486 70.6158 25.712 70.4049 25.6755C70.1934 25.6393 69.9748 25.6098 69.7491 25.588C69.5229 25.5662 69.3083 25.5552 69.1044 25.5552C68.4192 25.5552 67.7856 25.6209 67.2029 25.752C66.6199 25.8831 66.117 26.0909 65.6946 26.3749C65.2719 26.6591 64.944 27.0196 64.7112 27.4567C64.4779 27.8939 64.3616 28.4186 64.3616 29.0304C64.3616 29.6717 64.4669 30.2145 64.6784 30.6588C64.8893 31.1036 65.181 31.4674 65.5527 31.7517C65.9242 32.0357 66.3614 32.2435 66.864 32.3746C67.3668 32.5057 67.9167 32.5714 68.5144 32.5714C68.9804 32.5714 69.4357 32.553 69.8802 32.5167C70.3245 32.4802 70.7288 32.4326 71.0932 32.3746C71.4573 32.3166 71.7781 32.2619 72.055 32.2107C72.3317 32.1597 72.5432 32.1124 72.689 32.0685V24.9433C72.689 24.3459 72.6157 23.7923 72.4704 23.2821C72.3246 22.7722 72.0913 22.3314 71.7708 21.9599C71.4502 21.5884 71.0312 21.297 70.5142 21.0855C69.9966 20.8746 69.3666 20.7687 68.6234 20.7687C67.8949 20.7687 67.2717 20.82 66.7547 20.9216ZM79.3767 31.3474C79.0851 31.3035 78.8337 31.2528 78.6227 31.1942C78.4112 31.1361 78.2402 31.045 78.1091 30.921C77.978 30.7975 77.8795 30.6299 77.8141 30.4184C77.7484 30.2074 77.7156 29.9266 77.7156 29.5769V15.3701L76.295 15.6323V29.6205C76.295 30.1599 76.3568 30.6078 76.4808 30.9648C76.6042 31.3222 76.7869 31.6132 77.0272 31.8392C77.2676 32.0651 77.5661 32.2325 77.9234 32.3418C78.2801 32.451 78.6992 32.5128 79.18 32.5275L79.3767 31.3474ZM84.3676 28.6479C84.046 27.8393 83.7351 27.0015 83.4358 26.1345C83.136 25.2678 82.8582 24.3935 82.6025 23.5118C82.3466 22.6303 82.1311 21.8033 81.9556 21.0309H80.4476C80.7112 22.0658 81.0045 23.0854 81.3273 24.0908C81.6501 25.0962 81.9913 26.0798 82.3503 27.0417C82.7096 28.0032 83.0799 28.9288 83.461 29.8173C83.8421 30.7063 84.2235 31.5441 84.6052 32.331H85.9294C86.2958 31.5441 86.6732 30.7063 87.062 29.8173C87.4505 28.9288 87.8245 28.0032 88.1838 27.0417C88.5431 26.0798 88.884 25.0962 89.2065 24.0908C89.529 23.0854 89.8223 22.0658 90.0862 21.0309H88.6649C88.4893 21.8033 88.2738 22.6303 88.0182 23.5118C87.7622 24.3935 87.4847 25.2678 87.1852 26.1345C86.8853 27.0015 86.575 27.8393 86.2531 28.6479C85.9314 29.4566 85.6174 30.1746 85.3105 30.8009C85.0036 30.1746 84.6893 29.4566 84.3676 28.6479ZM94.7308 31.1834C94.3735 31.1036 94.0674 30.9756 93.8129 30.8009C93.5578 30.6259 93.361 30.3932 93.2225 30.1016C93.0841 29.8102 93.015 29.4532 93.015 29.0304C93.015 28.5497 93.1169 28.1637 93.3211 27.8721C93.5249 27.5808 93.7871 27.3511 94.1079 27.1835C94.4282 27.0162 94.7778 26.9069 95.157 26.8556C95.5358 26.805 95.9002 26.7792 96.2499 26.7792C96.8617 26.7792 97.3428 26.8194 97.6925 26.8995C98.0421 26.9797 98.297 27.0561 98.4572 27.1289V31.107C98.1656 31.1653 97.8125 31.2129 97.3974 31.2488C96.9821 31.2854 96.4973 31.3035 95.9438 31.3035C95.4919 31.3035 95.0876 31.2636 94.7308 31.1834ZM93.944 20.9216C93.4264 21.0238 93.0442 21.1331 92.7964 21.2495L92.9932 22.4953C93.1823 22.4225 93.4811 22.328 93.8893 22.2113C94.2971 22.0947 94.9166 22.0363 95.747 22.0363C96.3297 22.0363 96.7997 22.1275 97.1568 22.3095C97.5138 22.4919 97.7907 22.7323 97.9875 23.0307C98.1843 23.3297 98.3114 23.6647 98.37 24.0361C98.4281 24.4079 98.4572 24.7901 98.4572 25.1837V25.8831C98.3989 25.8542 98.2933 25.8213 98.1404 25.7848C97.9875 25.7486 97.8052 25.712 97.5939 25.6755C97.3827 25.6393 97.1641 25.6098 96.9382 25.588C96.7122 25.5662 96.4973 25.5552 96.2935 25.5552C95.6086 25.5552 94.9746 25.6209 94.3919 25.752C93.8089 25.8831 93.3064 26.0909 92.8839 26.3749C92.4612 26.6591 92.1333 27.0196 91.9003 27.4567C91.667 27.8939 91.5506 28.4186 91.5506 29.0304C91.5506 29.6717 91.6562 30.2145 91.8674 30.6588C92.0787 31.1036 92.3703 31.4674 92.7418 31.7517C93.1133 32.0357 93.5504 32.2435 94.0533 32.3746C94.5559 32.5057 95.1057 32.5714 95.7034 32.5714C96.1695 32.5714 96.6248 32.553 97.0696 32.5167C97.5138 32.4802 97.9181 32.4326 98.2825 32.3746C98.6467 32.3166 98.9672 32.2619 99.2441 32.2107C99.5207 32.1597 99.7322 32.1124 99.878 32.0685V24.9433C99.878 24.3459 99.805 23.7923 99.6594 23.2821C99.5136 22.7722 99.2803 22.3314 98.9601 21.9599C98.6393 21.5884 98.2202 21.297 97.7032 21.0855C97.1859 20.8746 96.556 20.7687 95.8127 20.7687C95.0839 20.7687 94.461 20.82 93.944 20.9216ZM112.489 15.3701L111.069 15.6323V21.7084C110.821 21.5193 110.424 21.3189 109.877 21.1073C109.331 20.8964 108.686 20.7905 107.943 20.7905C107.127 20.7905 106.402 20.9363 105.768 21.2277C105.134 21.5193 104.599 21.927 104.162 22.4517C103.724 22.9761 103.393 23.599 103.167 24.3204C102.941 25.0416 102.828 25.8321 102.828 26.6917C102.828 27.6099 102.963 28.4333 103.233 29.1615C103.502 29.8903 103.881 30.5096 104.369 31.0195C104.857 31.5297 105.44 31.9193 106.118 32.1889C106.795 32.4581 107.549 32.5932 108.38 32.5932C109.386 32.5932 110.216 32.5275 110.872 32.3964C111.528 32.2653 112.066 32.1269 112.489 31.981V15.3701ZM111.069 30.9977C110.85 31.0707 110.525 31.1395 110.096 31.2052C109.666 31.2709 109.101 31.3035 108.402 31.3035C107.178 31.3035 106.194 30.9068 105.451 30.1123C104.708 29.3184 104.337 28.1782 104.337 26.6917C104.337 26.0654 104.402 25.4717 104.533 24.9105C104.665 24.3499 104.875 23.8614 105.167 23.4461C105.458 23.0307 105.841 22.6994 106.315 22.4517C106.788 22.2039 107.375 22.0799 108.074 22.0799C108.409 22.0799 108.73 22.1128 109.036 22.1785C109.342 22.2439 109.626 22.328 109.888 22.4299C110.15 22.5318 110.38 22.6411 110.577 22.7575C110.773 22.8744 110.937 22.9837 111.069 23.0854V30.9977ZM125.505 24.2658C125.25 23.5372 124.893 22.9143 124.434 22.397C123.975 21.88 123.432 21.4791 122.805 21.1948C122.179 20.9108 121.486 20.7687 120.729 20.7687C119.971 20.7687 119.279 20.9108 118.652 21.1948C118.026 21.4791 117.483 21.88 117.024 22.397C116.565 22.9143 116.208 23.5372 115.953 24.2658C115.698 24.9946 115.571 25.8032 115.571 26.6917C115.571 27.5808 115.698 28.3894 115.953 29.1179C116.208 29.8467 116.565 30.4659 117.024 30.9756C117.483 31.4858 118.026 31.8828 118.652 32.1671C119.279 32.451 119.971 32.5932 120.729 32.5932C121.486 32.5932 122.179 32.451 122.805 32.1671C123.432 31.8828 123.975 31.4858 124.434 30.9756C124.893 30.4659 125.25 29.8467 125.505 29.1179C125.76 28.3894 125.887 27.5808 125.887 26.6917C125.887 25.8032 125.76 24.9946 125.505 24.2658ZM123.396 30.0577C122.74 30.8884 121.851 31.3035 120.729 31.3035C119.607 31.3035 118.718 30.8884 118.062 30.0577C117.407 29.2272 117.079 28.1054 117.079 26.6917C117.079 25.2786 117.407 24.1531 118.062 23.315C118.718 22.4772 119.607 22.0581 120.729 22.0581C121.851 22.0581 122.74 22.4772 123.396 23.315C124.051 24.1531 124.379 25.2786 124.379 26.6917C124.379 28.1054 124.051 29.2272 123.396 30.0577ZM130.477 21.0637C129.835 21.2314 129.333 21.3953 128.969 21.5555V32.331H130.389V22.4299C130.506 22.3716 130.75 22.2985 131.122 22.2113C131.493 22.1238 131.985 22.0799 132.597 22.0799C133.179 22.0799 133.649 22.1128 134.007 22.1785C134.364 22.2439 134.6 22.3062 134.717 22.3642L135.001 21.1402C134.841 21.0674 134.553 20.9947 134.138 20.9216C133.723 20.8488 133.282 20.8123 132.815 20.8123C131.897 20.8123 131.118 20.8964 130.477 21.0637ZM139.492 31.1834C139.135 31.1036 138.829 30.9756 138.574 30.8009C138.319 30.6259 138.123 30.3932 137.984 30.1016C137.846 29.8102 137.777 29.4532 137.777 29.0304C137.777 28.5497 137.878 28.1637 138.083 27.8721C138.286 27.5808 138.549 27.3511 138.869 27.1835C139.19 27.0162 139.54 26.9069 139.919 26.8556C140.297 26.805 140.662 26.7792 141.011 26.7792C141.624 26.7792 142.104 26.8194 142.454 26.8995C142.804 26.9797 143.059 27.0561 143.219 27.1289V31.107C142.927 31.1653 142.574 31.2129 142.159 31.2488C141.744 31.2854 141.259 31.3035 140.706 31.3035C140.254 31.3035 139.849 31.2636 139.492 31.1834ZM138.706 20.9216C138.188 21.0238 137.806 21.1331 137.558 21.2495L137.755 22.4953C137.944 22.4225 138.243 22.328 138.651 22.2113C139.059 22.0947 139.678 22.0363 140.509 22.0363C141.092 22.0363 141.561 22.1275 141.919 22.3095C142.275 22.4919 142.553 22.7323 142.749 23.0307C142.946 23.3297 143.073 23.6647 143.132 24.0361C143.19 24.4079 143.219 24.7901 143.219 25.1837V25.8831C143.161 25.8542 143.055 25.8213 142.902 25.7848C142.749 25.7486 142.567 25.712 142.356 25.6755C142.144 25.6393 141.926 25.6098 141.7 25.588C141.474 25.5662 141.259 25.5552 141.055 25.5552C140.37 25.5552 139.736 25.6209 139.154 25.752C138.571 25.8831 138.068 26.0909 137.645 26.3749C137.223 26.6591 136.895 27.0196 136.662 27.4567C136.429 27.8939 136.312 28.4186 136.312 29.0304C136.312 29.6717 136.418 30.2145 136.629 30.6588C136.84 31.1036 137.132 31.4674 137.504 31.7517C137.875 32.0357 138.312 32.2435 138.815 32.3746C139.318 32.5057 139.868 32.5714 140.465 32.5714C140.931 32.5714 141.387 32.553 141.831 32.5167C142.275 32.4802 142.68 32.4326 143.044 32.3746C143.408 32.3166 143.729 32.2619 144.006 32.2107C144.283 32.1597 144.494 32.1124 144.64 32.0685V24.9433C144.64 24.3459 144.567 23.7923 144.421 23.2821C144.275 22.7722 144.042 22.3314 143.722 21.9599C143.401 21.5884 142.982 21.297 142.465 21.0855C141.948 20.8746 141.317 20.7687 140.575 20.7687C139.846 20.7687 139.223 20.82 138.706 20.9216Z" fill="white"/>
<path fill-rule="evenodd" clip-rule="evenodd" d="M62.0484 26.8409C62.2697 27.2974 62.3838 27.8654 62.3838 28.5496C62.3838 29.8825 61.9218 30.8629 61.0112 31.5163C60.0886 32.1786 58.8277 32.5169 57.2143 32.5169C56.6371 32.5169 56.1127 32.4809 55.6402 32.4094C55.2236 32.3461 54.8469 32.2694 54.5104 32.1796L54.3685 32.1403C53.9935 32.0322 53.6795 31.9214 53.4251 31.808L53.2415 31.7245C53.1207 31.6679 53.0171 31.6156 52.9301 31.568L53.3106 30.5471C53.438 30.6168 53.59 30.6931 53.7663 30.7761C54.0206 30.8958 54.3174 31.0105 54.6569 31.1211C54.9995 31.2329 55.3852 31.3256 55.8133 31.3993L55.9772 31.4256C56.3643 31.4826 56.784 31.5107 57.2361 31.5107C58.431 31.5107 59.3801 31.2933 60.0678 30.8413C60.7728 30.378 61.1155 29.63 61.1155 28.6309C61.1155 28.0943 61.0195 27.6306 60.821 27.2459L60.7798 27.1699C60.5586 26.7803 60.2646 26.451 59.8989 26.1839C59.5385 25.9204 59.1268 25.6965 58.6659 25.5114C58.2144 25.3307 57.741 25.1389 57.2461 24.9363L57.2442 24.9355C56.6215 24.691 56.0652 24.4396 55.5755 24.1817C55.0894 23.9259 54.6777 23.6388 54.3387 23.321C54.0025 23.0058 53.7481 22.6468 53.5741 22.2426L53.5738 22.2423C53.4008 21.8413 53.3123 21.3656 53.3123 20.8122C53.3123 19.5499 53.7287 18.6118 54.5474 17.9734C55.3738 17.3291 56.534 16.9979 58.0449 16.9979C58.4458 16.9979 58.8398 17.0269 59.2261 17.0839C59.6145 17.1414 59.9767 17.2167 60.3131 17.3095C60.6507 17.4034 60.9587 17.507 61.2369 17.6211C61.4672 17.7157 61.6626 17.8139 61.8247 17.9153L61.4116 18.8955C61.0038 18.6385 60.5243 18.4311 59.9749 18.2723C59.356 18.0932 58.6906 18.0041 57.9794 18.0041C57.4894 18.0041 57.0371 18.0526 56.6242 18.1501C56.2079 18.2489 55.8441 18.409 55.5356 18.6323C55.2649 18.8287 55.0441 19.0696 54.8742 19.3545L54.8046 19.4792C54.6241 19.8244 54.5375 20.2346 54.5375 20.703C54.5375 21.1868 54.6279 21.6048 54.817 21.9512C55.0024 22.2907 55.2601 22.583 55.5887 22.8274C55.9115 23.0679 56.2887 23.284 56.7191 23.4769C57.0371 23.6195 57.3756 23.7662 57.7347 23.9168L58.1005 24.0689C58.6958 24.3162 59.2584 24.5627 59.7883 24.8094L59.9807 24.9026C60.4219 25.1244 60.8094 25.378 61.1442 25.6629L61.2142 25.7241C61.5596 26.0345 61.8377 26.4062 62.0484 26.8409ZM112.535 32.1149L112.631 32.082V15.2001L112.463 15.2307L110.927 15.5144V21.4427C110.674 21.2901 110.34 21.1347 109.928 20.9754C109.362 20.7568 108.699 20.6488 107.943 20.6488C107.162 20.6488 106.458 20.7797 105.833 21.0442L105.709 21.099C105.057 21.3992 104.504 21.8197 104.053 22.3609C103.631 22.8673 103.306 23.4613 103.077 24.1411L103.032 24.2782C102.801 25.0148 102.687 25.8199 102.687 26.6918C102.687 27.6238 102.823 28.4643 103.1 29.2108C103.375 29.9558 103.764 30.592 104.267 31.1173C104.77 31.6427 105.37 32.0435 106.066 32.3203L106.197 32.3706C106.859 32.6138 107.587 32.7348 108.38 32.7348C109.391 32.7348 110.231 32.6688 110.9 32.5352C111.559 32.4034 112.104 32.2635 112.535 32.1149ZM125.416 24.4469C125.635 25.1236 125.746 25.8716 125.746 26.6918C125.746 27.5672 125.62 28.3597 125.371 29.0711C125.121 29.7844 124.773 30.3868 124.328 30.8808C123.882 31.3765 123.355 31.7618 122.747 32.038C122.14 32.3129 121.468 32.4517 120.729 32.4517C119.989 32.4517 119.317 32.3129 118.711 32.038C118.102 31.7618 117.575 31.3765 117.129 30.8808C116.684 30.3868 116.336 29.7844 116.087 29.0711C115.838 28.3598 115.712 27.5673 115.712 26.6918C115.712 25.8169 115.838 25.0242 116.087 24.3125L116.135 24.1801C116.38 23.524 116.713 22.9615 117.13 22.4909C117.576 21.9887 118.103 21.5998 118.711 21.3238C119.317 21.0489 119.989 20.9104 120.729 20.9104C121.468 20.9104 122.14 21.0489 122.747 21.3238L122.86 21.3769C123.42 21.6489 123.91 22.0201 124.328 22.4909C124.773 22.9929 125.121 23.5994 125.371 24.3125L125.416 24.4469ZM72.3838 23.509C72.4922 23.9529 72.5475 24.4306 72.5475 24.9432V31.9606C72.4584 31.9837 72.3503 32.0084 72.2226 32.0341L72.0294 32.0715C71.7539 32.1224 71.4343 32.177 71.071 32.2349C70.7107 32.2923 70.31 32.3393 69.8688 32.3756C69.4282 32.4115 68.9767 32.4298 68.5144 32.4298C67.9271 32.4298 67.3893 32.3653 66.8997 32.2376C66.4134 32.1108 65.9938 31.9106 65.6388 31.6393C65.2858 31.3693 65.008 31.0234 64.8062 30.598L64.7698 30.5178C64.5936 30.112 64.5032 29.6177 64.5032 29.0305C64.5032 28.4365 64.6161 27.9356 64.8361 27.5233C65.0576 27.1073 65.3694 26.7642 65.7735 26.4925C66.1791 26.2198 66.6652 26.0178 67.234 25.89C67.8051 25.7615 68.4283 25.6967 69.1045 25.6967C69.3032 25.6967 69.5132 25.7076 69.7355 25.729C69.9576 25.7505 70.1728 25.7794 70.3808 25.815C70.5896 25.8512 70.7688 25.8872 70.9184 25.9226C71.0712 25.9591 71.1628 25.9889 71.2054 26.01L71.4097 26.1112V25.1838C71.4097 24.7832 71.3799 24.3933 71.3207 24.0142L71.2941 23.8695C71.2344 23.5835 71.1335 23.318 70.9911 23.0735L70.9164 22.9529C70.7048 22.6316 70.4077 22.3755 70.0319 22.1834C69.6477 21.9877 69.1535 21.8948 68.5578 21.8948C67.7243 21.8948 67.0886 21.9531 66.661 22.0753C66.353 22.1634 66.1044 22.2393 65.917 22.3037L65.7641 21.3354C65.9965 21.2412 66.334 21.1488 66.7819 21.0603C67.2873 20.9609 67.9009 20.9104 68.6234 20.9104C69.3539 20.9104 69.9647 21.0143 70.4607 21.2165C70.96 21.4207 71.3596 21.7001 71.6635 22.0524C71.9696 22.4071 72.1937 22.8292 72.3343 23.321L72.3838 23.509ZM99.5232 23.321C99.6647 23.8171 99.7364 24.3574 99.7364 24.9432V31.9606C99.6054 31.9946 99.4332 32.0319 99.2185 32.0715C99.0808 32.097 98.9319 32.1233 98.7722 32.1506L98.2601 32.2349C97.8999 32.2923 97.4991 32.3393 97.0579 32.3756C96.6171 32.4115 96.1656 32.4298 95.7033 32.4298C95.116 32.4298 94.5784 32.3653 94.0891 32.2376C93.6025 32.1108 93.1829 31.9107 92.8279 31.6393C92.4972 31.3862 92.2324 31.0664 92.0341 30.6768L91.9954 30.598L91.9589 30.5181C91.7828 30.1122 91.6921 29.6177 91.6921 29.0305C91.6921 28.4365 91.8052 27.9356 92.0253 27.5233C92.247 27.1072 92.5589 26.7642 92.9629 26.4925C93.3685 26.2198 93.8544 26.0178 94.4231 25.89C94.9942 25.7615 95.6175 25.6967 96.2934 25.6967C96.4921 25.6967 96.7026 25.7076 96.9246 25.729C97.147 25.7505 97.362 25.7794 97.5697 25.815C97.7788 25.8512 97.9583 25.8872 98.1075 25.9226C98.2603 25.9591 98.352 25.9889 98.3945 26.01L98.5988 26.1112V25.1838C98.5988 24.7832 98.569 24.3934 98.5098 24.0142L98.4833 23.8695C98.4135 23.536 98.2882 23.2301 98.1058 22.9529L98.1056 22.9527C97.8937 22.6315 97.5971 22.3755 97.221 22.1834C96.8371 21.9877 96.3426 21.8948 95.747 21.8948C94.9655 21.8948 94.3579 21.9458 93.9328 22.0529L93.8505 22.0753C93.5421 22.1634 93.2935 22.2393 93.1061 22.3037L92.9532 21.3354C93.1859 21.2412 93.5232 21.149 93.9713 21.0605C94.4767 20.9612 95.09 20.9104 95.8128 20.9104C96.5432 20.9104 97.1539 21.0144 97.6496 21.2165C98.1489 21.4208 98.5486 21.7 98.853 22.0524L98.9094 22.1196C99.1864 22.46 99.3914 22.86 99.5232 23.321ZM144.285 23.321C144.427 23.8171 144.498 24.3574 144.498 24.9432V31.9606C144.367 31.9946 144.195 32.0319 143.98 32.0715C143.705 32.1224 143.385 32.177 143.022 32.2349C142.662 32.2923 142.261 32.3393 141.819 32.3756C141.379 32.4115 140.928 32.4298 140.465 32.4298C139.878 32.4298 139.34 32.3653 138.851 32.2376C138.364 32.1108 137.945 31.9106 137.59 31.6393C137.237 31.3693 136.959 31.0234 136.757 30.598L136.721 30.5178C136.544 30.112 136.454 29.6177 136.454 29.0305C136.454 28.4365 136.567 27.9356 136.787 27.5233C137.008 27.1073 137.32 26.7642 137.724 26.4925C138.13 26.2198 138.616 26.0178 139.185 25.89C139.756 25.7615 140.379 25.6967 141.055 25.6967C141.254 25.6967 141.464 25.7076 141.686 25.729C141.909 25.7505 142.124 25.7794 142.332 25.815L142.623 25.8692C142.712 25.8871 142.795 25.9049 142.869 25.9226C143.022 25.9591 143.114 25.9889 143.156 26.01L143.361 26.1112V25.1838C143.361 24.7832 143.331 24.3936 143.272 24.0144L143.271 24.0142C143.21 23.6238 143.076 23.2696 142.867 22.9529C142.656 22.6316 142.359 22.3755 141.983 22.1834C141.599 21.9877 141.104 21.8948 140.509 21.8948C139.675 21.8948 139.04 21.9531 138.612 22.0753C138.304 22.1634 138.055 22.2393 137.868 22.3037L137.715 21.3354C137.947 21.2412 138.285 21.1488 138.733 21.0603C139.238 20.9609 139.852 20.9104 140.575 20.9104C141.305 20.9104 141.916 21.0144 142.411 21.2165C142.911 21.4207 143.31 21.7 143.615 22.0524L143.671 22.1196C143.948 22.46 144.153 22.8599 144.285 23.321ZM77.5741 15.5399V29.5769C77.5741 29.8889 77.5993 30.1551 77.6537 30.371L77.6789 30.4606C77.7498 30.6899 77.8596 30.8803 78.0118 31.0238C78.1629 31.1667 78.3559 31.2678 78.585 31.3307C78.7673 31.3814 78.9771 31.4251 79.2135 31.4643L79.0608 32.3806C78.6989 32.3629 78.3776 32.3171 78.0961 32.2435L77.9648 32.2064L77.8403 32.1649C77.5566 32.0624 77.319 31.9191 77.1242 31.7361C76.9027 31.5279 76.7316 31.257 76.6146 30.9185L76.5731 30.7877C76.483 30.4721 76.4365 30.0841 76.4365 29.6205V15.75L77.5741 15.5399ZM82.0935 20.9994L82.0686 20.8894H80.2656L80.3104 21.0658C80.5747 22.1035 80.8687 23.126 81.1924 24.1342C81.5158 25.1416 81.8579 26.1272 82.2177 27.0911C82.5777 28.0546 82.9488 28.9823 83.3309 29.873C83.7128 30.7639 84.0951 31.6038 84.4778 32.3928L84.5165 32.4727H86.0196L86.0578 32.3908C86.4246 31.6029 86.8026 30.764 87.1917 29.8741C87.5813 28.9831 87.9564 28.0549 88.3165 27.0911C88.6766 26.1272 89.0181 25.1415 89.3412 24.1342C89.6646 23.126 89.9587 22.1034 90.2233 21.0658L90.2683 20.8894H88.5518L88.5269 20.9994C88.3521 21.7687 88.1371 22.5931 87.8821 23.4722C87.6268 24.3517 87.35 25.2238 87.0512 26.0882C86.752 26.9533 86.4427 27.7891 86.1216 28.5955C85.8454 29.2899 85.5749 29.9163 85.3104 30.4744C85.0458 29.9163 84.7753 29.2899 84.4991 28.5955C84.1783 27.789 83.8681 26.9532 83.5695 26.0882C83.2704 25.2238 82.9936 24.3516 82.7386 23.4722C82.4833 22.5931 82.2684 21.7688 82.0935 20.9994ZM134.162 20.7821C133.738 20.7078 133.289 20.6707 132.815 20.6707C131.89 20.6707 131.097 20.7555 130.441 20.9267C129.796 21.0952 129.286 21.2615 128.912 21.4261L128.827 21.4631V32.4727H130.531V22.5233C130.653 22.4773 130.857 22.4187 131.154 22.3491C131.511 22.2651 131.99 22.2216 132.597 22.2216C133.175 22.2216 133.636 22.2543 133.981 22.3178C134.34 22.3836 134.558 22.443 134.654 22.4909L134.814 22.5708L135.165 21.0592L135.06 21.0113C134.881 20.9304 134.577 20.8551 134.162 20.7821ZM130.512 21.2007C131.138 21.0374 131.905 20.9538 132.815 20.9538C133.274 20.9538 133.707 20.9899 134.113 21.0611C134.441 21.1188 134.679 21.175 134.835 21.2278L134.616 22.174C134.472 22.1285 134.275 22.0836 134.032 22.0391C133.663 21.9712 133.184 21.9384 132.597 21.9384C131.98 21.9384 131.476 21.9824 131.089 22.0734C130.72 22.16 130.46 22.2365 130.326 22.3034L130.248 22.3424V32.1895H129.11V21.6492C129.457 21.5045 129.923 21.3547 130.512 21.2007ZM81.462 24.0476C81.1585 23.1022 80.8813 22.144 80.6303 21.1725H81.8433C82.0148 21.9162 82.222 22.7094 82.4665 23.5513C82.6908 24.3248 82.9322 25.0926 83.1904 25.8546L83.3021 26.1808C83.6021 27.0497 83.9137 27.8897 84.2361 28.7003C84.5588 29.5115 84.8746 30.2329 85.1834 30.8631L85.3104 31.1225L85.4376 30.8631C85.7464 30.2329 86.0619 29.5115 86.3846 28.7003C86.7074 27.8896 87.0184 27.0497 87.3189 26.1808C87.6192 25.3119 87.8976 24.4352 88.1542 23.5513C88.3984 22.7094 88.6057 21.9162 88.7772 21.1725H89.9031C89.6518 22.144 89.3749 23.1022 89.0716 24.0476C88.7498 25.051 88.4096 26.0324 88.0511 26.9921C87.6926 27.9513 87.3197 28.8745 86.9323 29.7605C86.5574 30.618 86.1927 31.4275 85.8388 32.1895H84.6946C84.3268 31.428 83.9586 30.6189 83.5911 29.7616C83.2109 28.8753 82.8414 27.9517 82.4828 26.9921C82.1246 26.0324 81.7841 25.0509 81.462 24.0476ZM70.5348 26.7615C70.1701 26.6779 69.677 26.6376 69.0605 26.6376C68.704 26.6376 68.333 26.6639 67.949 26.7153C67.5546 26.7686 67.189 26.8826 66.8532 27.0579C66.513 27.2358 66.2328 27.4806 66.0157 27.7909C65.7899 28.1135 65.6844 28.5308 65.6844 29.0305C65.6844 29.4677 65.7555 29.8468 65.9056 30.1622C66.0541 30.4756 66.267 30.728 66.5435 30.9176C66.8155 31.1041 67.1389 31.2385 67.5105 31.3216C67.8797 31.4045 68.2948 31.4452 68.7547 31.4452C69.3111 31.4452 69.7999 31.4269 70.2205 31.3899L70.2202 31.3896C70.639 31.3534 70.9978 31.3055 71.2961 31.2458L71.4097 31.2232V27.0377L71.3268 26.9998C71.1527 26.921 70.8863 26.842 70.5348 26.7615ZM97.724 26.7615C97.3592 26.6779 96.8661 26.6376 96.2499 26.6376C95.8933 26.6376 95.5225 26.6639 95.1381 26.7153C94.7437 26.7686 94.378 26.8828 94.0423 27.0582C93.7444 27.2139 93.493 27.4205 93.2894 27.6776L93.2051 27.7909C92.9794 28.1134 92.8736 28.5307 92.8736 29.0305C92.8736 29.4679 92.945 29.8469 93.0948 30.1622C93.2435 30.4754 93.4563 30.728 93.7327 30.9176C94.0044 31.1041 94.328 31.2385 94.6999 31.3216L94.8403 31.3506C95.1733 31.4139 95.5414 31.4452 95.9439 31.4452C96.5002 31.4452 96.9893 31.4269 97.4099 31.3899L97.4096 31.3896C97.8281 31.3534 98.1867 31.3055 98.4849 31.2458L98.5988 31.2232V27.0377L98.5159 26.9998C98.3421 26.9209 98.0755 26.842 97.724 26.7615ZM109.065 22.0399C108.749 21.972 108.418 21.9384 108.074 21.9384C107.403 21.9384 106.825 22.0498 106.344 22.2788L106.249 22.3264C105.756 22.584 105.356 22.9298 105.051 23.3647C104.767 23.7697 104.558 24.2395 104.421 24.7709L104.395 24.8782C104.261 25.4509 104.195 26.0556 104.195 26.6918C104.195 28.2008 104.572 29.3804 105.348 30.2089C106.121 31.0358 107.144 31.4452 108.402 31.4452C109.105 31.4452 109.677 31.4123 110.117 31.3451C110.549 31.2791 110.883 31.2089 111.113 31.1319L111.21 31.0996V23.016L111.155 22.9734C111.018 22.8672 110.849 22.7547 110.649 22.6358L110.649 22.6355L110.571 22.5907C110.384 22.4866 110.174 22.389 109.939 22.2979C109.703 22.2061 109.45 22.1286 109.181 22.0659L109.065 22.0399ZM123.284 23.4023C123.914 24.2084 124.237 25.2999 124.237 26.6918C124.237 28.0843 123.915 29.1719 123.285 29.97C122.657 30.7644 121.811 31.162 120.729 31.1621C119.647 31.1621 118.8 30.7644 118.173 29.97C117.543 29.1719 117.22 28.0843 117.22 26.6918C117.22 25.2999 117.543 24.2084 118.174 23.4023C118.801 22.6008 119.648 22.1997 120.729 22.1997C121.81 22.1998 122.657 22.6009 123.284 23.4023ZM142.486 26.7615C142.121 26.6779 141.628 26.6376 141.011 26.6376C140.655 26.6376 140.284 26.6639 139.9 26.7153C139.505 26.7686 139.14 26.8826 138.804 27.0579C138.464 27.2358 138.184 27.4806 137.967 27.7909C137.741 28.1134 137.635 28.5308 137.635 29.0305C137.635 29.4677 137.706 29.8468 137.857 30.1622C138.005 30.4755 138.218 30.728 138.494 30.9176C138.766 31.1041 139.09 31.2385 139.461 31.3216C139.831 31.4045 140.246 31.4452 140.706 31.4452C141.262 31.4452 141.751 31.4269 142.171 31.3899L142.171 31.3896C142.59 31.3534 142.948 31.3055 143.247 31.2458L143.361 31.2232V27.0377L143.277 26.9998C143.103 26.921 142.837 26.842 142.486 26.7615ZM77.9283 30.301C77.8821 30.1172 77.8572 29.8768 77.8572 29.5769V15.2001L77.6899 15.2307L76.1534 15.5144V29.6205C76.1534 30.1351 76.2085 30.5759 76.3232 30.9395L76.347 31.0114C76.4769 31.3873 76.6712 31.6987 76.9304 31.9423C77.1885 32.185 77.5066 32.3623 77.8818 32.4771C78.2536 32.591 78.6857 32.654 79.1756 32.669L79.2992 32.6729L79.5165 31.3705L79.54 31.2287L79.3979 31.2074C79.1099 31.1641 78.8644 31.1144 78.6607 31.0578L78.6602 31.0575C78.4665 31.0044 78.3175 30.9231 78.2064 30.8181L78.2062 30.8178C78.0965 30.7145 78.0091 30.5695 77.9493 30.3762L77.9283 30.301ZM66.1163 29.9374C66.0183 29.6887 65.9676 29.3876 65.9676 29.0305C65.9676 28.5687 66.0651 28.214 66.2477 27.9532C66.4383 27.6808 66.6832 27.466 66.984 27.3087C67.2891 27.1494 67.6231 27.0452 67.9869 26.996L67.9866 26.9957C68.3596 26.9458 68.7178 26.9208 69.0605 26.9208C69.6683 26.9208 70.137 26.9608 70.4715 27.0374C70.7604 27.1036 70.9771 27.1659 71.1266 27.2233V30.9887C70.8643 31.036 70.5542 31.0768 70.1956 31.1079C69.7855 31.1439 69.3053 31.1621 68.7547 31.1621C68.3663 31.162 68.0164 31.1318 67.704 31.0725L67.5724 31.0454L67.4466 31.0144C67.1587 30.9376 66.9115 30.8268 66.7036 30.6843C66.4699 30.524 66.2893 30.3107 66.1614 30.0408L66.1163 29.9374ZM93.3505 30.0408C93.2235 29.7734 93.1567 29.4385 93.1567 29.0305C93.1567 28.5688 93.2545 28.214 93.4371 27.9532C93.6277 27.6808 93.8724 27.4662 94.1734 27.309C94.4782 27.1497 94.812 27.0449 95.1757 26.9957C95.549 26.9458 95.9072 26.9208 96.2499 26.9208C96.8574 26.9208 97.3264 26.9608 97.6609 27.0374C97.9498 27.1036 98.1665 27.1659 98.3157 27.2233V30.9887C98.0534 31.036 97.7437 31.0768 97.3853 31.1079C96.9751 31.1439 96.4945 31.162 95.9439 31.1621C95.5555 31.1621 95.2056 31.1318 94.8934 31.0725L94.7618 31.0454C94.4619 30.9784 94.2032 30.8769 93.9843 30.7434L93.893 30.6843L93.8079 30.6215C93.6426 30.4913 93.5068 30.3314 93.4009 30.1395L93.3505 30.0408ZM138.067 29.9374C137.969 29.6887 137.918 29.3876 137.918 29.0305C137.918 28.5687 138.016 28.214 138.199 27.9532C138.389 27.6808 138.634 27.4663 138.935 27.309C139.24 27.1497 139.574 27.0449 139.938 26.9957C140.311 26.9458 140.669 26.9208 141.011 26.9208C141.619 26.9208 142.088 26.9608 142.422 27.0374C142.711 27.1036 142.928 27.1659 143.077 27.2233V30.9887C142.815 31.036 142.505 31.0768 142.146 31.1079C141.736 31.1439 141.256 31.1621 140.706 31.1621C140.317 31.1621 139.967 31.1318 139.655 31.0725L139.523 31.0454C139.181 30.9688 138.892 30.8471 138.655 30.6843C138.421 30.524 138.24 30.3107 138.112 30.0408L138.067 29.9374ZM103.365 29.1123C103.103 28.4024 102.97 27.5962 102.97 26.6918C102.97 25.8446 103.081 25.0682 103.302 24.3626C103.523 23.657 103.846 23.051 104.27 22.5423L104.351 22.4483C104.759 21.9853 105.251 21.6217 105.827 21.3564L105.827 21.3561C106.44 21.0746 107.144 20.932 107.943 20.932C108.673 20.932 109.3 21.0362 109.826 21.2394C110.369 21.4495 110.751 21.6441 110.983 21.8209L111.21 21.9946V15.75L112.347 15.5399V31.8787C111.948 32.0102 111.447 32.137 110.844 32.2576C110.201 32.3862 109.38 32.4517 108.38 32.4517C107.565 32.4517 106.829 32.3192 106.17 32.0574C105.511 31.7951 104.945 31.4164 104.472 30.9215L104.384 30.8275C103.952 30.3512 103.613 29.7802 103.365 29.1123ZM105.555 30.0157C104.844 29.2564 104.478 28.1557 104.478 26.6918C104.478 26.0754 104.542 25.4924 104.671 24.9427C104.799 24.3972 105.003 23.9261 105.283 23.5275C105.561 23.1317 105.925 22.815 106.38 22.5772C106.828 22.3428 107.391 22.2216 108.074 22.2216C108.4 22.2216 108.711 22.2535 109.006 22.317C109.305 22.3809 109.582 22.463 109.837 22.562C110.093 22.6616 110.316 22.7675 110.504 22.8791C110.67 22.978 110.811 23.0708 110.927 23.1564V30.893C110.723 30.9517 110.44 31.0094 110.074 31.0653C109.655 31.1294 109.098 31.162 108.402 31.1621C107.212 31.1621 106.267 30.7777 105.555 30.0157ZM123.507 30.1453C124.188 29.2827 124.52 28.1266 124.52 26.6918C124.52 25.3022 124.208 24.1706 123.57 23.3102L123.507 23.2278L123.442 23.147C122.764 22.3267 121.855 21.9166 120.729 21.9166C119.566 21.9166 118.635 22.3536 117.951 23.2278C117.27 24.0979 116.937 25.2575 116.937 26.6918C116.937 28.1266 117.27 29.2827 117.951 30.1453C118.636 31.0124 119.566 31.4452 120.729 31.4452C121.891 31.4452 122.822 31.0124 123.507 30.1453ZM125.638 29.1646C125.899 28.419 126.029 27.5944 126.029 26.6918C126.029 25.7898 125.899 24.9649 125.638 24.219C125.378 23.4752 125.012 22.8357 124.54 22.3032C124.068 21.7714 123.508 21.3583 122.864 21.0658C122.217 20.7727 121.505 20.6273 120.729 20.6273C119.953 20.6273 119.24 20.7727 118.594 21.0658C117.949 21.3583 117.39 21.7714 116.918 22.3032C116.446 22.8357 116.08 23.4751 115.82 24.219C115.559 24.965 115.429 25.7898 115.429 26.6918C115.429 27.5943 115.559 28.419 115.82 29.1646C116.08 29.9089 116.446 30.545 116.919 31.0703L117.008 31.1673C117.461 31.6457 117.99 32.022 118.594 32.296L118.716 32.3494C119.33 32.6069 120.001 32.7348 120.729 32.7348C121.505 32.7348 122.217 32.5891 122.864 32.296L122.983 32.2399C123.577 31.9522 124.096 31.5623 124.539 31.0703C125.012 30.545 125.378 29.9089 125.638 29.1646ZM72.7297 32.2042L72.8307 32.1738V24.9432C72.8306 24.3342 72.7556 23.7674 72.6064 23.2433C72.4554 22.7152 72.2128 22.2556 71.8778 21.8674C71.5408 21.4768 71.1024 21.1731 70.5678 20.9544L70.4652 20.9146C69.9469 20.7217 69.332 20.6273 68.6234 20.6273C67.8889 20.6273 67.2557 20.6787 66.7271 20.7827C66.207 20.8854 65.8105 20.9974 65.547 21.1214L65.4511 21.1664L65.6913 22.6903L65.8548 22.6275C66.038 22.5571 66.3317 22.4639 66.739 22.3474C67.1274 22.2364 67.7306 22.1779 68.5578 22.1779C69.1274 22.1779 69.5729 22.2673 69.9033 22.4356C70.2411 22.6082 70.4986 22.8331 70.68 23.1086C70.842 23.3547 70.9544 23.6272 71.0171 23.9276L71.0408 24.0581C71.0977 24.4224 71.1266 24.7973 71.1266 25.1838V25.684C71.0832 25.6718 71.0355 25.6595 70.9842 25.6472L70.9839 25.6469C70.8272 25.6098 70.6415 25.5729 70.4287 25.536C70.2138 25.4992 69.9919 25.4691 69.7629 25.447C69.5327 25.4248 69.3134 25.4135 69.1045 25.4135C68.4103 25.4135 67.766 25.48 67.1717 25.6137C66.5745 25.748 66.0548 25.9621 65.6156 26.2574C65.1743 26.5542 64.8304 26.9318 64.5864 27.39C64.3399 27.852 64.2201 28.4008 64.2201 29.0305C64.2201 29.6456 64.3147 30.1804 64.5101 30.6306L64.5505 30.7196C64.7706 31.1838 65.0764 31.5655 65.4668 31.8641C65.8548 32.1607 66.3095 32.3763 66.8283 32.5117C67.3444 32.6462 67.9064 32.713 68.5144 32.713C68.9842 32.713 69.4433 32.6945 69.8917 32.6579C70.3389 32.6212 70.747 32.5731 71.1155 32.5144C71.4804 32.4563 71.8024 32.4014 72.0808 32.3499L72.2779 32.312C72.4636 32.2746 72.6147 32.2388 72.7297 32.2042ZM99.9189 32.2042L100.02 32.1738V24.9432C100.02 24.4103 99.9625 23.9098 99.8481 23.4418L99.7956 23.2433C99.654 22.7482 99.4319 22.3133 99.1289 21.9409L99.0672 21.8674C98.73 21.4768 98.2916 21.1734 97.7569 20.9546L97.7566 20.9544C97.2178 20.7347 96.5686 20.6273 95.8128 20.6273C95.078 20.6273 94.4451 20.6787 93.9165 20.7827C93.396 20.8855 92.9999 20.9975 92.7361 21.1214L92.6399 21.1664L92.8808 22.6903L93.0442 22.6275C93.2271 22.5571 93.5209 22.4638 93.9284 22.3474C94.3165 22.2364 94.9198 22.1779 95.747 22.1779C96.3167 22.1779 96.7623 22.2673 97.0925 22.4356L97.2152 22.5028C97.4933 22.6652 97.7101 22.8676 97.8692 23.1086C98.0311 23.3547 98.1434 23.6271 98.2062 23.9276L98.2303 24.0581C98.2871 24.4223 98.3157 24.7973 98.3157 25.1838V25.684C98.2723 25.6718 98.2247 25.6595 98.1733 25.6472C98.0168 25.6101 97.8313 25.5729 97.6181 25.536C97.4034 25.4992 97.1811 25.4691 96.9517 25.447C96.7218 25.4248 96.5023 25.4135 96.2934 25.4135C95.5995 25.4136 94.9551 25.48 94.3609 25.6137C93.7636 25.748 93.2442 25.9621 92.805 26.2574C92.3637 26.5542 92.0196 26.9318 91.7753 27.39C91.5287 27.852 91.4089 28.4008 91.4089 29.0305C91.4089 29.6457 91.504 30.1805 91.6993 30.6306L91.7396 30.7196C91.96 31.1837 92.2656 31.5656 92.6557 31.8641C93.0436 32.1607 93.4984 32.3763 94.0175 32.5117C94.5332 32.6462 95.0953 32.7129 95.7033 32.713C96.1731 32.713 96.6324 32.6945 97.0811 32.6579L97.4093 32.6281C97.7299 32.5963 98.0286 32.5584 98.3049 32.5144C98.6698 32.4563 98.9913 32.4011 99.2696 32.3496C99.5478 32.2984 99.7655 32.2504 99.9189 32.2042ZM144.681 32.2042L144.781 32.1738V24.9432C144.781 24.4103 144.724 23.9098 144.61 23.4418L144.557 23.2433C144.416 22.7482 144.194 22.3132 143.891 21.9409L143.829 21.8674C143.492 21.4768 143.053 21.1734 142.519 20.9546L142.518 20.9544C141.98 20.7347 141.33 20.6273 140.575 20.6273C139.84 20.6273 139.207 20.6788 138.678 20.7827C138.158 20.8854 137.761 20.9974 137.498 21.1214L137.402 21.1664L137.418 21.2715L137.642 22.6903L137.805 22.6275C137.989 22.5571 138.283 22.4639 138.69 22.3474C139.078 22.2364 139.682 22.1779 140.509 22.1779C141.078 22.1779 141.524 22.2673 141.854 22.4356L141.977 22.5028C142.255 22.6652 142.472 22.8675 142.631 23.1086C142.793 23.3547 142.905 23.6272 142.968 23.9276L142.992 24.0581C143.049 24.4224 143.077 24.7973 143.077 25.1838V25.684C143.034 25.6718 142.986 25.6595 142.935 25.6472L142.935 25.6469C142.778 25.6098 142.592 25.5729 142.38 25.536C142.165 25.4992 141.943 25.4691 141.713 25.447C141.484 25.4248 141.264 25.4135 141.055 25.4135C140.361 25.4135 139.717 25.48 139.123 25.6137C138.525 25.748 138.006 25.9621 137.566 26.2574C137.125 26.5542 136.781 26.9318 136.537 27.39C136.291 27.852 136.171 28.4008 136.171 29.0305C136.171 29.6456 136.266 30.1804 136.461 30.6306L136.501 30.7196C136.722 31.1838 137.027 31.5655 137.418 31.8641C137.806 32.1607 138.26 32.3763 138.779 32.5117C139.295 32.6462 139.857 32.713 140.465 32.713C140.935 32.713 141.394 32.6945 141.843 32.6579L142.171 32.6281C142.492 32.5963 142.79 32.5584 143.067 32.5144C143.431 32.4563 143.753 32.4014 144.032 32.3499C144.31 32.2987 144.527 32.2503 144.681 32.2042ZM55.0656 21.8157C54.9047 21.521 54.8206 21.1524 54.8206 20.703C54.8206 20.2689 54.9009 19.9061 55.0556 19.6103L55.1173 19.4997C55.2675 19.2476 55.4622 19.0353 55.7018 18.8615L55.8072 18.7896C56.0589 18.6275 56.3523 18.5058 56.6895 18.4257C57.0779 18.3341 57.5078 18.2872 57.9794 18.2872C58.6668 18.2872 59.3055 18.3732 59.8961 18.5441C60.4891 18.7155 60.9884 18.943 61.3961 19.224L61.5394 19.3227L62.1316 17.9167L62.1761 17.8105L62.0816 17.7453C61.8813 17.6069 61.6352 17.4786 61.3444 17.3593C61.0541 17.2401 60.735 17.1329 60.3886 17.0366C60.127 16.9644 59.8516 16.9029 59.5621 16.8516L59.2676 16.8038C58.8674 16.7447 58.4595 16.7147 58.0449 16.7147C56.4958 16.7148 55.2663 17.054 54.3735 17.75C53.4725 18.4525 53.0292 19.4811 53.0291 20.8122C53.0291 21.3953 53.1224 21.9107 53.3139 22.3546L53.3507 22.4367C53.5392 22.8448 53.8046 23.2083 54.1451 23.5275C54.5054 23.8654 54.9387 24.1668 55.4436 24.4325C55.9437 24.6959 56.5092 24.9511 57.1388 25.1984C57.6343 25.4013 58.1083 25.5933 58.5606 25.7744L58.7237 25.8424C59.0991 26.0054 59.4349 26.1956 59.7316 26.4125C60.0652 26.6562 60.3322 26.9554 60.5334 27.3098C60.7295 27.6555 60.8323 28.0935 60.8323 28.6309C60.8323 29.5595 60.5189 30.206 59.9124 30.6046C59.2887 31.0145 58.402 31.2276 57.2361 31.2276C56.7325 31.2276 56.2745 31.1917 55.8614 31.1203C55.4441 31.0485 55.0718 30.9589 54.7446 30.8521C54.4132 30.7441 54.1279 30.6335 53.8869 30.52C53.6409 30.4043 53.4492 30.3045 53.3095 30.2206L53.1632 30.1329L52.623 31.5818L52.582 31.6921L52.6827 31.7527C52.8352 31.8445 53.0456 31.9495 53.3098 32.0668C53.5798 32.1872 53.9071 32.3019 54.2903 32.4124C54.6759 32.5234 55.1122 32.6154 55.5976 32.6892L55.7834 32.7152C56.2222 32.7718 56.6992 32.8001 57.2143 32.8001C58.8643 32.8001 60.19 32.4543 61.1763 31.7463C62.1741 31.0304 62.6669 29.9564 62.6669 28.5496C62.6669 27.8353 62.5478 27.2225 62.3031 26.7175C62.0618 26.2197 61.7364 25.7959 61.3278 25.4473C60.9234 25.1031 60.4495 24.8052 59.9077 24.5528C59.3737 24.3041 58.8073 24.0557 58.2086 23.8071H58.208C57.8371 23.6545 57.4871 23.5059 57.1576 23.3616L56.8349 23.2187L56.682 23.1479C56.3813 23.0046 56.1123 22.85 55.8744 22.6842L55.758 22.6004L55.6493 22.5152C55.4034 22.3126 55.2096 22.0794 55.0656 21.8157Z" fill="white"/>
<path fill-rule="evenodd" clip-rule="evenodd" d="M11.6523 0.00018097L11.6496 0H10.4114C7.56949 0.111635 5.43439 0.994383 3.86085 2.43912C2.28864 3.88265 1.28472 5.88014 0.690972 8.20864C0.379474 9.42904 0.23504 10.8987 0.402686 12.2689C0.548512 13.4621 0.904143 14.599 1.29777 15.5754L1.37685 15.7687C1.94687 17.1368 2.62314 18.392 3.29506 19.6391C3.65833 20.3134 4.02035 20.9853 4.36359 21.6714C5.34422 23.6315 6.18219 25.7249 6.4956 28.37C7.11816 33.623 7.9691 38.6873 9.78021 42.8704C10.2056 43.8531 10.7571 44.8368 11.443 45.6847C12.1061 46.5045 13.0107 47.2927 14.2323 47.4352L14.2375 47.4358H14.7783L14.7862 47.4345C16.7277 47.0907 17.9159 45.8307 18.9547 44.6092C19.1605 44.3671 19.3558 44.1148 19.5461 43.8587L19.5499 43.8537L19.553 43.8479C19.6932 43.5913 19.7922 43.195 19.8661 42.7016C19.9404 42.2054 19.9907 41.6006 20.0284 40.9203C20.0746 40.0861 20.1021 39.1334 20.1313 38.1232L20.1313 38.1229C20.1497 37.4873 20.1687 36.8288 20.1934 36.163L20.1945 36.1335L20.1784 36.1088C19.8242 35.5665 18.3941 33.3679 17.6629 32.0824L17.6204 32.0077L17.5428 32.0444C17.3002 32.1595 16.9569 32.2159 16.5608 32.2285C16.1667 32.2409 15.7291 32.2099 15.3034 32.1563C14.5035 32.0555 13.7567 31.8766 13.4324 31.7657L13.3732 31.7446C12.0779 31.2505 11.0329 29.9356 10.2428 28.4545C9.48137 27.0273 8.96619 25.4637 8.69475 24.3832C10.645 24.3474 12.9384 24.8509 14.7509 25.9497C16.5965 27.0686 17.9361 28.7985 17.9233 31.2024L17.9183 31.3995L17.942 31.4266L17.9864 31.4776L17.9876 31.479C18.2635 31.796 18.5141 32.0839 18.7173 32.319C19.1784 32.8501 19.6735 33.3312 20.12 33.7303L20.2687 33.8635L20.2743 33.6639C20.3327 31.56 20.3714 29.3332 20.3834 27.2058V27.1521L20.3684 27.1291C20.1172 26.745 18.991 25.0134 18.5323 24.1717C18.5272 24.162 18.5213 24.1512 18.5153 24.1405C18.5125 24.1355 18.5096 24.1304 18.5068 24.1255L18.4691 24.0607L18.398 24.0841C18.0617 24.1941 17.5229 24.1736 17.0109 24.1036C16.502 24.034 16.0426 23.919 15.8748 23.8552C15.0644 23.546 14.406 22.7208 13.9054 21.7825C13.4334 20.8977 13.1106 19.9293 12.9362 19.2473C14.1593 19.2329 15.5884 19.5518 16.7195 20.2374C17.8835 20.9429 18.7243 22.0308 18.7165 23.5414L18.7098 23.7893C18.7097 23.7901 18.7094 23.791 18.7092 23.792C18.709 23.793 18.7088 23.7942 18.7085 23.7955C18.7077 23.7996 18.7069 23.8048 18.7064 23.8106L18.7031 23.8495L18.7287 23.879C18.8191 23.9833 18.9063 24.0836 18.9887 24.1784L18.9898 24.1797L18.99 24.1799C19.1096 24.3175 19.219 24.4434 19.3137 24.553C19.6222 24.9094 19.953 25.2314 20.2533 25.5009L20.4032 25.6354L20.4079 25.4341C20.4364 24.2204 20.4857 23.2412 20.544 22.4526L20.547 22.4094L20.5159 22.3792C19.732 21.6186 19.5529 20.5974 19.7292 19.5788C19.8987 18.6 20.3957 17.6333 20.985 16.9294C21.3096 17.3772 21.7277 18.0485 22.0238 18.767C22.3428 19.5413 22.512 20.3502 22.2959 20.9915C22.2576 21.1043 22.1346 21.3676 21.9649 21.6585C21.7955 21.9492 21.585 22.2579 21.3752 22.4657L21.3446 22.4959L21.348 22.5388C21.439 23.6879 21.5067 25.2222 21.5093 27.2579L21.512 27.7022L21.5145 27.9047L21.6662 27.7705C21.9872 27.4859 22.3509 27.137 22.6877 26.7483L23.2846 26.0625L23.3083 26.0351L23.3074 25.9989L23.3029 25.8467C23.2952 24.3366 24.1361 23.2489 25.3001 22.5433C26.4311 21.8577 27.8602 21.5385 29.0832 21.5529C28.9088 22.2346 28.5862 23.2028 28.1141 24.0875C27.6135 25.0258 26.9551 25.8511 26.1446 26.1602C25.9714 26.2261 25.4879 26.3463 24.9604 26.415C24.6976 26.4492 24.4267 26.4702 24.1807 26.4657C23.9331 26.461 23.7181 26.4305 23.5626 26.3668L23.4862 26.3355L23.4464 26.4079C23.1806 26.8905 22.7149 27.6387 22.3146 28.2681C22.1147 28.5824 21.9314 28.8664 21.7981 29.0718C21.7347 29.1696 21.6825 29.2496 21.6454 29.3065L21.5415 29.1981L21.5494 29.4403C21.6435 32.2465 21.9011 35.2681 22.2578 37.8366L22.2809 38.0034L22.4094 37.8945C22.9969 37.3963 23.7185 36.7297 24.3764 35.9709L24.9975 35.2554L24.9964 35.2194L24.9897 34.9698C24.9769 32.5667 26.3162 30.837 28.1617 29.7182C29.9742 28.6195 32.2677 28.1159 34.2179 28.1516C33.9467 29.2319 33.4319 30.7957 32.6704 32.2229C31.8801 33.704 30.8346 35.0188 29.5391 35.5122C29.2719 35.6143 28.5539 35.7944 27.7582 35.9049C26.9596 36.0158 26.1051 36.0531 25.5563 35.8837L25.4857 35.8618L25.4488 35.9257C24.5254 37.5159 22.8537 40.0705 22.6894 40.32L22.6686 40.3515L22.6758 40.3886C22.9664 41.8844 23.2963 43.0618 23.6478 43.6736C23.6675 43.7085 23.6844 43.7422 23.7028 43.7785L23.7064 43.7856L23.7113 43.7921C23.9197 44.0709 24.1329 44.3457 24.3568 44.6092C25.395 45.8293 26.5852 47.092 28.5249 47.4345L28.5329 47.4358H29.0751L29.0812 47.4351C30.3114 47.2671 31.1909 46.5352 31.8684 45.7077C32.5447 44.8797 33.0688 43.8637 33.5087 42.8712C35.33 38.7615 36.1982 33.5821 36.8157 28.37C37.1278 25.7372 37.965 23.646 38.9456 21.6839C39.2882 20.9984 39.6495 20.3265 40.0122 19.6521L40.0125 19.6516C40.6853 18.4006 41.3629 17.1407 41.9345 15.7685C42.3565 14.7552 42.7527 13.544 42.9088 12.2689C43.0669 10.9765 42.9488 9.61074 42.6766 8.4401L42.6204 8.20864C42.0266 5.87949 41.0289 3.88498 39.4597 2.4431C37.8892 0.999992 35.754 0.117691 32.8999 0H31.6615L31.6588 0.00018097C27.7046 0.230988 24.5778 1.28967 21.656 2.54426C18.7337 1.28967 15.6067 0.231546 11.6523 0.00018097ZM32.896 0.0926568C38.5677 0.326522 41.3486 3.59546 42.5305 8.23163C42.8398 9.44192 42.9838 10.8922 42.8168 12.2576C42.6621 13.5216 42.269 14.7243 41.8489 15.7329C41.2789 17.1014 40.6054 18.3534 39.9342 19.6014C38.5361 22.2006 37.1476 24.7818 36.7237 28.3591C36.1062 33.5707 35.2392 38.7378 33.424 42.8336C32.9852 43.8237 32.465 44.8307 31.7966 45.6491C31.1265 46.4676 30.2663 47.1798 29.0688 47.3432H28.541C26.6363 47.0069 25.4648 45.7684 24.4274 44.5492C24.2052 44.2877 23.9932 44.0146 23.7855 43.7366L23.7814 43.7286L23.7775 43.7209C23.762 43.6904 23.7463 43.6597 23.7284 43.628C23.3854 43.0315 23.0577 41.8683 22.7668 40.371C22.931 40.1217 24.604 37.5649 25.5289 35.9722C26.6691 36.3243 29.0195 35.81 29.5723 35.5988C32.2285 34.5871 33.8076 30.2369 34.3361 28.0615C30.3563 27.9444 24.8694 30.0818 24.897 34.9724L24.9038 35.2218C24.6815 35.4772 24.4787 35.7111 24.3064 35.9103C23.6526 36.6643 22.9347 37.3275 22.3495 37.8238C21.9933 35.2587 21.7361 32.2403 21.6421 29.4371L21.6592 29.4549C21.6592 29.4549 22.9927 27.4236 23.5275 26.4526C24.2121 26.733 25.8126 26.3857 26.1777 26.2467C27.8637 25.6037 28.8655 22.8431 29.2014 21.4627C26.6754 21.3887 23.1928 22.7447 23.2102 25.8494L23.2147 26.0015C23.0166 26.2285 22.8348 26.4378 22.6833 26.6122L22.6178 26.6876C22.2844 27.0723 21.9238 27.4183 21.6047 27.7011C21.6028 27.5524 21.6023 27.404 21.6019 27.2578C21.5993 25.2201 21.5315 23.6835 21.4403 22.5315C21.8773 22.099 22.3013 21.264 22.3838 21.0212C22.8383 19.6725 21.662 17.6782 20.9906 16.7805C19.7271 18.2228 18.8268 20.8697 20.4515 22.4457C20.3931 23.2361 20.3438 24.2168 20.3153 25.4319C20.0169 25.1641 19.6889 24.845 19.3837 24.4924C19.2876 24.3811 19.1762 24.253 19.0546 24.113C18.9889 24.0375 18.9203 23.9585 18.8495 23.8769C18.8327 23.8575 18.8157 23.838 18.7987 23.8184C18.799 23.8144 18.7999 23.8107 18.8007 23.807C18.8013 23.8046 18.8018 23.8022 18.8022 23.7998L18.8092 23.5439C18.8268 20.4384 15.3441 19.083 12.818 19.157C13.154 20.5379 14.1558 23.2987 15.8418 23.9418C16.1959 24.0765 17.71 24.4066 18.4267 24.1721C18.4347 24.1858 18.4431 24.2012 18.4503 24.2149C18.9108 25.0603 20.0403 26.7967 20.2908 27.1798V27.2053C20.2788 29.332 20.24 31.558 20.1817 33.6613C19.7373 33.264 19.2451 32.7857 18.7872 32.2583C18.5817 32.0205 18.3278 31.7288 18.0483 31.4077L18.0118 31.3658L18.0159 31.2048C18.0433 26.3129 12.5566 24.1757 8.57677 24.2931C9.10584 26.4687 10.6843 30.8182 13.3403 31.8311C13.9273 32.0543 16.5434 32.621 17.5825 32.1282C18.3154 33.4167 19.7471 35.6178 20.1009 36.1595C20.076 36.8275 20.057 37.4869 20.0387 38.1229C19.9621 40.7767 19.8972 43.0248 19.4717 43.8035C19.2822 44.0587 19.0881 44.3092 18.8841 44.5492C17.8462 45.7697 16.6766 47.0056 14.7701 47.3432H14.2429C13.0569 47.2048 12.172 46.4389 11.5149 45.6265C10.8356 44.7866 10.2881 43.8106 9.86525 42.8336C8.05993 38.6638 7.21008 33.6113 6.58761 28.3591C6.16165 24.764 4.77152 22.184 3.37358 19.5894C2.70315 18.3451 2.03092 17.0975 1.46239 15.7329C1.03988 14.7195 0.648865 13.5192 0.494684 12.2576C0.328644 10.9005 0.471704 9.44266 0.780807 8.23163C1.96256 3.59712 4.76802 0.314477 10.4151 0.0926568H11.6469C15.6029 0.324113 18.7284 1.38596 21.656 2.64517C24.5831 1.38596 27.7084 0.323557 31.6643 0.0926568H32.896ZM10.1579 0.197801C7.48351 0.350304 5.47447 1.209 3.98608 2.57557C2.44837 3.98743 1.45867 5.94862 0.870676 8.2546C0.563976 9.45623 0.422309 10.9023 0.586733 12.2463C0.730002 13.4186 1.07981 14.5394 1.46951 15.5061L1.54787 15.6974L1.63075 15.8935C2.1794 17.1778 2.8153 18.3578 3.45188 19.5391C3.81623 20.2153 4.1808 20.8918 4.52935 21.5885C5.51527 23.5592 6.3628 25.6741 6.67964 28.3483C7.30201 33.5996 8.15079 38.6404 9.95032 42.7968C10.3707 43.7681 10.9142 44.7364 11.587 45.5682C12.2371 46.3719 13.1005 47.1145 14.2482 47.2505H14.7618C16.6286 46.917 17.7779 45.707 18.8135 44.4892C19.0143 44.253 19.2056 44.0059 19.3932 43.7536C19.5153 43.5271 19.61 43.1606 19.6829 42.6741C19.7559 42.1864 19.8058 41.5883 19.8434 40.9102C19.8896 40.078 19.9169 39.1302 19.946 38.1226L19.946 38.1221C19.9641 37.4952 19.9828 36.8452 20.0072 36.1854C19.6354 35.6158 18.2779 33.5263 17.5433 32.2458C17.2762 32.353 16.9346 32.402 16.5668 32.4136C16.1598 32.4265 15.7118 32.3945 15.2803 32.3401C14.4729 32.2384 13.7116 32.0575 13.3699 31.9404L13.3073 31.9177C11.9468 31.3989 10.8745 30.0325 10.0792 28.5417C9.28183 27.0472 8.75265 25.4081 8.48681 24.315L8.45967 24.2039L8.57404 24.2004C10.5791 24.1413 12.9639 24.6495 14.847 25.7912C16.7325 26.9342 18.1226 28.7182 18.1086 31.2053L18.1085 31.2071L18.1052 31.3321L18.1814 31.4197L18.1846 31.4233L18.185 31.4238C18.4381 31.7145 18.6681 31.9787 18.8571 32.1975C19.2613 32.663 19.6927 33.0903 20.0943 33.4573C20.1495 31.415 20.1863 29.2644 20.198 27.2069C19.9227 26.7858 18.8424 25.1223 18.3814 24.2817C18.0027 24.3808 17.4661 24.3528 16.9857 24.2871C16.4699 24.2166 15.9952 24.0992 15.8089 24.0283C14.9333 23.6944 14.2476 22.8178 13.7418 21.8697C13.234 20.9179 12.8973 19.8747 12.728 19.1789L12.7009 19.0678L12.8153 19.0643C14.0934 19.0269 15.6138 19.3506 16.8154 20.0788C18.0194 20.8086 18.9109 21.9506 18.9018 23.5444V23.5464L18.8951 23.788C18.9708 23.8752 19.0442 23.9597 19.1142 24.0403C19.115 24.0411 19.1157 24.042 19.1164 24.0428C19.2412 24.1865 19.3555 24.318 19.4538 24.4317L19.568 24.5609C19.7857 24.8025 20.0118 25.0264 20.2278 25.2265C20.2564 24.1244 20.3021 23.2208 20.3559 22.481C19.5422 21.669 19.3655 20.5932 19.5466 19.5472C19.7298 18.4894 20.2794 17.4518 20.9209 16.7195L20.9962 16.6334L21.0648 16.7251C21.4038 17.1783 21.8702 17.908 22.1951 18.6964C22.5184 19.4809 22.7099 20.3435 22.4715 21.0508C22.4273 21.1808 22.2973 21.4566 22.1251 21.7519C21.9604 22.0343 21.7519 22.3434 21.5357 22.5665C21.6197 23.6437 21.6835 25.0512 21.6933 26.8812L21.6946 27.2578C21.6948 27.336 21.6956 27.4147 21.696 27.4937C21.9724 27.2411 22.27 26.9475 22.5479 26.6269L23.121 25.968L23.1175 25.8522V25.85C23.1086 24.2565 24 23.1146 25.204 22.3848C26.4056 21.6564 27.9259 21.3327 29.2041 21.3701L29.3185 21.3733L29.2915 21.4846C29.1223 22.1801 28.7853 23.2231 28.2776 24.1747C27.7876 25.093 27.129 25.9445 26.2923 26.3004L26.2107 26.3334C26.0188 26.4064 25.5195 26.5292 24.9844 26.5988C24.7159 26.6338 24.4353 26.6558 24.1773 26.651C23.9549 26.6468 23.7436 26.6225 23.5696 26.5663C23.296 27.0547 22.8526 27.7677 22.4709 28.3677C22.2707 28.6825 22.087 28.967 21.9535 29.1728C21.9138 29.2341 21.8785 29.2884 21.8484 29.3345C21.8395 29.3482 21.8311 29.3611 21.8231 29.3733C21.8129 29.3889 21.8035 29.4033 21.795 29.4164C21.7763 29.4451 21.7617 29.4675 21.7518 29.4826L21.7405 29.4998L21.7376 29.5041L21.7373 29.5045C21.8309 32.2234 22.0777 35.1391 22.4185 37.6422C22.9757 37.1619 23.6339 36.5443 24.2363 35.8495C24.4025 35.6574 24.597 35.4329 24.8102 35.1881L24.8044 34.9749V34.9729C24.7903 32.4865 26.1803 30.7029 28.0658 29.5599C29.949 28.4183 32.3337 27.9098 34.3388 27.9688L34.4532 27.9722L34.4262 28.0833C34.1607 29.1764 33.6313 30.8155 32.8338 32.3101C32.0384 33.8008 30.9659 35.167 29.6052 35.6852L29.6053 35.6854C29.3197 35.7945 28.5862 35.9771 27.7837 36.0886C27.0151 36.1953 26.1625 36.2395 25.5722 36.0808C24.6701 37.6264 23.1138 40.0108 22.8649 40.3899C23.1542 41.8702 23.477 43.0051 23.8087 43.5818L23.809 43.5824C23.8295 43.6187 23.8472 43.6539 23.8639 43.6868C24.0696 43.962 24.279 44.2315 24.498 44.4892L24.6938 44.7174C25.68 45.8542 26.8011 46.9391 28.5494 47.2505H29.0622C30.2239 47.0899 31.0633 46.3985 31.7249 45.5904L31.847 45.4366C32.4496 44.657 32.9289 43.722 33.3393 42.7961C35.1483 38.7141 36.0143 33.5593 36.6317 28.3483C36.9472 25.6863 37.794 23.5736 38.7798 21.601C39.1278 20.9046 39.4919 20.2279 39.8559 19.5513C40.5256 18.3064 41.195 17.062 41.7635 15.6974C42.1816 14.6934 42.5714 13.4991 42.7248 12.2463C42.8901 10.894 42.7475 9.4555 42.4407 8.2546C41.8525 5.94767 40.8689 3.98962 39.3343 2.57955C37.8489 1.2147 35.84 0.356274 33.1542 0.198344L32.8923 0.185314H31.667C27.7272 0.415675 24.6137 1.47365 21.6926 2.7303L21.656 2.74604L21.6195 2.7303C18.6979 1.47366 15.5842 0.416235 11.6442 0.185314H10.4187L10.1579 0.197801Z" fill="white"/>
<path fill-rule="evenodd" clip-rule="evenodd" d="M42.5305 8.23163C41.3486 3.59546 38.5677 0.326522 32.896 0.0926568H31.6643C27.7084 0.323557 24.5831 1.38596 21.656 2.64517C18.7284 1.38596 15.6029 0.324113 11.6469 0.0926568H10.4151C4.76802 0.314477 1.96256 3.59712 0.780807 8.23163C0.471704 9.44266 0.328644 10.9005 0.494684 12.2576C0.648865 13.5192 1.03988 14.7195 1.46239 15.7329C2.03092 17.0975 2.70315 18.3451 3.37358 19.5894C4.77152 22.184 6.16165 24.764 6.58761 28.3591C7.21008 33.6113 8.05993 38.6638 9.86525 42.8336C10.2881 43.8106 10.8356 44.7866 11.5149 45.6265C12.172 46.4389 13.0569 47.2048 14.2429 47.3432H14.7701C16.6766 47.0056 17.8462 45.7697 18.8841 44.5492C19.0881 44.3092 19.2822 44.0587 19.4717 43.8035C19.8972 43.0248 19.9621 40.7767 20.0387 38.1229C20.057 37.4869 20.076 36.8275 20.1009 36.1595C19.7471 35.6178 18.3154 33.4167 17.5825 32.1282C16.5434 32.621 13.9273 32.0543 13.3403 31.8311C10.6843 30.8182 9.10584 26.4687 8.57677 24.2931C12.5566 24.1757 18.0433 26.3129 18.0159 31.2048L18.0118 31.3658L18.0483 31.4077C18.3278 31.7288 18.5817 32.0205 18.7872 32.2583C19.2451 32.7857 19.7373 33.264 20.1817 33.6613C20.24 31.558 20.2788 29.332 20.2908 27.2053V27.1798C20.0403 26.7967 18.9108 25.0603 18.4503 24.2149C18.4431 24.2012 18.4347 24.1858 18.4267 24.1721C17.71 24.4066 16.1959 24.0765 15.8418 23.9418C14.1558 23.2987 13.154 20.5379 12.818 19.157C15.3441 19.083 18.8268 20.4384 18.8092 23.5439L18.8022 23.7998C18.8018 23.8022 18.8013 23.8046 18.8007 23.807C18.7999 23.8107 18.799 23.8144 18.7987 23.8184L18.8495 23.8769C18.9203 23.9585 18.9889 24.0375 19.0546 24.113C19.1762 24.253 19.2876 24.3811 19.3837 24.4924C19.6889 24.845 20.0169 25.1641 20.3153 25.4319C20.3438 24.2168 20.3931 23.2361 20.4515 22.4457C18.8268 20.8697 19.7271 18.2228 20.9906 16.7805C21.662 17.6782 22.8383 19.6725 22.3838 21.0212C22.3013 21.264 21.8773 22.099 21.4403 22.5315C21.5315 23.6835 21.5993 25.2201 21.6019 27.2578C21.6023 27.404 21.6028 27.5524 21.6047 27.7011C21.9238 27.4183 22.2844 27.0723 22.6178 26.6876L22.6833 26.6122C22.8348 26.4378 23.0166 26.2285 23.2147 26.0015L23.2102 25.8494C23.1928 22.7447 26.6754 21.3887 29.2014 21.4627C28.8655 22.8431 27.8637 25.6037 26.1777 26.2467C25.8126 26.3857 24.2121 26.733 23.5275 26.4526C22.9927 27.4236 21.6592 29.4549 21.6592 29.4549L21.6421 29.4371C21.7361 32.2403 21.9933 35.2587 22.3495 37.8238C22.9347 37.3275 23.6526 36.6643 24.3064 35.9103C24.4787 35.7111 24.6815 35.4772 24.9038 35.2218L24.897 34.9724C24.8694 30.0818 30.3563 27.9444 34.3361 28.0615C33.8076 30.2369 32.2285 34.5871 29.5723 35.5988C29.0195 35.81 26.6691 36.3243 25.5289 35.9722C24.604 37.5649 22.931 40.1217 22.7668 40.371C23.0577 41.8683 23.3854 43.0315 23.7284 43.628C23.7463 43.6597 23.762 43.6904 23.7775 43.7209L23.7814 43.7286L23.7855 43.7366C23.9932 44.0146 24.2052 44.2877 24.4274 44.5492C25.4648 45.7684 26.6363 47.0069 28.541 47.3432H29.0688C30.2663 47.1798 31.1265 46.4676 31.7966 45.6491C32.465 44.8307 32.9852 43.8237 33.424 42.8336C35.2392 38.7378 36.1062 33.5707 36.7237 28.3591C37.1476 24.7818 38.5361 22.2006 39.9342 19.6014C40.6054 18.3534 41.2789 17.1014 41.8489 15.7329C42.269 14.7243 42.6621 13.5216 42.8168 12.2576C42.9838 10.8922 42.8398 9.44192 42.5305 8.23163ZM3.98608 2.57557C5.47447 1.209 7.48351 0.350304 10.1579 0.197801L10.4187 0.185314H11.6442C15.5842 0.416235 18.6979 1.47366 21.6195 2.7303L21.656 2.74604L21.6926 2.7303C24.6137 1.47365 27.7272 0.415675 31.667 0.185314H32.8923L33.1542 0.198344C35.84 0.356274 37.8489 1.2147 39.3343 2.57955C40.8689 3.98962 41.8525 5.94767 42.4407 8.2546C42.7475 9.4555 42.8901 10.894 42.7248 12.2463C42.5714 13.4991 42.1816 14.6934 41.7635 15.6974C41.195 17.062 40.5256 18.3064 39.8559 19.5513C39.4919 20.2279 39.1278 20.9046 38.7798 21.601C37.794 23.5736 36.9472 25.6863 36.6317 28.3483C36.0143 33.5593 35.1483 38.7141 33.3393 42.7961C32.9289 43.722 32.4496 44.657 31.847 45.4366L31.7249 45.5904C31.0633 46.3985 30.2239 47.0899 29.0622 47.2505H28.5494C26.8011 46.9391 25.68 45.8542 24.6938 44.7174L24.498 44.4892C24.279 44.2315 24.0696 43.962 23.8639 43.6868C23.8472 43.6539 23.8295 43.6187 23.809 43.5824L23.8087 43.5818C23.477 43.0051 23.1542 41.8702 22.8649 40.3899C23.1138 40.0108 24.6701 37.6264 25.5722 36.0808C26.1625 36.2395 27.0151 36.1953 27.7837 36.0886C28.5862 35.9771 29.3197 35.7945 29.6053 35.6854L29.6052 35.6852C30.9659 35.167 32.0384 33.8008 32.8338 32.3101C33.6313 30.8155 34.1607 29.1764 34.4262 28.0833L34.4532 27.9722L34.3388 27.9688C32.3337 27.9098 29.949 28.4183 28.0658 29.5599C26.1803 30.7029 24.7903 32.4865 24.8044 34.9729V34.9749L24.8102 35.1881C24.597 35.4329 24.4025 35.6574 24.2363 35.8495C23.6339 36.5443 22.9757 37.1619 22.4185 37.6422C22.0777 35.1391 21.8309 32.2234 21.7373 29.5045L21.7376 29.5041L21.7405 29.4998L21.7518 29.4826C21.7617 29.4675 21.7763 29.4451 21.795 29.4164C21.8035 29.4033 21.8129 29.3889 21.8231 29.3733L21.8484 29.3345C21.8785 29.2884 21.9138 29.2341 21.9535 29.1728C22.087 28.967 22.2707 28.6825 22.4709 28.3677C22.8526 27.7677 23.296 27.0547 23.5696 26.5663C23.7436 26.6225 23.9549 26.6468 24.1773 26.651C24.4353 26.6558 24.7159 26.6338 24.9844 26.5988C25.5195 26.5292 26.0188 26.4064 26.2107 26.3334L26.2923 26.3004C27.129 25.9445 27.7876 25.093 28.2776 24.1747C28.7853 23.2231 29.1223 22.1801 29.2915 21.4846L29.3185 21.3733L29.2041 21.3701C27.9259 21.3327 26.4056 21.6564 25.204 22.3848C24 23.1146 23.1086 24.2565 23.1175 25.85V25.8522L23.121 25.968L22.5479 26.6269C22.27 26.9475 21.9724 27.2411 21.696 27.4937C21.6956 27.4147 21.6948 27.336 21.6946 27.2578L21.6933 26.8812C21.6835 25.0512 21.6197 23.6437 21.5357 22.5665C21.7519 22.3434 21.9604 22.0343 22.1251 21.7519C22.2973 21.4566 22.4273 21.1808 22.4715 21.0508C22.7099 20.3435 22.5184 19.4809 22.1951 18.6964C21.8702 17.908 21.4038 17.1783 21.0648 16.7251L20.9962 16.6334L20.9209 16.7195C20.2794 17.4518 19.7298 18.4894 19.5466 19.5472C19.3655 20.5932 19.5422 21.669 20.3559 22.481C20.3021 23.2208 20.2564 24.1244 20.2278 25.2265C20.0118 25.0264 19.7857 24.8025 19.568 24.5609L19.4538 24.4317C19.3555 24.318 19.2412 24.1865 19.1164 24.0428L19.1142 24.0403C19.0442 23.9597 18.9708 23.8752 18.8951 23.788L18.9018 23.5464V23.5444C18.9109 21.9506 18.0194 20.8086 16.8154 20.0788C15.6138 19.3506 14.0934 19.0269 12.8153 19.0643L12.7009 19.0678L12.728 19.1789C12.8973 19.8747 13.234 20.9179 13.7418 21.8697C14.2476 22.8178 14.9333 23.6944 15.8089 24.0283C15.9952 24.0992 16.4699 24.2166 16.9857 24.2871C17.4661 24.3528 18.0027 24.3808 18.3814 24.2817C18.8424 25.1223 19.9227 26.7858 20.198 27.2069C20.1863 29.2644 20.1495 31.415 20.0943 33.4573C19.6927 33.0903 19.2613 32.663 18.8571 32.1975C18.6681 31.9787 18.4381 31.7145 18.185 31.4238L18.1846 31.4233L18.1814 31.4197L18.1052 31.3321L18.1085 31.2071L18.1086 31.2053C18.1226 28.7182 16.7325 26.9342 14.847 25.7912C12.9639 24.6495 10.5791 24.1413 8.57404 24.2004L8.45967 24.2039L8.48681 24.315C8.75265 25.4081 9.28183 27.0472 10.0792 28.5417C10.8745 30.0325 11.9468 31.3989 13.3073 31.9177L13.3699 31.9404C13.7116 32.0575 14.4729 32.2384 15.2803 32.3401C15.7118 32.3945 16.1598 32.4265 16.5668 32.4136C16.9346 32.402 17.2762 32.353 17.5433 32.2458C18.2779 33.5263 19.6354 35.6158 20.0072 36.1854C19.9828 36.8452 19.9641 37.4952 19.946 38.1221L19.946 38.1226C19.9169 39.1302 19.8896 40.078 19.8434 40.9102C19.8058 41.5883 19.7559 42.1864 19.6829 42.6741C19.61 43.1606 19.5153 43.5271 19.3932 43.7536C19.2056 44.0059 19.0143 44.253 18.8135 44.4892C17.7779 45.707 16.6286 46.917 14.7618 47.2505H14.2482C13.1005 47.1145 12.2371 46.3719 11.587 45.5682C10.9142 44.7364 10.3707 43.7681 9.95032 42.7968C8.15079 38.6404 7.30201 33.5996 6.67964 28.3483C6.3628 25.6741 5.51527 23.5592 4.52935 21.5885C4.1808 20.8918 3.81623 20.2153 3.45188 19.5391C2.8153 18.3578 2.1794 17.1778 1.63075 15.8935L1.54787 15.6974L1.46951 15.5061C1.07981 14.5394 0.730002 13.4186 0.586733 12.2463C0.422309 10.9023 0.563976 9.45623 0.870676 8.2546C1.45867 5.94862 2.44837 3.98743 3.98608 2.57557Z" fill="white"/>
</svg>
