<svg width="40" height="40" viewBox="0 0 40 40" fill="none" xmlns="http://www.w3.org/2000/svg">
<mask id="mask0_8259_9517" style="mask-type:alpha" maskUnits="userSpaceOnUse" x="0" y="0" width="40" height="40">
<rect width="40" height="40" fill="#D9D9D9"/>
</mask>
<g mask="url(#mask0_8259_9517)">
<path d="M18.265 21.7766L15.56 19.097C15.3292 18.8662 15.0433 18.7481 14.7025 18.7428C14.3617 18.7376 14.0619 18.8641 13.8033 19.1224C13.5619 19.3641 13.4412 19.6569 13.4412 20.0008C13.4412 20.3447 13.5619 20.6374 13.8033 20.8791L17.2104 24.2862C17.5118 24.5873 17.8633 24.7378 18.265 24.7378C18.6667 24.7378 19.0182 24.5873 19.3196 24.2862L26.2267 17.3791C26.4744 17.131 26.5967 16.8409 26.5933 16.5087C26.5903 16.1765 26.4681 15.881 26.2267 15.6224C25.9681 15.3641 25.671 15.2306 25.3354 15.222C25.0001 15.2134 24.7032 15.3384 24.4446 15.597L18.265 21.7766ZM14.0312 35.3053L11.7267 31.4303L7.3675 30.4941C6.99361 30.4216 6.695 30.2251 6.47167 29.9045C6.24833 29.584 6.15917 29.2367 6.20417 28.8628L6.63042 24.3791L3.66583 20.9878C3.40944 20.7145 3.28125 20.3855 3.28125 20.0008C3.28125 19.616 3.40944 19.287 3.66583 19.0137L6.63042 15.6224L6.20417 11.1387C6.15917 10.7648 6.24833 10.4176 6.47167 10.097C6.695 9.77645 6.99361 9.57993 7.3675 9.50743L11.7267 8.57118L14.0312 4.69618C14.2321 4.36729 14.5056 4.14298 14.8517 4.02326C15.1978 3.90354 15.5493 3.92173 15.9062 4.07784L20.015 5.81493L24.1237 4.07784C24.4807 3.92173 24.8322 3.90354 25.1783 4.02326C25.5244 4.14298 25.7979 4.36729 25.9987 4.69618L28.3033 8.57118L32.6625 9.50743C33.0364 9.57993 33.335 9.77645 33.5583 10.097C33.7817 10.4176 33.8708 10.7648 33.8258 11.1387L33.3996 15.6224L36.3642 19.0137C36.6206 19.287 36.7487 19.616 36.7487 20.0008C36.7487 20.3855 36.6206 20.7145 36.3642 20.9878L33.3996 24.3791L33.8258 28.8628C33.8708 29.2367 33.7817 29.584 33.5583 29.9045C33.335 30.2251 33.0364 30.4216 32.6625 30.4941L28.3033 31.4303L25.9987 35.3053C25.7979 35.6342 25.5244 35.8585 25.1783 35.9783C24.8322 36.098 24.4807 36.0798 24.1237 35.9237L20.015 34.1866L15.9062 35.9237C15.5493 36.0798 15.1978 36.098 14.8517 35.9783C14.5056 35.8585 14.2321 35.6342 14.0312 35.3053Z" fill="#02A04B"/>
<path d="M18.265 21.7766L15.56 19.097C15.3292 18.8662 15.0433 18.7481 14.7025 18.7428C14.3617 18.7376 14.0619 18.8641 13.8033 19.1224C13.5619 19.3641 13.4412 19.6569 13.4412 20.0008C13.4412 20.3447 13.5619 20.6374 13.8033 20.8791L17.2104 24.2862C17.5118 24.5873 17.8633 24.7378 18.265 24.7378C18.6667 24.7378 19.0182 24.5873 19.3196 24.2862L26.2267 17.3791C26.4744 17.131 26.5967 16.8409 26.5933 16.5087C26.5903 16.1765 26.4681 15.881 26.2267 15.6224C25.9681 15.3641 25.671 15.2306 25.3354 15.222C25.0001 15.2134 24.7032 15.3384 24.4446 15.597L18.265 21.7766ZM14.0312 35.3053L11.7267 31.4303L7.3675 30.4941C6.99361 30.4216 6.695 30.2251 6.47167 29.9045C6.24833 29.584 6.15917 29.2367 6.20417 28.8628L6.63042 24.3791L3.66583 20.9878C3.40944 20.7145 3.28125 20.3855 3.28125 20.0008C3.28125 19.616 3.40944 19.287 3.66583 19.0137L6.63042 15.6224L6.20417 11.1387C6.15917 10.7648 6.24833 10.4176 6.47167 10.097C6.695 9.77645 6.99361 9.57993 7.3675 9.50743L11.7267 8.57118L14.0312 4.69618C14.2321 4.36729 14.5056 4.14298 14.8517 4.02326C15.1978 3.90354 15.5493 3.92173 15.9062 4.07784L20.015 5.81493L24.1237 4.07784C24.4807 3.92173 24.8322 3.90354 25.1783 4.02326C25.5244 4.14298 25.7979 4.36729 25.9987 4.69618L28.3033 8.57118L32.6625 9.50743C33.0364 9.57993 33.335 9.77645 33.5583 10.097C33.7817 10.4176 33.8708 10.7648 33.8258 11.1387L33.3996 15.6224L36.3642 19.0137C36.6206 19.287 36.7487 19.616 36.7487 20.0008C36.7487 20.3855 36.6206 20.7145 36.3642 20.9878L33.3996 24.3791L33.8258 28.8628C33.8708 29.2367 33.7817 29.584 33.5583 29.9045C33.335 30.2251 33.0364 30.4216 32.6625 30.4941L28.3033 31.4303L25.9987 35.3053C25.7979 35.6342 25.5244 35.8585 25.1783 35.9783C24.8322 36.098 24.4807 36.0798 24.1237 35.9237L20.015 34.1866L15.9062 35.9237C15.5493 36.0798 15.1978 36.098 14.8517 35.9783C14.5056 35.8585 14.2321 35.6342 14.0312 35.3053Z" fill="black" fill-opacity="0.2"/>
</g>
</svg>
