<svg width="64" height="64" viewBox="0 0 64 64" fill="none" xmlns="http://www.w3.org/2000/svg">
<path d="M8.00065 52.5946V56C8.00065 56.7072 8.28161 57.3856 8.78169 57.8856C9.2818 58.3856 9.96006 58.6666 10.6673 58.6666H13.334C14.0412 58.6666 14.7195 58.3856 15.2196 57.8856C15.7197 57.3856 16.0007 56.7072 16.0007 56V53.3333H48.0007V56C48.0007 56.7072 48.2817 57.3856 48.7817 57.8856C49.2817 58.3856 49.9601 58.6666 50.6673 58.6666H53.334C54.0412 58.6666 54.7196 58.3856 55.2196 57.8856C55.7196 57.3856 56.0007 56.7072 56.0007 56V52.5946C56.8097 52.1306 57.4823 51.4616 57.9503 50.6549C58.4185 49.8485 58.6657 48.9325 58.6673 48V40C58.6673 37.784 57.3153 35.888 55.3927 35.08L51.7447 24.136C51.2156 22.5426 50.1975 21.1565 48.8356 20.1747C47.4737 19.1928 45.8369 18.6651 44.158 18.6666H19.8433C18.1644 18.6651 16.5276 19.1928 15.1657 20.1747C13.8037 21.1565 12.7859 22.5426 12.2567 24.136L8.60865 35.08C7.63878 35.4861 6.81054 36.1698 6.22793 37.0453C5.64534 37.9205 5.33433 38.9485 5.33398 40V48C5.33398 49.968 6.41132 51.6693 8.00065 52.5946ZM14.6673 48C14.1419 47.9997 13.6216 47.8962 13.1362 47.6949C12.6508 47.4936 12.2098 47.1986 11.8383 46.8272C11.0882 46.0765 10.667 45.0586 10.6673 43.9973C10.6677 42.936 11.0896 41.9184 11.8402 41.1682C12.5909 40.4181 13.6088 39.997 14.67 39.9973C15.7312 39.9976 16.7488 40.4194 17.499 41.1701C18.2491 41.9208 18.6703 42.9386 18.67 44C18.6696 45.0613 18.2477 46.0789 17.4971 46.829C16.7464 47.5792 15.7285 48.0002 14.6673 48ZM49.334 48C48.2727 47.9997 47.2551 47.5778 46.5049 46.8272C45.7548 46.0765 45.3337 45.0586 45.334 43.9973C45.3343 42.936 45.7561 41.9184 46.5068 41.1682C47.2575 40.4181 48.2753 39.997 49.3367 39.9973C50.398 39.9976 51.4156 40.4194 52.1657 41.1701C52.9159 41.9208 53.3369 42.9386 53.3367 44C53.3364 45.0613 52.9145 46.0789 52.1638 46.829C51.4132 47.5792 50.3953 48.0002 49.334 48ZM19.8433 24H44.1553C44.7153 23.9998 45.2609 24.1759 45.7153 24.5033C46.1695 24.8307 46.5092 25.2928 46.686 25.824L49.6353 34.6666H14.366L17.3127 25.824C17.678 24.7333 18.6967 24 19.8433 24Z" fill="white"/>
<path d="M58.6673 19.7014V14.0774L32.8433 5.46939C32.2727 5.27835 31.654 5.2868 31.0887 5.49339L5.33398 14.8587V20.5334L32.0407 10.8214L58.6673 19.7014Z" fill="white"/>
</svg>
