<svg width="80" height="80" viewBox="0 0 80 80" fill="none" xmlns="http://www.w3.org/2000/svg">
<path d="M50.0007 6.66663H30.0007C25.5809 6.66822 21.3426 8.42467 18.2173 11.5499C15.092 14.6752 13.3356 18.9135 13.334 23.3333V56.6666C13.3398 58.6268 13.9196 60.5424 15.0019 62.1767C16.0842 63.8111 17.6215 65.0926 19.424 65.863L17.6437 67.6433C17.0342 68.2716 16.6964 69.1143 16.7031 69.9896C16.7098 70.8648 17.0605 71.7023 17.6794 72.3212C18.2983 72.9401 19.1359 73.2907 20.0111 73.2973C20.8863 73.304 21.7291 72.9661 22.3573 72.3566L28.0477 66.6666H51.954L57.644 72.3566C58.2727 72.9638 59.1147 73.2998 59.9887 73.2922C60.8626 73.2846 61.6987 72.934 62.3167 72.316C62.9347 71.698 63.2853 70.8619 63.2929 69.988C63.3005 69.114 62.9645 68.272 62.3573 67.6433L60.577 65.863C62.3795 65.0926 63.9169 63.8111 64.9993 62.1768C66.0816 60.5425 66.6615 58.6269 66.6673 56.6666V23.3333C66.6657 18.9135 64.9093 14.6752 61.784 11.5499C58.6587 8.42467 54.4204 6.66822 50.0007 6.66663ZM26.6673 56.6666C26.008 56.6666 25.3636 56.4711 24.8154 56.1049C24.2673 55.7386 23.84 55.218 23.5877 54.6089C23.3354 53.9998 23.2694 53.3296 23.398 52.683C23.5267 52.0364 23.8441 51.4424 24.3103 50.9763C24.7765 50.5101 25.3704 50.1926 26.017 50.064C26.6636 49.9354 27.3338 50.0014 27.9429 50.2537C28.552 50.506 29.0726 50.9332 29.4389 51.4814C29.8052 52.0296 30.0007 52.674 30.0007 53.3333C29.998 54.2165 29.646 55.0628 29.0214 55.6874C28.3969 56.3119 27.5506 56.664 26.6673 56.6666ZM23.334 36.6666V23.3333C23.3392 21.5668 24.0432 19.8741 25.2923 18.625C26.5415 17.3759 28.2341 16.6718 30.0007 16.6666H50.0007C51.7672 16.6718 53.4599 17.3759 54.709 18.625C55.9581 19.8741 56.6621 21.5668 56.6673 23.3333V36.6666C56.6621 38.4331 55.9581 40.1258 54.709 41.3749C53.4599 42.6241 51.7672 43.3281 50.0007 43.3333H30.0007C28.2341 43.3281 26.5415 42.6241 25.2923 41.3749C24.0432 40.1258 23.3392 38.4331 23.334 36.6666ZM53.334 56.6666C52.6747 56.6666 52.0302 56.4711 51.4821 56.1049C50.9339 55.7386 50.5067 55.218 50.2544 54.6089C50.0021 53.9998 49.9361 53.3296 50.0647 52.683C50.1933 52.0364 50.5108 51.4424 50.977 50.9763C51.4431 50.5101 52.0371 50.1926 52.6837 50.064C53.3303 49.9354 54.0005 50.0014 54.6096 50.2537C55.2187 50.506 55.7393 50.9332 56.1056 51.4814C56.4718 52.0296 56.6673 52.674 56.6673 53.3333C56.6647 54.2165 56.3126 55.0628 55.6881 55.6874C55.0635 56.3119 54.2172 56.664 53.334 56.6666Z" fill="white"/>
</svg>
