<svg width="80" height="80" viewBox="0 0 80 80" fill="none" xmlns="http://www.w3.org/2000/svg">
<path d="M34.179 70.88C26.899 69.7599 21.139 63.76 20.179 56.48C19.299 49.92 22.259 43.92 27.139 40.48C28.099 39.76 28.579 38.64 28.419 37.44C28.019 35.12 25.379 33.92 23.459 35.28C16.819 40 12.819 48.08 13.859 57.04C14.979 67.92 23.939 76.4799 34.819 77.44C41.859 78.08 48.419 75.44 53.059 70.96C53.859 70.24 54.179 69.12 53.939 68.08C53.459 65.6 50.419 64.56 48.579 66.32C44.979 69.84 39.779 71.7599 34.179 70.88Z" fill="white"/>
<path d="M66.2591 73.44L61.8591 48.96C61.5391 47.12 59.9391 45.84 58.0991 45.84H48.2591L47.6191 37.36H57.8591C59.6191 37.36 61.0591 35.92 61.0591 34.16C61.0591 32.4 59.6191 30.96 57.8591 30.96H47.1391L46.8991 28C46.6591 24.08 43.3791 21.04 39.5391 21.04H38.3391C36.0991 21.04 34.0191 22 32.4991 23.68C30.9791 25.36 30.4191 27.6 30.7391 29.84L32.3391 50.24C32.6591 52.08 34.2591 53.52 36.0991 53.52H54.8991L58.7391 74.88C59.0591 76.72 60.6591 78 62.4991 78C62.7391 78 62.9791 78 63.2191 77.92C65.2191 77.52 66.5791 75.6 66.2591 73.44Z" fill="white"/>
<path d="M38.818 18.8C43.4572 18.8 47.218 15.0392 47.218 10.4C47.218 5.76081 43.4572 2 38.818 2C34.1788 2 30.418 5.76081 30.418 10.4C30.418 15.0392 34.1788 18.8 38.818 18.8Z" fill="white"/>
</svg>
