<svg width="48" height="48" viewBox="0 0 48 48" fill="none" xmlns="http://www.w3.org/2000/svg">
<path d="M6.375 43.5C6.37617 43.8975 6.53458 44.2783 6.81563 44.5594C7.09668 44.8404 7.47753 44.9988 7.875 45H23.25V24.75H6.375V43.5ZM19.875 32.4375C19.8779 32.2405 19.9582 32.0526 20.0986 31.9143C20.2389 31.776 20.428 31.6985 20.625 31.6985C20.822 31.6985 21.0111 31.776 21.1514 31.9143C21.2918 32.0526 21.3721 32.2405 21.375 32.4375V35.8125C21.3721 36.0095 21.2918 36.1974 21.1514 36.3357C21.0111 36.4739 20.822 36.5514 20.625 36.5514C20.428 36.5514 20.2389 36.4739 20.0985 36.3356C19.9582 36.1974 19.8779 36.0094 19.875 35.8125V32.4375Z" fill="#2E5799"/>
<path d="M6.375 4.5V23.25H23.25V3H7.875C7.47753 3.00116 7.09668 3.15957 6.81562 3.44062C6.53457 3.72168 6.37616 4.10253 6.375 4.5ZM19.875 12.1875C19.8779 11.9905 19.9582 11.8026 20.0986 11.6643C20.2389 11.526 20.428 11.4485 20.625 11.4485C20.822 11.4485 21.0111 11.526 21.1514 11.6643C21.2918 11.8026 21.3721 11.9905 21.375 12.1875V15.5625C21.3721 15.7595 21.2918 15.9474 21.1514 16.0857C21.0111 16.2239 20.822 16.3014 20.625 16.3014C20.428 16.3014 20.2389 16.2239 20.0985 16.0856C19.9582 15.9474 19.8779 15.7594 19.875 15.5625V12.1875Z" fill="#2E5799"/>
<path d="M40.125 3H24.75V23.25H41.625V4.5C41.6238 4.10253 41.4654 3.72168 41.1844 3.44062C40.9033 3.15957 40.5225 3.00116 40.125 3ZM39 15.5625C38.9971 15.7595 38.9168 15.9474 38.7764 16.0857C38.6361 16.2239 38.447 16.3014 38.25 16.3014C38.053 16.3014 37.8639 16.2239 37.7235 16.0856C37.5832 15.9474 37.5029 15.7594 37.5 15.5625V12.1875C37.5029 11.9905 37.5832 11.8026 37.7236 11.6643C37.8639 11.526 38.053 11.4485 38.25 11.4485C38.447 11.4485 38.6361 11.526 38.7764 11.6643C38.9168 11.8026 38.9971 11.9905 39 12.1875V15.5625Z" fill="#2E5799"/>
<path d="M24.75 45H40.125C40.5225 44.9988 40.9033 44.8404 41.1844 44.5594C41.4654 44.2783 41.6238 43.8975 41.625 43.5V24.75H24.75V45ZM37.5 32.4375C37.5029 32.2405 37.5832 32.0526 37.7236 31.9143C37.8639 31.776 38.053 31.6985 38.25 31.6985C38.447 31.6985 38.6361 31.776 38.7764 31.9143C38.9168 32.0526 38.9971 32.2405 39 32.4375V35.8125C38.9971 36.0095 38.9168 36.1974 38.7764 36.3357C38.6361 36.4739 38.447 36.5514 38.25 36.5514C38.053 36.5514 37.8639 36.4739 37.7235 36.3356C37.5832 36.1974 37.5029 36.0094 37.5 35.8125V32.4375Z" fill="#2E5799"/>
</svg>
