<svg width="48" height="48" viewBox="0 0 48 48" fill="none" xmlns="http://www.w3.org/2000/svg">
<g clip-path="url(#clip0_28600_2045)">
<path d="M12.75 16.9688C13.5267 16.9688 14.1562 16.3392 14.1562 15.5625C14.1562 14.7858 13.5267 14.1562 12.75 14.1562C11.9733 14.1562 11.3438 14.7858 11.3438 15.5625C11.3438 16.3392 11.9733 16.9688 12.75 16.9688Z" fill="#2E5799"/>
<path d="M12.75 33.8438C13.5267 33.8438 14.1562 33.2142 14.1562 32.4375C14.1562 31.6608 13.5267 31.0312 12.75 31.0312C11.9733 31.0312 11.3438 31.6608 11.3438 32.4375C11.3438 33.2142 11.9733 33.8438 12.75 33.8438Z" fill="#2E5799"/>
<path d="M42.375 24C42.375 24.7759 43.0067 25.4062 43.7812 25.4062H48V22.5938H43.7812C43.0067 22.5938 42.375 23.2241 42.375 24Z" fill="#2E5799"/>
<path d="M5.625 24C5.625 23.2241 4.99331 22.5938 4.21875 22.5938H0V25.4062H4.21875C4.99331 25.4062 5.625 24.7759 5.625 24Z" fill="#2E5799"/>
<path d="M22.5938 30.8889C19.3876 30.2356 16.9688 27.3953 16.9688 24C16.9688 20.6047 19.3876 17.7644 22.5938 17.1111V5.71875H7.03125C3.15309 5.71875 0 8.87316 0 12.75V19.7812H4.21875C6.54506 19.7812 8.4375 21.6737 8.4375 24C8.4375 26.3263 6.54506 28.2188 4.21875 28.2188H0V35.25C0 39.1268 3.15309 42.2812 7.03125 42.2812H22.5938V30.8889ZM12.75 11.3438C15.0763 11.3438 16.9688 13.2362 16.9688 15.5625C16.9688 17.8888 15.0763 19.7812 12.75 19.7812C10.4237 19.7812 8.53125 17.8888 8.53125 15.5625C8.53125 13.2362 10.4237 11.3438 12.75 11.3438ZM12.75 36.6562C10.4237 36.6562 8.53125 34.7638 8.53125 32.4375C8.53125 30.1112 10.4237 28.2188 12.75 28.2188C15.0763 28.2188 16.9688 30.1112 16.9688 32.4375C16.9688 34.7638 15.0763 36.6562 12.75 36.6562Z" fill="#2E5799"/>
<path d="M28.2188 24C28.2188 21.6737 26.3263 19.7812 24 19.7812C21.6737 19.7812 19.7812 21.6737 19.7812 24C19.7812 26.3263 21.6737 28.2188 24 28.2188C26.3263 28.2188 28.2188 26.3263 28.2188 24ZM24 25.4062C23.2234 25.4062 22.5938 24.7766 22.5938 24C22.5938 23.2232 23.2234 22.5938 24 22.5938C24.7766 22.5938 25.4062 23.2232 25.4062 24C25.4062 24.7766 24.7766 25.4062 24 25.4062Z" fill="#2E5799"/>
<path d="M43.7812 28.2188C41.4549 28.2188 39.5625 26.3263 39.5625 24C39.5625 21.6737 41.4549 19.7812 43.7812 19.7812H48V12.75C48 8.87316 44.8469 5.71875 40.9688 5.71875H25.4062V17.1111C28.6124 17.7644 31.0312 20.6047 31.0312 24C31.0312 27.3953 28.6124 30.2356 25.4062 30.8889V42.2812H40.9688C44.8469 42.2812 48 39.1268 48 35.25V28.2188H43.7812ZM35.25 11.3438C37.5763 11.3438 39.4688 13.2362 39.4688 15.5625C39.4688 17.8888 37.5763 19.7812 35.25 19.7812C32.9237 19.7812 31.0312 17.8888 31.0312 15.5625C31.0312 13.2362 32.9237 11.3438 35.25 11.3438ZM35.25 36.6562C32.9237 36.6562 31.0312 34.7638 31.0312 32.4375C31.0312 30.1112 32.9237 28.2188 35.25 28.2188C37.5763 28.2188 39.4688 30.1112 39.4688 32.4375C39.4688 34.7638 37.5763 36.6562 35.25 36.6562Z" fill="#2E5799"/>
<path d="M35.25 16.9688C36.0267 16.9688 36.6562 16.3392 36.6562 15.5625C36.6562 14.7858 36.0267 14.1562 35.25 14.1562C34.4733 14.1562 33.8438 14.7858 33.8438 15.5625C33.8438 16.3392 34.4733 16.9688 35.25 16.9688Z" fill="#2E5799"/>
<path d="M35.25 33.8438C36.0267 33.8438 36.6562 33.2142 36.6562 32.4375C36.6562 31.6608 36.0267 31.0312 35.25 31.0312C34.4733 31.0312 33.8438 31.6608 33.8438 32.4375C33.8438 33.2142 34.4733 33.8438 35.25 33.8438Z" fill="#2E5799"/>
</g>
<defs>
<clipPath id="clip0_28600_2045">
<rect width="48" height="48" fill="white"/>
</clipPath>
</defs>
</svg>
