<svg width="48" height="48" viewBox="0 0 48 48" fill="none" xmlns="http://www.w3.org/2000/svg">
<path d="M28.9659 10.7359C31.1853 12.1274 32.7416 14.4822 33.0249 17.2155C33.9301 17.6385 34.9346 17.8817 35.9997 17.8817C39.888 17.8817 43.0395 14.7302 43.0395 10.8425C43.0395 6.95421 39.888 3.80273 35.9997 3.80273C32.1486 3.80393 29.0246 6.8991 28.9659 10.7359ZM24.354 25.1496C28.2423 25.1496 31.3938 21.9976 31.3938 18.1099C31.3938 14.2222 28.2417 11.0707 24.354 11.0707C20.4663 11.0707 17.3131 14.2228 17.3131 18.1105C17.3131 21.9982 20.4663 25.1496 24.354 25.1496ZM27.3402 25.6295H21.3667C16.3966 25.6295 12.3531 29.6735 12.3531 34.6436V41.9487L12.3717 42.0632L12.8749 42.2207C17.618 43.7027 21.7387 44.1969 25.1304 44.1969C31.755 44.1969 35.5948 42.3082 35.8314 42.1878L36.3016 41.9499H36.3519V34.6436C36.3537 29.6735 32.3103 25.6295 27.3402 25.6295ZM38.987 18.3621H33.0597C32.9956 20.7336 31.9832 22.8692 30.382 24.4051C34.7999 25.7187 38.0322 29.8155 38.0322 34.6544V36.9055C43.8847 36.6911 47.2572 35.0324 47.4795 34.921L47.9497 34.6826H48V27.375C48 22.4055 43.9566 18.3621 38.987 18.3621ZM12.0015 17.8829C13.3787 17.8829 14.66 17.4809 15.7454 16.7962C16.0905 14.5457 17.2969 12.5791 19.0203 11.2396C19.0275 11.1079 19.0401 10.9773 19.0401 10.8443C19.0401 6.95601 15.888 3.80453 12.0015 3.80453C8.11262 3.80453 4.96174 6.95601 4.96174 10.8443C4.96174 14.7308 8.11262 17.8829 12.0015 17.8829ZM18.3236 24.4051C16.7302 22.8769 15.7215 20.7528 15.6478 18.3956C15.4279 18.3794 15.2105 18.3621 14.9864 18.3621H9.01355C4.04343 18.3621 0 22.4055 0 27.375V34.6814L0.0185698 34.794L0.521752 34.9527C4.32677 36.1406 7.72265 36.6881 10.6723 36.8606V34.6544C10.6735 29.8155 13.9046 25.7199 18.3236 24.4051Z" fill="#2E5799"/>
</svg>
