<svg width="142" height="28" viewBox="0 0 142 28" fill="none" xmlns="http://www.w3.org/2000/svg">
<g clip-path="url(#clip0_28600_1904)">
<path fill-rule="evenodd" clip-rule="evenodd" d="M17.8884 8.17971C16.7373 7.41055 15.3839 7 13.9994 7V0C16.7683 0 19.4751 0.821086 21.7774 2.35943C24.0797 3.89776 25.8741 6.08427 26.9337 8.64241C27.9933 11.2006 28.2706 14.0155 27.7304 16.7313C27.1902 19.447 25.8569 21.9416 23.8989 23.8995C21.941 25.8574 19.4464 27.1908 16.7307 27.731C14.015 28.2712 11.2 27.9939 8.64183 26.9343C6.08368 25.8747 3.89718 24.0803 2.35885 21.778C0.820506 19.4757 -0.000579834 16.7689 -0.000579834 14H6.99942C6.99942 15.3845 7.40997 16.7378 8.17913 17.889C8.94829 19.0401 10.0416 19.9373 11.3207 20.4672C12.5997 20.997 14.0072 21.1356 15.365 20.8655C16.7229 20.5954 17.9702 19.9287 18.9492 18.9498C19.9281 17.9708 20.5948 16.7235 20.8649 15.3656C21.135 14.0078 20.9964 12.6003 20.4666 11.3212C19.9368 10.0421 19.0396 8.94887 17.8884 8.17971Z" fill="#848484"/>
<path fill-rule="evenodd" clip-rule="evenodd" d="M6.99942 3.69945e-06C6.99942 0.919257 6.81836 1.82951 6.46658 2.67879C6.11479 3.52807 5.59918 4.29974 4.94917 4.94975C4.29916 5.59977 3.52749 6.11538 2.6782 6.46716C1.82892 6.81894 0.91867 7 -0.000579528 7L-0.000579834 14C1.83792 14 3.65843 13.6379 5.35699 12.9343C7.05556 12.2308 8.59892 11.1995 9.89889 9.89947C11.1989 8.5995 12.2302 7.05614 12.9337 5.35757C13.6373 3.65901 13.9994 1.8385 13.9994 0L6.99942 3.69945e-06Z" fill="#848484"/>
<path d="M87.9324 10.1167H84.536V20.9053H87.9324V10.1167Z" fill="#848484"/>
<path d="M84.9137 8.09652C85.2686 8.4517 85.7124 8.62929 86.2451 8.62929C86.7778 8.62929 87.2146 8.4517 87.5548 8.09652C87.8957 7.72657 88.0658 7.28256 88.0658 6.7646C88.0658 6.23184 87.8957 5.78785 87.5548 5.43268C87.2146 5.07749 86.7778 4.8999 86.2451 4.8999C85.7124 4.8999 85.2686 5.07749 84.9137 5.43268C84.5728 5.78785 84.4027 6.23184 84.4027 6.7646C84.4027 7.28256 84.5728 7.72657 84.9137 8.09652Z" fill="#848484"/>
<path d="M35.8095 20.9053V5.23291H39.2947V17.8419H46.243V20.9053H35.8095Z" fill="#848484"/>
<path fill-rule="evenodd" clip-rule="evenodd" d="M52.5185 21.1496C51.4086 21.1496 50.4023 20.9054 49.4995 20.417C48.6115 19.9138 47.9086 19.2331 47.3906 18.3747C46.8727 17.5163 46.6137 16.5544 46.6137 15.4889C46.6137 14.4233 46.8727 13.4688 47.3906 12.6252C47.9086 11.7817 48.6115 11.1157 49.4995 10.6274C50.3874 10.1241 51.3938 9.87256 52.5185 9.87256C53.6433 9.87256 54.6496 10.1168 55.5375 10.6051C56.4255 11.0935 57.1285 11.7669 57.6464 12.6252C58.1644 13.4688 58.4234 14.4233 58.4234 15.4889C58.4234 16.5544 58.1644 17.5163 57.6464 18.3747C57.1285 19.2331 56.4255 19.9138 55.5375 20.417C54.6496 20.9054 53.6433 21.1496 52.5185 21.1496ZM52.5185 18.064C53.0069 18.064 53.4361 17.9604 53.8061 17.7532C54.176 17.5312 54.4572 17.2278 54.6496 16.843C54.8568 16.4435 54.9604 15.992 54.9604 15.4889C54.9604 14.9857 54.8568 14.5491 54.6496 14.1792C54.4424 13.7944 54.1538 13.4984 53.7838 13.2912C53.4286 13.0692 53.0069 12.9582 52.5185 12.9582C52.045 12.9582 51.6232 13.0692 51.2532 13.2912C50.8832 13.4984 50.5946 13.7944 50.3874 14.1792C50.1802 14.564 50.0767 15.0079 50.0767 15.5111C50.0767 15.9994 50.1802 16.4435 50.3874 16.843C50.5946 17.2278 50.8832 17.5312 51.2532 17.7532C51.6232 17.9604 52.045 18.064 52.5185 18.064Z" fill="#848484"/>
<path fill-rule="evenodd" clip-rule="evenodd" d="M61.1143 25.123C62.0171 25.5373 63.0604 25.7445 64.2444 25.7445C65.3987 25.7445 66.4273 25.5151 67.33 25.0563C68.2328 24.5975 68.9431 23.9612 69.4611 23.1473C69.979 22.3333 70.2384 21.3714 70.2384 20.2614V10.1166H66.9082V10.8414C66.6605 10.633 66.3793 10.458 66.0647 10.3164C65.4875 10.0352 64.8289 9.89453 64.089 9.89453C63.0974 9.89453 62.2168 10.1313 61.4473 10.6049C60.6777 11.0637 60.071 11.7 59.627 12.514C59.183 13.3132 58.9611 14.2159 58.9611 15.2223C58.9611 16.2139 59.183 17.1166 59.627 17.9305C60.071 18.7445 60.6777 19.3883 61.4473 19.8618C62.2168 20.3354 63.0974 20.5722 64.089 20.5722C64.8141 20.5722 65.4727 20.4316 66.0647 20.1504C66.3514 20.0142 66.6104 19.8537 66.8416 19.6688V20.3502C66.8416 21.105 66.5974 21.6895 66.1091 22.1039C65.6355 22.5183 64.9769 22.7255 64.1334 22.7255C63.4526 22.7255 62.8681 22.6071 62.3797 22.3703C61.9061 22.1335 61.4769 21.7857 61.0921 21.3269L59.0055 23.4136C59.5234 24.1536 60.2264 24.7234 61.1143 25.123ZM65.9537 17.2424C65.6132 17.4496 65.2063 17.5532 64.7327 17.5532C64.2592 17.5532 63.8448 17.4496 63.4896 17.2424C63.1492 17.0352 62.8828 16.754 62.6905 16.3988C62.498 16.0288 62.4019 15.6366 62.4019 15.2223C62.4019 14.7783 62.498 14.3787 62.6905 14.0236C62.8828 13.6684 63.1566 13.3872 63.5118 13.18C63.867 12.9728 64.2739 12.8692 64.7327 12.8692C65.2063 12.8692 65.6132 12.9728 65.9537 13.18C66.3088 13.3872 66.5752 13.6684 66.7528 14.0236C66.9452 14.3787 67.0414 14.7783 67.0414 15.2223C67.0414 15.6662 66.9452 16.0658 66.7528 16.421C66.5752 16.7614 66.3088 17.0352 65.9537 17.2424Z" fill="#848484"/>
<path fill-rule="evenodd" clip-rule="evenodd" d="M77.3846 21.1496C76.2744 21.1496 75.2678 20.9054 74.3655 20.417C73.4772 19.9138 72.7744 19.2331 72.2564 18.3747C71.7384 17.5163 71.4794 16.5544 71.4794 15.4889C71.4794 14.4233 71.7384 13.4688 72.2564 12.6252C72.7744 11.7817 73.4772 11.1157 74.3655 10.6274C75.2531 10.1241 76.2597 9.87256 77.3846 9.87256C78.5088 9.87256 79.5154 10.1168 80.403 10.6051C81.2913 11.0935 81.9941 11.7669 82.5121 12.6252C83.0301 13.4688 83.2891 14.4233 83.2891 15.4889C83.2891 16.5544 83.0301 17.5163 82.5121 18.3747C81.9941 19.2331 81.2913 19.9138 80.403 20.417C79.5154 20.9054 78.5088 21.1496 77.3846 21.1496ZM77.3846 18.064C77.8725 18.064 78.3016 17.9604 78.6719 17.7532C79.0415 17.5312 79.3229 17.2278 79.5154 16.843C79.7226 16.4435 79.8262 15.992 79.8262 15.4889C79.8262 14.9857 79.7226 14.5491 79.5154 14.1792C79.3082 13.7944 79.0198 13.4984 78.6495 13.2912C78.2946 13.0692 77.8725 12.9582 77.3846 12.9582C76.9107 12.9582 76.4886 13.0692 76.119 13.2912C75.7487 13.4984 75.4603 13.7944 75.2531 14.1792C75.0459 14.564 74.9423 15.0079 74.9423 15.5111C74.9423 15.9994 75.0459 16.4435 75.2531 16.843C75.4603 17.2278 75.7487 17.5312 76.119 17.7532C76.4886 17.9604 76.9107 18.064 77.3846 18.064Z" fill="#848484"/>
<path fill-rule="evenodd" clip-rule="evenodd" d="M96.097 21.1272C95.3725 21.1272 94.7061 20.9866 94.0992 20.7054C93.78 20.5574 93.4916 20.3807 93.234 20.1754V25.456H89.8817V10.1166H93.2781V10.8612C93.5245 10.6596 93.7982 10.4854 94.0992 10.3385C94.7061 10.0425 95.3725 9.89453 96.097 9.89453C97.1183 9.89453 98.0213 10.1388 98.8053 10.6272C99.6047 11.1155 100.226 11.7815 100.67 12.625C101.129 13.4686 101.358 14.4305 101.358 15.5108C101.358 16.5912 101.129 17.5532 100.67 18.3967C100.226 19.2403 99.6047 19.9062 98.8053 20.3946C98.0213 20.883 97.1183 21.1272 96.097 21.1272ZM95.4761 18.0637C95.964 18.0637 96.3861 17.9527 96.741 17.7308C97.1113 17.5088 97.3997 17.2053 97.6069 16.8206C97.8141 16.4358 97.9177 15.9992 97.9177 15.5108C97.9177 15.0077 97.8141 14.5637 97.6069 14.179C97.3997 13.7942 97.1113 13.4982 96.741 13.291C96.3861 13.069 95.9717 12.958 95.4978 12.958C95.0246 12.958 94.6025 13.069 94.2329 13.291C93.8773 13.4982 93.5966 13.7942 93.3894 14.179C93.1822 14.5637 93.0786 15.0077 93.0786 15.5108C93.0786 15.9992 93.1745 16.4358 93.367 16.8206C93.5742 17.2053 93.8626 17.5088 94.2329 17.7308C94.6025 17.9527 95.0169 18.0637 95.4761 18.0637Z" fill="#848484"/>
<path d="M104.681 20.9273C105.303 21.0901 105.931 21.1714 106.568 21.1714C107.914 21.1714 108.98 20.8607 109.764 20.2391C110.563 19.6176 110.963 18.7814 110.963 17.7306C110.963 17.0499 110.838 16.5023 110.586 16.088C110.334 15.6588 110.009 15.3184 109.609 15.0668C109.209 14.8152 108.787 14.6154 108.343 14.4674C107.9 14.3194 107.478 14.1936 107.079 14.09C106.679 13.9864 106.353 13.868 106.101 13.7348C105.85 13.6016 105.724 13.424 105.724 13.2021C105.724 12.9949 105.821 12.8395 106.012 12.7359C106.205 12.6175 106.493 12.5583 106.878 12.5583C107.278 12.5583 107.685 12.6397 108.099 12.8025C108.528 12.9653 108.913 13.2465 109.253 13.6461L111.185 11.6926C110.697 11.071 110.061 10.6048 109.276 10.2941C108.507 9.96848 107.663 9.80566 106.745 9.80566C105.872 9.80566 105.11 9.95364 104.459 10.2496C103.807 10.5456 103.304 10.9526 102.949 11.4705C102.594 11.9737 102.417 12.5731 102.417 13.2687C102.417 13.9198 102.543 14.46 102.794 14.8892C103.045 15.3035 103.371 15.6292 103.77 15.8659C104.17 16.1027 104.592 16.2877 105.036 16.4209C105.48 16.5541 105.902 16.6799 106.302 16.7983C106.701 16.9019 107.027 17.0277 107.278 17.1757C107.545 17.3089 107.678 17.5087 107.678 17.775C107.678 17.9822 107.566 18.145 107.345 18.2634C107.137 18.3818 106.834 18.441 106.435 18.441C105.857 18.441 105.324 18.3374 104.836 18.1302C104.348 17.9082 103.926 17.6049 103.571 17.2201L101.64 19.1736C102.01 19.5731 102.454 19.9284 102.972 20.2391C103.504 20.5351 104.074 20.7644 104.681 20.9273Z" fill="#848484"/>
<path d="M117.158 21.1495C116.167 21.1495 115.286 20.9497 114.517 20.5501C113.761 20.1357 113.17 19.5733 112.741 18.863C112.311 18.1379 112.097 17.3091 112.097 16.3767V10.1167H115.493V16.3323C115.493 16.7023 115.552 17.0205 115.671 17.2869C115.804 17.5533 115.997 17.7605 116.248 17.9085C116.5 18.0564 116.803 18.1304 117.158 18.1304C117.661 18.1304 118.061 17.975 118.357 17.6642C118.653 17.3387 118.801 16.8947 118.801 16.3323V10.1167H122.197V16.3545C122.197 17.3017 121.983 18.1379 121.553 18.863C121.124 19.5733 120.533 20.1357 119.777 20.5501C119.023 20.9497 118.15 21.1495 117.158 21.1495Z" fill="#848484"/>
<path d="M127.28 10.1166H123.884V20.9052H127.28V14.6007C127.28 14.2308 127.354 13.92 127.502 13.6684C127.665 13.4168 127.88 13.2244 128.146 13.0912C128.413 12.9432 128.716 12.8692 129.056 12.8692C129.545 12.8692 129.951 13.0246 130.277 13.3354C130.618 13.6313 130.788 14.0532 130.788 14.6007V20.9052H134.184V14.6007C134.184 14.2308 134.258 13.92 134.406 13.6684C134.569 13.4168 134.783 13.2244 135.05 13.0912C135.316 12.9432 135.62 12.8692 135.96 12.8692C136.449 12.8692 136.855 13.0246 137.181 13.3354C137.521 13.6313 137.691 14.0532 137.691 14.6007V20.9052H141.088V14.2233C141.088 13.3206 140.896 12.551 140.511 11.9147C140.14 11.2635 139.63 10.7677 138.979 10.4274C138.343 10.0721 137.61 9.89453 136.781 9.89453C135.938 9.89453 135.175 10.0795 134.495 10.4496C134.053 10.6853 133.666 10.9895 133.335 11.3622C133.026 10.9723 132.651 10.6533 132.208 10.4051C131.617 10.0648 130.943 9.89453 130.189 9.89453C129.389 9.89453 128.672 10.0648 128.035 10.4051C127.758 10.5467 127.507 10.7163 127.28 10.9139V10.1166Z" fill="#848484"/>
</g>
<defs>
<clipPath id="clip0_28600_1904">
<rect width="141.4" height="28" fill="white"/>
</clipPath>
</defs>
</svg>
