<svg width="70" height="28" viewBox="0 0 70 28" fill="none" xmlns="http://www.w3.org/2000/svg">
<g clip-path="url(#clip0_28600_1917)">
<path d="M3.3397 2.9645C3.5217 2.1007 4.3827 1.4 5.2598 1.4H10.0282L6.0627 20.1761H1.2943C0.416497 20.1761 -0.147703 19.4761 0.0349969 18.6116L3.3397 2.9645ZM19.2346 2.9645C19.4173 2.1007 20.2776 1.4 21.1547 1.4H25.9231L21.9576 20.1761H17.1892C16.3114 20.1761 15.7472 19.4761 15.9299 18.6116L19.2346 2.9645ZM51.0251 2.9645C51.2071 2.1007 52.0667 1.4 52.9452 1.4H57.7136L53.7481 20.1761H48.979C48.1012 20.1761 47.5377 19.4761 47.7204 18.6116L51.0251 2.9645ZM27.5128 1.4H32.2812C33.159 1.4 33.7232 2.1 33.5405 2.9645L30.2358 18.6116C30.0538 19.4761 29.1935 20.1761 28.3157 20.1761H23.5473L27.5128 1.4ZM59.3033 1.4H64.0717C64.9495 1.4 65.5137 2.1 65.331 2.9645L62.0256 18.6116C61.8436 19.4761 60.984 20.1761 60.1062 20.1761H55.3371L59.3033 1.4ZM35.1302 2.9645C35.3122 2.1007 36.1718 1.4 37.0496 1.4H41.8187L37.8525 20.1761H33.0841C32.2063 20.1761 31.6421 19.4761 31.8255 18.6116L35.1295 2.9645H35.1302ZM43.4077 1.4H48.1768C49.0546 1.4 49.6181 2.1 49.4354 2.9645L44.4787 26.4355C44.2953 27.2993 43.4357 28 42.5579 28H37.7888L43.4077 1.4ZM8.974 13.9174H15.3321L14.3409 18.6116C14.1582 19.4761 13.2979 20.1761 12.4208 20.1761H7.6517L8.9733 13.9181L8.974 13.9174ZM31.1647 21.7413H37.5221L36.2005 28H31.4321C30.5536 28 29.9901 27.3 30.1728 26.4355L31.1647 21.7413ZM48.4225 23.1966L47.6175 27.0088C47.5825 27.1726 47.5279 27.2174 47.3613 27.2174H46.9952C46.8286 27.2174 46.7922 27.1726 46.8272 27.0088L47.6322 23.1966C47.6672 23.0335 47.7218 22.988 47.8884 22.988H48.2545C48.4211 22.988 48.4575 23.0335 48.4225 23.1966ZM49.4809 25.7684H49.406C49.3262 25.7684 49.2982 25.7908 49.2821 25.8699L49.0413 27.0088C49.0063 27.1726 48.951 27.2174 48.7851 27.2174H48.4183C48.2524 27.2174 48.216 27.1726 48.2503 27.0088L49.0553 23.1966C49.0903 23.0335 49.1463 22.988 49.3122 22.988H50.0682C50.939 22.988 51.2687 23.2981 51.1077 24.059L50.9733 24.6967C50.8123 25.4583 50.3517 25.7684 49.4809 25.7684ZM49.7021 23.8791L49.4921 24.8773C49.4746 24.9564 49.4928 24.9788 49.5733 24.9788H49.6937C49.9737 24.9788 50.1242 24.8661 50.1851 24.5784L50.2691 24.178C50.33 23.891 50.2278 23.7776 49.9471 23.7776H49.8267C49.7469 23.7776 49.7189 23.8 49.7021 23.8791ZM52.3187 24.4937L52.9137 25.1482C53.2259 25.4863 53.2693 25.6893 53.1895 26.0673L53.1685 26.1688C53.018 26.8793 52.6596 27.2741 51.8287 27.2741C50.9985 27.2741 50.7934 26.9416 50.9852 26.033L51.009 25.921C51.044 25.7572 51.0993 25.7117 51.2652 25.7117H51.6544C51.821 25.7117 51.8574 25.7572 51.8224 25.9203L51.7699 26.1688C51.7223 26.3942 51.7951 26.4845 51.9953 26.4845C52.1962 26.4845 52.3054 26.4005 52.3488 26.1975L52.3712 26.0897C52.4048 25.9315 52.3866 25.8531 52.2144 25.6669L51.6544 25.0635C51.3408 24.731 51.3009 24.5385 51.3807 24.1605L51.4066 24.0373C51.5571 23.3268 51.9155 22.9313 52.7457 22.9313C53.5766 22.9313 53.7817 23.2645 53.5899 24.1724L53.5661 24.2851C53.5311 24.4489 53.4758 24.4937 53.3099 24.4937H52.92C52.7541 24.4937 52.7177 24.4489 52.752 24.2851L52.8045 24.0373C52.8521 23.8112 52.78 23.7216 52.5791 23.7216C52.3789 23.7216 52.269 23.8056 52.2263 24.0086L52.206 24.1045C52.171 24.2683 52.1892 24.3474 52.3187 24.4937ZM55.6731 23.1966C55.7081 23.0335 55.7627 22.988 55.9293 22.988H56.2954C56.462 22.988 56.4984 23.0335 56.4634 23.1966L55.8642 26.0337C55.6724 26.9416 55.3273 27.2741 54.4964 27.2741C53.6662 27.2741 53.4611 26.9416 53.6529 26.033L54.2521 23.1966C54.2871 23.0335 54.3424 22.988 54.5083 22.988H54.8751C55.041 22.988 55.0774 23.0335 55.0431 23.1966L54.4152 26.1688C54.3676 26.3942 54.446 26.4845 54.6637 26.4845C54.8751 26.4845 54.9976 26.3942 55.0452 26.1688L55.6731 23.1966ZM58.0573 25.4919C58.0594 25.5374 58.0741 25.5479 58.1028 25.5479C58.1308 25.5479 58.1511 25.5374 58.1721 25.4919L59.1619 23.135C59.2102 23.016 59.2676 22.988 59.4111 22.988H59.9669C60.1328 22.988 60.1692 23.0335 60.1349 23.1966L59.3299 27.0088C59.2949 27.1726 59.2389 27.2174 59.073 27.2174H58.8098C58.6439 27.2174 58.6068 27.1726 58.6418 27.0088L59.0282 25.1818C59.0387 25.1314 59.0296 25.1195 58.9953 25.1195C58.9722 25.1195 58.9463 25.1314 58.9323 25.1706L58.1329 27.0319C58.0755 27.167 58.002 27.2174 57.8361 27.2174H57.6807C57.5085 27.2174 57.4567 27.167 57.4567 27.0319L57.4371 25.1699C57.4336 25.1307 57.4245 25.1195 57.3958 25.1195C57.3615 25.1195 57.3475 25.1314 57.337 25.1818L56.9513 27.0088C56.9163 27.1726 56.8617 27.2174 56.6951 27.2174H56.4319C56.2653 27.2174 56.2289 27.1726 56.2639 27.0088L57.0689 23.1966C57.1039 23.0335 57.1592 22.988 57.3251 22.988H57.8011C58.0013 22.988 58.0657 23.0335 58.0643 23.2309L58.0566 25.4919H58.0573ZM70.0007 1.4C70.0007 2.1735 69.3777 2.8 68.6098 2.8C68.4265 2.79945 68.2452 2.7628 68.0761 2.69213C67.907 2.62147 67.7535 2.51818 67.6243 2.38817C67.4951 2.25816 67.3928 2.10397 67.3233 1.93442C67.2537 1.76486 67.2182 1.58327 67.2189 1.4C67.2189 0.6265 67.8419 0 68.6098 0C69.3777 0 70.0007 0.6265 70.0007 1.4Z" fill="#848484"/>
</g>
<defs>
<clipPath id="clip0_28600_1917">
<rect width="70" height="28" fill="white"/>
</clipPath>
</defs>
</svg>
