<svg width="119" height="28" viewBox="0 0 119 28" fill="none" xmlns="http://www.w3.org/2000/svg">
<g clip-path="url(#clip0_28600_1919)">
<path fill-rule="evenodd" clip-rule="evenodd" d="M7.01097 1.75V28H0.000610352V1.75H7.01097Z" fill="#848484"/>
<path fill-rule="evenodd" clip-rule="evenodd" d="M10.516 1.75H25.413C30.2527 1.75 34.176 5.66751 34.176 10.5C34.176 15.3325 30.2527 19.25 25.413 19.25H17.5264V28H10.516V1.75ZM17.5264 12.25H25.413C26.381 12.25 27.1656 11.4665 27.1656 10.5C27.1656 9.53351 26.381 8.75 25.413 8.75H17.5264V12.25Z" fill="#848484"/>
<path fill-rule="evenodd" clip-rule="evenodd" d="M60.4663 1.75V15.3125C60.4663 18.4536 63.0164 21 66.1622 21C69.308 21 71.8582 18.4536 71.8582 15.3125V1.75H78.8687V15.3125C78.8687 22.3196 73.1798 28 66.1622 28C59.1447 28 53.4559 22.3196 53.4559 15.3125V1.75H60.4663Z" fill="#848484"/>
<path fill-rule="evenodd" clip-rule="evenodd" d="M36.8054 14C36.8054 7.2345 42.298 1.75 49.0735 1.75H50.8261V8.75H49.0735C46.1697 8.75 43.8158 11.1005 43.8158 14V14.875C43.8158 22.1237 37.9308 28 30.6713 28H29.795V21H30.6713C34.0591 21 36.8054 18.2577 36.8054 14.875V14Z" fill="#848484"/>
<path d="M118.301 2.625C118.301 4.07475 117.124 5.25 115.672 5.25C114.22 5.25 113.043 4.07475 113.043 2.625C113.043 1.17525 114.22 0 115.672 0C117.124 0 118.301 1.17525 118.301 2.625Z" fill="#848484"/>
<path d="M86.3953 27.9996L89.7406 14.0123L92.2277 22.4271C93.7103 27.446 100.83 27.446 102.313 22.4271L104.8 14.0123L108.145 27.9996H115.352L110.092 6.00527C108.842 0.774834 101.46 0.581173 99.9354 5.73886L97.2705 14.7579L94.6049 5.73887C93.081 0.581203 85.6988 0.774806 84.4479 6.00526L79.1881 27.9996H86.3953Z" fill="#848484"/>
</g>
<defs>
<clipPath id="clip0_28600_1919">
<rect width="118.3" height="28" fill="white"/>
</clipPath>
</defs>
</svg>
