<svg width="124" height="28" viewBox="0 0 124 28" fill="none" xmlns="http://www.w3.org/2000/svg">
<g clip-path="url(#clip0_28600_1926)">
<path fill-rule="evenodd" clip-rule="evenodd" d="M10.4991 19.6C9.57089 19.6 8.68065 19.2313 8.02427 18.5749C7.3679 17.9185 6.99915 17.0283 6.99915 16.1V0H-0.000854492V16.1C-0.000854492 21.8988 4.70035 26.6 10.4991 26.6H18.1991V19.6H10.4991ZM31.4991 7C30.6718 7 29.8526 7.16295 29.0882 7.47956C28.3239 7.79616 27.6294 8.26022 27.0444 8.84523C26.4594 9.43024 25.9953 10.1247 25.6787 10.8891C25.3621 11.6534 25.1991 12.4727 25.1991 13.3C25.1991 14.1273 25.3621 14.9466 25.6787 15.7109C25.9953 16.4753 26.4594 17.1698 27.0444 17.7548C27.6294 18.3398 28.3239 18.8038 29.0882 19.1204C29.8526 19.437 30.6718 19.6 31.4991 19.6C33.17 19.6 34.7724 18.9363 35.9539 17.7548C37.1354 16.5733 37.7991 14.9709 37.7991 13.3C37.7991 11.6291 37.1354 10.0267 35.9539 8.84523C34.7724 7.66375 33.17 7 31.4991 7ZM18.1991 13.3C18.1991 5.9549 24.154 0 31.4991 0C38.8442 0 44.7991 5.9549 44.7991 13.3C44.7991 20.6451 38.8442 26.6 31.4991 26.6C24.154 26.6 18.1991 20.6451 18.1991 13.3ZM107.099 7C105.428 7 103.826 7.66375 102.644 8.84523C101.463 10.0267 100.799 11.6291 100.799 13.3C100.799 14.9709 101.463 16.5733 102.644 17.7548C103.826 18.9363 105.428 19.6 107.099 19.6C108.77 19.6 110.372 18.9363 111.554 17.7548C112.735 16.5733 113.399 14.9709 113.399 13.3C113.399 11.6291 112.735 10.0267 111.554 8.84523C110.372 7.66375 108.77 7 107.099 7ZM93.7991 13.3C93.7991 5.9549 99.7541 0 107.099 0C114.444 0 120.399 5.9549 120.399 13.3C120.399 20.6451 114.444 26.6 107.099 26.6C99.7541 26.6 93.7991 20.6451 93.7991 13.3ZM59.4991 0C52.154 0 46.1992 5.9549 46.1992 13.3C46.1992 20.6451 52.154 26.6 59.4991 26.6H79.0992C80.4774 26.6 81.8067 26.39 83.057 26.0008L86.7991 28L90.8368 20.4372C91.8624 18.512 92.3989 16.3641 92.3992 14.1827V13.3C92.3992 5.9549 86.4443 0 79.0992 0H59.4991ZM85.3992 13.3C85.3992 11.6291 84.7354 10.0267 83.5539 8.84523C82.3724 7.66375 80.77 7 79.0992 7H59.4991C58.6718 7 57.8526 7.16295 57.0882 7.47956C56.3239 7.79616 55.6294 8.26022 55.0444 8.84523C54.4594 9.43024 53.9953 10.1247 53.6787 10.8891C53.3621 11.6534 53.1992 12.4727 53.1992 13.3C53.1992 14.1273 53.3621 14.9466 53.6787 15.7109C53.9953 16.4753 54.4594 17.1698 55.0444 17.7548C55.6294 18.3398 56.3239 18.8038 57.0882 19.1204C57.8526 19.437 58.6718 19.6 59.4991 19.6H79.0992C80.7616 19.6 82.3566 18.943 83.5367 17.7721C84.7168 16.6012 85.3862 15.0114 85.3992 13.349V13.3Z" fill="#848484"/>
<path d="M123.198 1.75C123.198 2.21413 123.014 2.65925 122.686 2.98744C122.357 3.31563 121.912 3.5 121.448 3.5C120.984 3.5 120.539 3.31563 120.211 2.98744C119.882 2.65925 119.698 2.21413 119.698 1.75C119.698 1.28587 119.882 0.840752 120.211 0.512563C120.539 0.184374 120.984 0 121.448 0C121.912 0 122.357 0.184374 122.686 0.512563C123.014 0.840752 123.198 1.28587 123.198 1.75Z" fill="#848484"/>
</g>
<defs>
<clipPath id="clip0_28600_1926">
<rect width="123.2" height="28" fill="white"/>
</clipPath>
</defs>
</svg>
