<svg width="48" height="48" viewBox="0 0 48 48" fill="none" xmlns="http://www.w3.org/2000/svg">
<path d="M37.7878 11.5312H10.2148C8.34131 11.5312 6.82031 13.0522 6.82031 14.9272V47.8013H19.3363V41.9858C19.3363 39.4073 21.4258 37.3193 24.0013 37.3193C26.5768 37.3193 28.6678 39.4088 28.6678 41.9858V47.8013H41.1823V14.9258C41.1823 13.0508 39.6628 11.5312 37.7878 11.5312ZM17.8918 33.6817H11.0623V26.8553H17.8918V33.6817ZM17.8918 24.0667H11.0623V17.2402H17.8918V24.0667ZM27.4153 33.6817H20.5873V26.8553H27.4153V33.6817ZM27.4153 24.0667H20.5873V17.2402H27.4153V24.0667ZM36.9403 33.6817H30.1108V26.8553H36.9403V33.6817ZM36.9403 24.0667H30.1108V17.2402H36.9403V24.0667Z" fill="#2E5799"/>
<path d="M21.0433 9.31112L24.0028 7.75562L26.9638 9.31112L26.3968 6.01562L28.7908 3.68312L25.4818 3.20012L24.0028 0.203125L22.5238 3.20012L19.2148 3.68312L21.6088 6.01562L21.0433 9.31112Z" fill="#2E5799"/>
<path d="M11.9743 8.20859L14.2183 7.03109L16.4608 8.20859L16.0318 5.71259L17.8468 3.94259L15.3388 3.57959L14.2183 1.30859L13.0963 3.57959L10.5898 3.94259L12.4048 5.71259L11.9743 8.20859Z" fill="#2E5799"/>
<path d="M31.5422 8.20859L33.7848 7.03109L36.0287 8.20859L35.5983 5.71259L37.4132 3.94259L34.9067 3.57959L33.7848 1.30859L32.6642 3.57959L30.1562 3.94259L31.9712 5.71259L31.5422 8.20859Z" fill="#2E5799"/>
</svg>
