<svg width="48" height="48" viewBox="0 0 48 48" fill="none" xmlns="http://www.w3.org/2000/svg">
<g clip-path="url(#clip0_28597_1507)">
<path d="M5.16752 33.9915C4.26799 33.0919 3.46914 32.1369 2.75955 31.1523C1.5272 31.9245 0.613611 32.6479 0.16858 33.0197C-0.0101079 33.1689 -0.0523892 33.4256 0.0689233 33.6243C0.993767 35.1394 5.01761 41.1852 10.8737 42.1507C13.4626 42.5776 16.0305 41.9487 18.2082 41.0162C14.3219 40.0212 9.19127 38.0154 5.16752 33.9915Z" fill="#2E5799"/>
<path d="M45.2417 31.1523C44.5321 32.137 43.7332 33.092 42.8337 33.9916C38.8098 38.0155 33.6793 40.0214 29.793 41.0162C31.9708 41.9487 34.5386 42.5776 37.1275 42.1507C42.9836 41.1853 47.0074 35.1395 47.9323 33.6243C48.0536 33.4256 48.0113 33.169 47.8326 33.0197C47.3877 32.6479 46.4741 31.9244 45.2417 31.1523Z" fill="#2E5799"/>
<path d="M14.961 16.6892C15.4712 14.6545 16.2011 12.7755 16.999 11.1119C14.7378 9.01914 12.6143 7.67336 11.6942 7.13158C11.4417 6.98289 11.1171 7.09905 11.0162 7.37411C10.6408 8.39749 9.82741 10.8643 9.41406 14.0084C11.219 14.6665 13.1228 15.5376 14.961 16.6892Z" fill="#2E5799"/>
<path d="M38.5888 14.0084C38.1755 10.8643 37.3621 8.39749 36.9868 7.37411C36.8859 7.09905 36.5612 6.98289 36.3088 7.13158C35.3886 7.67327 33.2652 9.01914 31.0039 11.1119C31.8018 12.7755 32.5317 14.6545 33.0419 16.6892C34.8801 15.5376 36.7839 14.6665 38.5888 14.0084Z" fill="#2E5799"/>
<path d="M14.2259 22.438C14.2259 21.5022 14.2872 20.5842 14.3976 19.6876C8.92596 15.8666 2.43621 15.0153 0.519584 14.8418C0.222959 14.815 -0.0248218 15.0628 0.00199066 15.3594C0.206084 17.6137 1.34674 26.1951 7.15624 32.0046C11.0196 35.868 16.1081 37.6663 19.7472 38.4978C17.4591 35.1783 14.2259 29.2762 14.2259 22.438Z" fill="#2E5799"/>
<path d="M47.4817 14.8418C45.565 15.0153 39.0753 15.8666 33.6037 19.6877C33.7141 20.5842 33.7753 21.5022 33.7753 22.438C33.7753 29.2763 30.5421 35.1784 28.2539 38.4978C31.893 37.6662 36.9816 35.868 40.845 32.0046C46.6545 26.1951 47.7952 17.6136 47.9992 15.3593C48.0261 15.0628 47.7783 14.815 47.4817 14.8418Z" fill="#2E5799"/>
<path d="M30.9623 22.4377C30.9623 30.5195 25.7869 37.2819 24.3607 38.9919C24.1731 39.2169 23.8283 39.2169 23.6407 38.9919C22.2145 37.2819 17.0391 30.5195 17.0391 22.4377C17.0391 14.3559 22.2146 7.59359 23.6408 5.88359C23.8284 5.65859 24.1732 5.65859 24.3608 5.88359C25.7869 7.59359 30.9623 14.356 30.9623 22.4377Z" fill="#2E5799"/>
</g>
<defs>
<clipPath id="clip0_28597_1507">
<rect width="48" height="48" fill="white"/>
</clipPath>
</defs>
</svg>
