<svg width="48" height="48" viewBox="0 0 48 48" fill="none" xmlns="http://www.w3.org/2000/svg">
<path d="M28.5 32.2508V21.0008H36V22.887C36 26.814 37.4258 30.549 40.002 33.489C39.846 33.7943 39.75 34.1348 39.75 34.5008V36.0008H30.75V34.5008C30.75 33.2603 29.7405 32.2508 28.5 32.2508ZM19.5 17.9228V17.6153C19.5 13.692 18.0938 9.99228 15.543 7.06128C18.6233 4.22178 22.662 2.46603 27 2.28228V19.5008H20.076C19.9492 18.9458 19.7542 18.417 19.5 17.9228ZM28.5 2.26953C32.9175 2.45178 36.9277 4.23228 39.9683 7.04853C37.41 9.98103 36 13.686 36 17.6145V19.5008H28.5V2.26953ZM37.5 22.887V21.0008H45.7147C45.54 25.2413 43.8997 29.2448 41.0288 32.3843C38.757 29.736 37.5 26.3963 37.5 22.887ZM37.5 19.5008V17.6145C37.5 14.0873 38.7518 10.758 41.0272 8.11128C43.8008 11.142 45.5505 15.1223 45.7312 19.5008H37.5ZM14.484 8.12328C16.3763 10.329 17.55 13.0088 17.8883 15.882C16.7063 14.868 15.1755 14.2508 13.5 14.2508H10.788C11.6062 11.9423 12.8767 9.87153 14.484 8.12328ZM17.25 45.7508H5.25V41.2508H17.25V45.7508ZM17.0303 37.41C16.395 38.0453 15.975 38.8718 15.8197 39.7508H6.75V39.0008C6.75 38.8013 6.67125 38.6108 6.53025 38.4705C3.77025 35.7098 2.25 32.0408 2.25 28.137V21.0008C2.25 18.1065 4.605 15.7508 7.5 15.7508H13.5C16.395 15.7508 18.75 18.1065 18.75 21.0008V23.3265C17.0407 23.6753 15.75 25.1895 15.75 27.0008V28.5008H17.25V27.0008C17.25 25.7603 18.2595 24.7508 19.5 24.7508C20.7405 24.7508 21.75 25.7603 21.75 27.0008V31.5008C21.75 32.2568 21.4433 32.9963 20.9093 33.531L17.0303 37.41ZM20.0475 36.5138L21.9697 34.5915C22.7835 33.7778 23.25 32.6513 23.25 31.5008V27.0008C23.25 25.1903 21.9592 23.6753 20.25 23.3265V21.0008H27V32.2508H25.5C24.2595 32.2508 23.25 33.2603 23.25 34.5008V37.6733C22.1467 37.389 21.0758 37.002 20.0475 36.5138ZM29.25 45.0008C29.25 45.4148 28.9132 45.7508 28.5 45.7508H25.5C25.0868 45.7508 24.75 45.4148 24.75 45.0008V34.5008C24.75 34.0868 25.0868 33.7508 25.5 33.7508H28.5C28.9132 33.7508 29.25 34.0868 29.25 34.5008V45.0008ZM30.75 42.0008V37.5008H39.75V42.0008H30.75ZM41.25 34.5008C41.25 34.0868 41.5868 33.7508 42 33.7508H45C45.4132 33.7508 45.75 34.0868 45.75 34.5008V45.0008C45.75 45.4148 45.4132 45.7508 45 45.7508H42C41.5868 45.7508 41.25 45.4148 41.25 45.0008V34.5008Z" fill="#2E5799"/>
</svg>
