<svg width="1200" height="120" viewBox="0 0 1200 120" fill="none" xmlns="http://www.w3.org/2000/svg">
<path d="M19.7962 150.477C7.82416 150.477 -2.4966 148.55 -11.166 144.697C-19.6979 140.706 -27.5416 134.72 -34.6974 126.739L-13.643 105.891C-8.96427 111.258 -3.80389 115.455 1.83812 118.482C7.61775 121.372 14.2918 122.817 21.8604 122.817C28.7409 122.817 34.0389 121.579 37.7544 119.102C41.6074 116.625 43.534 113.184 43.534 108.781C43.534 104.79 42.2955 101.556 39.8185 99.0793C37.3415 96.6023 34.0389 94.4693 29.9106 92.6804C25.9199 90.8915 21.4476 89.1713 16.4936 87.52C11.6772 85.8687 6.86089 84.0109 2.04454 81.9468C-2.77182 79.745 -7.24414 77.0616 -11.3724 73.8966C-15.3631 70.594 -18.597 66.5345 -21.074 61.7181C-23.5509 56.7641 -24.7894 50.5717 -24.7894 43.1408C-24.7894 34.1961 -22.6565 26.4899 -18.3906 20.0222C-13.987 13.5546 -7.93219 8.66942 -0.226028 5.36678C7.48014 1.92653 16.356 0.206404 26.4015 0.206404C36.5847 0.206404 45.8734 1.99533 54.2676 5.57319C62.7994 9.15106 69.8175 14.0362 75.3219 20.2287L54.2676 41.0766C49.864 36.5355 45.3917 33.164 40.8506 30.9623C36.4471 28.7605 31.4243 27.6596 25.7823 27.6596C20.1403 27.6596 15.6679 28.7605 12.3653 30.9623C9.06265 33.0264 7.41133 36.0538 7.41133 40.0445C7.41133 43.76 8.64982 46.7874 11.1268 49.1268C13.6038 51.3285 16.8376 53.2551 20.8283 54.9064C24.9566 56.5577 29.4289 58.2091 34.2453 59.8604C39.1993 61.5117 44.0844 63.4382 48.9008 65.64C53.7171 67.8418 58.1207 70.6628 62.1113 74.103C66.2396 77.4057 69.5423 81.6716 72.0193 86.9008C74.4962 91.9923 75.7347 98.3224 75.7347 105.891C75.7347 119.79 70.7808 130.73 60.8729 138.711C50.9649 146.555 37.2727 150.477 19.7962 150.477ZM112.891 95.1574V69.9747H144.266C148.257 69.9747 151.904 69.1491 155.206 67.4977C158.509 65.8464 161.123 63.4382 163.05 60.2732C164.976 57.1082 165.94 53.2551 165.94 48.714C165.94 44.3104 164.976 40.5262 163.05 37.3611C161.123 34.1961 158.509 31.7879 155.206 30.1366C151.904 28.4853 148.257 27.6596 144.266 27.6596H112.891V2.47697H149.014C158.234 2.47697 166.559 4.3347 173.99 8.05018C181.421 11.7657 187.269 17.1324 191.535 24.1506C195.939 31.0311 198.141 39.2189 198.141 48.714C198.141 58.2091 195.939 66.4657 191.535 73.4838C187.269 80.3643 181.421 85.7311 173.99 89.5842C166.559 93.2996 158.234 95.1574 149.014 95.1574H112.891ZM88.1213 148.206V2.47697H120.528V148.206H88.1213ZM279.041 150.683C268.032 150.683 257.849 148.756 248.491 144.903C239.271 141.05 231.152 135.684 224.134 128.803C217.116 121.923 211.681 113.941 207.828 104.859C203.974 95.639 202.048 85.7311 202.048 75.1351C202.048 64.4015 203.974 54.4936 207.828 45.4113C211.681 36.3291 217.047 28.4165 223.928 21.6736C230.808 14.7931 238.859 9.49508 248.078 5.7796C257.436 1.92652 267.619 -2.03148e-05 278.628 -2.03148e-05C289.499 -2.03148e-05 299.545 1.92652 308.765 5.7796C318.122 9.49508 326.241 14.7931 333.122 21.6736C340.14 28.4165 345.575 36.3979 349.428 45.6177C353.281 54.7 355.208 64.6079 355.208 75.3415C355.208 85.9375 353.281 95.8454 349.428 105.065C345.575 114.148 340.208 122.129 333.328 129.009C326.447 135.752 318.328 141.05 308.971 144.903C299.751 148.756 289.774 150.683 279.041 150.683ZM278.628 121.166C287.297 121.166 294.866 119.239 301.334 115.386C307.939 111.533 313.03 106.166 316.608 99.2857C320.186 92.2676 321.975 84.2174 321.975 75.1351C321.975 68.2546 320.943 62.0621 318.879 56.5577C316.815 50.9157 313.856 46.0994 310.003 42.1087C306.15 37.9804 301.54 34.8841 296.173 32.82C290.944 30.6182 285.096 29.5173 278.628 29.5173C269.958 29.5173 262.321 31.4439 255.716 35.297C249.248 39.0124 244.225 44.3104 240.648 51.1909C237.07 57.9338 235.281 65.9152 235.281 75.1351C235.281 82.0156 236.313 88.2769 238.377 93.9189C240.441 99.5609 243.331 104.446 247.046 108.574C250.899 112.565 255.509 115.661 260.876 117.863C266.243 120.065 272.16 121.166 278.628 121.166ZM392.293 88.1392V64.1951H423.049C429.517 64.1951 434.471 62.5438 437.911 59.2411C441.489 55.9385 443.278 51.4662 443.278 45.8241C443.278 40.595 441.558 36.2602 438.117 32.82C434.677 29.3797 429.723 27.6596 423.256 27.6596H392.293V2.47697H426.971C436.604 2.47697 445.067 4.3347 452.36 8.05018C459.653 11.628 465.364 16.6508 469.493 23.1185C473.621 29.5862 475.685 37.0171 475.685 45.4113C475.685 53.9431 473.621 61.4429 469.493 67.9106C465.364 74.2406 459.585 79.1946 452.154 82.7725C444.723 86.3503 435.984 88.1392 425.939 88.1392H392.293ZM367.523 148.206V2.47697H399.931V148.206H367.523ZM446.787 148.206L401.376 85.4559L431.099 77.4057L485.18 148.206H446.787ZM521.97 148.206V4.54112H554.378V148.206H521.97ZM476.353 30.7558V2.47697H599.995V30.7558H476.353ZM580.955 148.206L638.751 2.47697H668.062L725.239 148.206H690.974L647.214 27.2468H658.98L614.601 148.206H580.955ZM613.775 121.785V95.3638H693.245V121.785H613.775ZM757.172 88.1392V64.1951H787.928C794.396 64.1951 799.35 62.5438 802.79 59.2411C806.368 55.9385 808.157 51.4662 808.157 45.8241C808.157 40.595 806.437 36.2602 802.997 32.82C799.556 29.3797 794.602 27.6596 788.135 27.6596H757.172V2.47697H791.85C801.483 2.47697 809.946 4.3347 817.239 8.05018C824.533 11.628 830.243 16.6508 834.372 23.1185C838.5 29.5862 840.564 37.0171 840.564 45.4113C840.564 53.9431 838.5 61.4429 834.372 67.9106C830.243 74.2406 824.464 79.1946 817.033 82.7725C809.602 86.3503 800.864 88.1392 790.818 88.1392H757.172ZM732.403 148.206V2.47697H764.81V148.206H732.403ZM811.666 148.206L766.255 85.4559L795.978 77.4057L850.059 148.206H811.666ZM855.977 148.206V2.47697H888.385V148.206H855.977ZM880.747 148.206V120.134H960.63V148.206H880.747ZM880.747 87.3136V60.2732H953.405V87.3136H880.747ZM880.747 30.343V2.47697H959.598V30.343H880.747ZM974.715 148.206V2.47697H997.42L1007.12 31.5815V148.206H974.715ZM1075.24 148.206L989.37 38.1868L997.42 2.47697L1083.29 112.496L1075.24 148.206ZM1075.24 148.206L1066.57 119.102V2.47697H1098.98V148.206H1075.24ZM1107.91 148.206L1165.71 2.47697H1195.02L1252.19 148.206H1217.93L1174.17 27.2468H1185.94L1141.56 148.206H1107.91ZM1140.73 121.785V95.3638H1220.2V121.785H1140.73Z" fill="url(#paint0_linear_28597_1464)"/>
<defs>
<linearGradient id="paint0_linear_28597_1464" x1="609" y1="-30.7939" x2="609" y2="175.206" gradientUnits="userSpaceOnUse">
<stop stop-color="white"/>
<stop offset="1" stop-color="white" stop-opacity="0"/>
</linearGradient>
</defs>
</svg>
